SplineFontDB: 3.0
FontName: LiteraturnayaMedium_lat
FullName: Literaturnaya_lat
FamilyName: Literaturnaya_lat
Weight: Medium
Copyright: (c) !22! Soft 1992
Version: 001.001
ItalicAngle: 0
UnderlinePosition: -154
UnderlineWidth: 42
Ascent: 1638
Descent: 410
InvalidEm: 0
sfntRevision: 0x00010000
LayerCount: 3
Layer: 0 1 "Back" 1
Layer: 1 1 "Fore" 0
Layer: 2 0 "Back 2" 1
XUID: [1021 410 1763118492 6662119]
StyleMap: 0x0040
FSType: 0
OS2Version: 0
OS2_WeightWidthSlopeOnly: 0
OS2_UseTypoMetrics: 0
CreationTime: -2082844800
ModificationTime: 1527975618
PfmFamily: 17
TTFWeight: 400
TTFWidth: 5
LineGap: 0
VLineGap: 0
Panose: 2 11 5 0 0 0 0 0 0 0
OS2TypoAscent: 1497
OS2TypoAOffset: 0
OS2TypoDescent: -487
OS2TypoDOffset: 0
OS2TypoLinegap: 0
OS2WinAscent: 1853
OS2WinAOffset: 0
OS2WinDescent: 487
OS2WinDOffset: 0
HheadAscent: 1497
HheadAOffset: 0
HheadDescent: -507
HheadDOffset: 0
OS2SubXSize: 410
OS2SubYSize: 369
OS2SubXOff: 0
OS2SubYOff: -487
OS2SupXSize: 410
OS2SupYSize: 369
OS2SupXOff: 0
OS2SupYOff: 1254
OS2StrikeYSize: 102
OS2StrikeYPos: 530
OS2Vendor: 'PfEd'
OS2UnicodeRanges: 00000000.00000000.00000000.00000000
MarkAttachClasses: 1
DEI: 91125
TtTable: prep
NPUSHB
 26
 9
 58
 6
 52
 36
 47
 3
 58
 129
 14
 13
 23
 145
 6
 140
 5
 134
 67
 129
 4
 129
 129
 65
 13
 67
 0
SCANTYPE
PUSHW_1
 828
SCANCTRL
SCVTCI
CALL
CALL
EndTTInstrs
TtTable: fpgm
NPUSHB
 22
 21
 20
 19
 18
 17
 16
 15
 14
 13
 12
 11
 10
 9
 8
 7
 6
 5
 4
 3
 2
 1
 0
FDEF
PUSHB_3
 0
 128
 0
RS
DUP
ROLL
DIV
ROLL
SWAP
WS
FLOOR
ODD
ENDF
FDEF
PUSHB_3
 42
 0
 0
RS
EQ
JROT
PUSHB_1
 0
CALL
IF
SLOOP
IP
EIF
PUSHB_1
 0
CALL
IF
SLOOP
ALIGNRP
EIF
PUSHB_1
 0
CALL
IF
PUSHB_1
 10
LOOPCALL
EIF
PUSHB_1
 1
RS
SRP0
PUSHB_1
 0
CALL
IF
SLOOP
ALIGNRP
EIF
PUSHB_1
 0
CALL
IF
PUSHB_1
 10
LOOPCALL
EIF
ENDF
FDEF
CALL
ENDF
FDEF
CALL
PUSHB_1
 2
LOOPCALL
ENDF
FDEF
PUSHB_1
 2
LOOPCALL
ENDF
FDEF
PUSHB_1
 1
DIV
PUSHB_1
 0
SWAP
WS
PUSHB_2
 1
 3
CINDEX
WS
DUP
GC[cur]
DUP
ROUND[Grey]
SUB
ABS
PUSHB_1
 3
CINDEX
GC[cur]
DUP
ROUND[Grey]
DUP
PUSHB_1

StartChar: u10000
Encoding: 65536 65536 0
Width: 1536
Flags: W
LayerCount: 3
Fore
SplineSet
256 0 m 1,0,-1
 256 1280 l 1,1,-1
 1280 1280 l 1,2,-1
 1280 0 l 1,3,-1
 256 0 l 1,0,-1
1247 33 m 1,4,-1
 1247 1247 l 1,5,-1
 289 1247 l 1,6,-1
 289 33 l 1,7,-1
 1247 33 l 1,4,-1
EndSplineSet
Validated: 1
EndChar

StartChar: exclam
Encoding: 33 33 4
Width: 545
Flags: W
LayerCount: 3
Fore
SplineSet
236 344 m 1,0,-1
 236 424 l 2,1,2
 236 605 236 605 209 852 c 0,3,4
 202 910 202 910 195 964 c 128,-1,5
 188 1018 188 1018 184 1071 c 0,6,7
 172 1185 172 1185 172 1241 c 0,8,9
 172 1332 172 1332 190 1392 c 128,-1,10
 208 1452 208 1452 266 1452 c 0,11,12
 325 1449 325 1449 343.5 1388.5 c 128,-1,13
 362 1328 362 1328 362 1241 c 0,14,15
 359 1157 359 1157 350 1071 c 0,16,17
 347 1038 347 1038 340 974 c 128,-1,18
 333 910 333 910 326 852 c 0,19,20
 299 621 299 621 299 426 c 2,21,-1
 299 344 l 1,22,-1
 236 344 l 1,0,-1
168 72 m 0,23,24
 168 114 168 114 199 144 c 128,-1,25
 230 174 230 174 270 174 c 0,26,27
 314 174 314 174 343.5 144.5 c 128,-1,28
 373 115 373 115 373 72 c 0,29,30
 373 28 373 28 343.5 -0.5 c 128,-1,31
 314 -29 314 -29 270 -29 c 0,32,33
 228 -29 228 -29 198 1 c 128,-1,34
 168 31 168 31 168 72 c 0,23,24
EndSplineSet
Validated: 1
EndChar

StartChar: quotedbl
Encoding: 34 34 5
Width: 852
Flags: W
LayerCount: 3
Fore
SplineSet
340 1382 m 1,0,-1
 283 928 l 1,1,-1
 203 928 l 1,2,-1
 143 1382 l 1,3,-1
 340 1382 l 1,0,-1
709 1382 m 1,4,-1
 647 928 l 1,5,-1
 567 928 l 1,6,-1
 510 1382 l 1,7,-1
 709 1382 l 1,4,-1
EndSplineSet
Validated: 1
EndChar

StartChar: numbersign
Encoding: 35 35 6
Width: 1413
Flags: W
LayerCount: 3
Fore
SplineSet
899 12 m 1,0,-1
 766 12 l 1,1,-1
 825 356 l 1,2,-1
 463 356 l 1,3,-1
 401 12 l 1,4,-1
 266 12 l 1,5,-1
 328 356 l 1,6,-1
 12 356 l 1,7,-1
 37 506 l 1,8,-1
 354 506 l 1,9,-1
 424 903 l 1,10,-1
 109 903 l 1,11,-1
 133 1049 l 1,12,-1
 453 1049 l 1,13,-1
 512 1397 l 1,14,-1
 647 1397 l 1,15,-1
 586 1049 l 1,16,-1
 950 1049 l 1,17,-1
 1014 1397 l 1,18,-1
 1149 1397 l 1,19,-1
 1085 1049 l 1,20,-1
 1403 1049 l 1,21,-1
 1374 903 l 1,22,-1
 1059 903 l 1,23,-1
 989 506 l 1,24,-1
 1305 506 l 1,25,-1
 1280 356 l 1,26,-1
 961 356 l 1,27,-1
 899 12 l 1,0,-1
854 506 m 1,28,-1
 926 903 l 1,29,-1
 557 903 l 1,30,-1
 487 506 l 1,31,-1
 854 506 l 1,28,-1
EndSplineSet
Validated: 1
EndChar

StartChar: dollar
Encoding: 36 36 7
Width: 1452
Flags: W
LayerCount: 3
Fore
SplineSet
752 1657 m 1,0,-1
 829 1657 l 1,1,-1
 829 1481 l 1,2,3
 903 1477 903 1477 972.5 1454.5 c 128,-1,4
 1042 1432 1042 1432 1097.5 1396 c 128,-1,5
 1153 1360 1153 1360 1186.5 1317.5 c 128,-1,6
 1220 1275 1220 1275 1223 1229 c 0,7,8
 1223 1184 1223 1184 1199 1156 c 128,-1,9
 1175 1128 1175 1128 1133 1128 c 0,10,11
 1088 1128 1088 1128 1066.5 1151 c 128,-1,12
 1045 1174 1045 1174 1026 1212 c 0,13,14
 1022 1224 1022 1224 1018.5 1242.5 c 128,-1,15
 1015 1261 1015 1261 1012 1270 c 0,16,17
 957 1393 957 1393 829 1411 c 1,18,-1
 829 874 l 1,19,20
 851 862 851 862 915 823 c 1,21,22
 1000 779 1000 779 1071 733 c 0,23,24
 1173 673 1173 673 1239 585.5 c 128,-1,25
 1305 498 1305 498 1305 356 c 1,26,27
 1296 251 1296 251 1229.5 165.5 c 128,-1,28
 1163 80 1163 80 1058 29.5 c 128,-1,29
 953 -21 953 -21 829 -29 c 1,30,-1
 829 -264 l 1,31,-1
 752 -264 l 1,32,-1
 752 -29 l 1,33,34
 527 -10 527 -10 369 109 c 0,35,36
 328 136 328 136 297.5 177 c 128,-1,37
 267 218 267 218 258 258 c 1,38,39
 258 397 258 397 356 408 c 1,40,41
 456 408 456 408 481 309 c 0,42,43
 483 299 483 299 484 290.5 c 128,-1,44
 485 282 485 282 486 276.5 c 128,-1,45
 487 271 487 271 487 260 c 0,46,47
 504 155 504 155 580.5 99 c 128,-1,48
 657 43 657 43 752 41 c 1,49,-1
 752 688 l 1,50,51
 622 755 622 755 543.5 805.5 c 128,-1,52
 465 856 465 856 404.5 931 c 128,-1,53
 344 1006 344 1006 338 1098 c 1,54,55
 338 1184 338 1184 386 1269 c 128,-1,56
 434 1354 434 1354 528 1412 c 128,-1,57
 622 1470 622 1470 752 1481 c 1,58,-1
 752 1657 l 1,0,-1
752 1413 m 1,59,60
 679 1413 679 1413 618.5 1382 c 128,-1,61
 558 1351 558 1351 521 1299.5 c 128,-1,62
 484 1248 484 1248 483 1190 c 0,63,64
 483 1095 483 1095 558 1027.5 c 128,-1,65
 633 960 633 960 752 909 c 1,66,-1
 752 1413 l 1,59,60
829 41 m 1,67,68
 901 48 901 48 970 77 c 128,-1,69
 1039 106 1039 106 1088.5 162 c 128,-1,70
 1138 218 1138 218 1149 295 c 1,71,72
 1149 444 1149 444 1059 520 c 0,73,74
 1018 555 1018 555 926 602 c 0,75,76
 901 615 901 615 877 627.5 c 128,-1,77
 853 640 853 640 829 651 c 1,78,-1
 829 41 l 1,67,68
EndSplineSet
Validated: 1
EndChar

StartChar: percent
Encoding: 37 37 8
Width: 2177
Flags: W
LayerCount: 3
Fore
SplineSet
274 1155 m 0,0,1
 274 1253 274 1253 320 1341 c 128,-1,2
 366 1429 366 1429 447 1483 c 128,-1,3
 528 1537 528 1537 625 1538 c 0,4,5
 702 1538 702 1538 768 1506.5 c 128,-1,6
 834 1475 834 1475 882 1421 c 128,-1,7
 930 1367 930 1367 956.5 1299.5 c 128,-1,8
 983 1232 983 1232 983 1155 c 0,9,10
 983 1059 983 1059 936 970.5 c 128,-1,11
 889 882 889 882 806 828 c 128,-1,12
 723 774 723 774 625 774 c 0,13,14
 528 775 528 775 446.5 829 c 128,-1,15
 365 883 365 883 319.5 970.5 c 128,-1,16
 274 1058 274 1058 274 1155 c 0,0,1
453 1155 m 1,17,-1
 453 1104 l 2,18,19
 455 813 455 813 631 813 c 1,20,21
 801 821 801 821 803 1104 c 2,22,-1
 803 1155 l 1,23,-1
 803 1206 l 1,24,25
 799 1368 799 1368 748.5 1432.5 c 128,-1,26
 698 1497 698 1497 631 1497 c 0,27,28
 460 1497 460 1497 453 1206 c 1,29,-1
 453 1155 l 1,17,-1
1194 266 m 0,30,31
 1194 365 1194 365 1240 452 c 128,-1,32
 1286 539 1286 539 1366 591 c 128,-1,33
 1446 643 1446 643 1544 643 c 0,34,35
 1620 643 1620 643 1685.5 613 c 128,-1,36
 1751 583 1751 583 1801 528 c 128,-1,37
 1851 473 1851 473 1877 407 c 128,-1,38
 1903 341 1903 341 1903 264 c 0,39,40
 1903 168 1903 168 1856 80 c 128,-1,41
 1809 -8 1809 -8 1727 -61.5 c 128,-1,42
 1645 -115 1645 -115 1544 -115 c 0,43,44
 1449 -114 1449 -114 1368 -60.5 c 128,-1,45
 1287 -7 1287 -7 1240.5 81 c 128,-1,46
 1194 169 1194 169 1194 266 c 0,30,31
1362 264 m 1,47,-1
 1362 213 l 1,48,49
 1367 -76 1367 -76 1544 -76 c 0,50,51
 1618 -76 1618 -76 1666.5 -10 c 128,-1,52
 1715 56 1715 56 1716 213 c 2,53,-1
 1716 264 l 1,54,-1
 1716 315 l 1,55,56
 1712 474 1712 474 1663.5 538 c 128,-1,57
 1615 602 1615 602 1544 606 c 1,58,59
 1374 606 1374 606 1362 315 c 1,60,-1
 1362 264 l 1,47,-1
602 -309 m 1,61,-1
 555 -283 l 1,62,-1
 1577 1733 l 1,63,-1
 1628 1708 l 1,64,-1
 602 -309 l 1,61,-1
EndSplineSet
Validated: 1
EndChar

StartChar: ampersand
Encoding: 38 38 9
Width: 1452
Flags: W
LayerCount: 3
Fore
SplineSet
969 778 m 1,0,-1
 969 807 l 1,1,-1
 1321 807 l 1,2,-1
 1321 778 l 1,3,4
 1217 766 1217 766 1143 623 c 0,5,6
 1126 596 1126 596 1110.5 560.5 c 128,-1,7
 1095 525 1095 525 1081 492 c 0,8,9
 1041 402 1041 402 1026 375 c 1,10,-1
 1126 217 l 1,11,12
 1229 29 1229 29 1360 29 c 1,13,-1
 1360 0 l 1,14,-1
 1075 0 l 1,15,-1
 934 219 l 1,16,17
 868 120 868 120 758 45.5 c 128,-1,18
 648 -29 648 -29 504 -29 c 0,19,20
 400 -28 400 -28 316.5 15.5 c 128,-1,21
 233 59 233 59 186 136.5 c 128,-1,22
 139 214 139 214 139 315 c 0,23,24
 139 495 139 495 248.5 615.5 c 128,-1,25
 358 736 358 736 549 852 c 1,26,27
 492 943 492 943 466.5 1011 c 128,-1,28
 441 1079 441 1079 440 1143 c 0,29,30
 440 1221 440 1221 464 1284.5 c 128,-1,31
 488 1348 488 1348 530 1392 c 128,-1,32
 572 1436 572 1436 627 1459.5 c 128,-1,33
 682 1483 682 1483 739 1483 c 0,34,35
 851 1483 851 1483 920 1407 c 128,-1,36
 989 1331 989 1331 989 1223 c 0,37,38
 989 1110 989 1110 916 1027.5 c 128,-1,39
 843 945 843 945 717 877 c 1,40,-1
 989 436 l 1,41,42
 991 441 991 441 993 445 c 128,-1,43
 995 449 995 449 997 455 c 0,44,45
 1000 459 1000 459 1011 481.5 c 128,-1,46
 1022 504 1022 504 1034 528 c 0,47,48
 1069 614 1069 614 1069 686 c 1,49,50
 1055 767 1055 767 969 778 c 1,0,-1
686 932 m 1,51,52
 742 964 742 964 787 1011 c 128,-1,53
 832 1058 832 1058 860 1117.5 c 128,-1,54
 888 1177 888 1177 889 1237 c 0,55,56
 889 1327 889 1327 844 1372 c 128,-1,57
 799 1417 799 1417 737 1419 c 0,58,59
 664 1419 664 1419 609.5 1367.5 c 128,-1,60
 555 1316 555 1316 555 1219 c 0,61,62
 555 1141 555 1141 631 1020 c 2,63,-1
 686 932 l 1,51,52
586 807 m 1,64,65
 479 735 479 735 400.5 628.5 c 128,-1,66
 322 522 322 522 322 383 c 0,67,68
 322 262 322 262 402 181 c 128,-1,69
 482 100 482 100 618 100 c 1,70,71
 719 111 719 111 789.5 163.5 c 128,-1,72
 860 216 860 216 897 283 c 1,73,-1
 586 807 l 1,64,65
EndSplineSet
Validated: 1
EndChar

StartChar: quotesingle
Encoding: 39 39 10
Width: 543
Flags: W
LayerCount: 3
Fore
SplineSet
201 969 m 1,0,-1
 178 991 l 1,1,2
 236 1044 236 1044 261.5 1094 c 128,-1,3
 287 1144 287 1144 289 1180 c 0,4,5
 289 1223 289 1223 279.5 1245 c 128,-1,6
 270 1267 270 1267 246 1274 c 1,7,8
 230 1274 230 1274 209 1280 c 0,9,10
 152 1295 152 1295 150 1368 c 0,11,12
 150 1417 150 1417 176.5 1449 c 128,-1,13
 203 1481 203 1481 254 1481 c 0,14,15
 322 1481 322 1481 355.5 1429 c 128,-1,16
 389 1377 389 1377 389 1303 c 0,17,18
 384 1112 384 1112 201 969 c 1,0,-1
EndSplineSet
Validated: 1
EndChar

StartChar: parenleft
Encoding: 40 40 11
Width: 723
Flags: W
LayerCount: 3
Fore
SplineSet
498 1481 m 1,0,-1
 516 1462 l 1,1,2
 452 1401 452 1401 384 1291.5 c 128,-1,3
 316 1182 316 1182 266.5 986 c 128,-1,4
 217 790 217 790 217 506 c 0,5,6
 217 292 217 292 247 126.5 c 128,-1,7
 277 -39 277 -39 324 -152 c 128,-1,8
 371 -265 371 -265 419 -330 c 128,-1,9
 467 -395 467 -395 516 -442 c 1,10,-1
 498 -463 l 1,11,12
 248 -243 248 -243 145.5 7.5 c 128,-1,13
 43 258 43 258 43 506 c 0,14,15
 43 634 43 634 66.5 757 c 128,-1,16
 90 880 90 880 144 1006 c 128,-1,17
 198 1132 198 1132 285 1250.5 c 128,-1,18
 372 1369 372 1369 498 1481 c 1,0,-1
EndSplineSet
Validated: 1
EndChar

StartChar: parenright
Encoding: 41 41 12
Width: 723
Flags: W
LayerCount: 3
Fore
SplineSet
229 1481 m 1,0,1
 680 1076 680 1076 680 506 c 0,2,3
 680 399 680 399 660 281.5 c 128,-1,4
 640 164 640 164 590.5 38 c 128,-1,5
 541 -88 541 -88 451 -217 c 128,-1,6
 361 -346 361 -346 229 -463 c 1,7,-1
 207 -442 l 1,8,9
 323 -333 323 -333 414.5 -117 c 128,-1,10
 506 99 506 99 506 506 c 0,11,12
 506 784 506 784 458 979.5 c 128,-1,13
 410 1175 410 1175 344.5 1284.5 c 128,-1,14
 279 1394 279 1394 207 1462 c 1,15,-1
 229 1481 l 1,0,1
EndSplineSet
Validated: 1
EndChar

StartChar: asterisk
Encoding: 42 42 13
Width: 1087
Flags: W
LayerCount: 3
Fore
SplineSet
465 1104 m 256,0,1
 461 1116 461 1116 420 1137 c 0,2,3
 416 1140 416 1140 403.5 1145 c 128,-1,4
 391 1150 391 1150 389 1151 c 0,5,6
 378 1156 378 1156 366.5 1161 c 128,-1,7
 355 1166 355 1166 344 1167 c 0,8,9
 328 1171 328 1171 295 1171 c 0,10,11
 258 1171 258 1171 231.5 1181.5 c 128,-1,12
 205 1192 205 1192 197 1231 c 1,13,14
 197 1303 197 1303 248 1321 c 0,15,16
 264 1325 264 1325 270 1325 c 0,17,18
 314 1325 314 1325 350 1264 c 0,19,20
 358 1246 358 1246 375 1225 c 0,21,22
 386 1210 386 1210 431 1179.5 c 128,-1,23
 476 1149 476 1149 494 1149 c 0,24,25
 522 1151 522 1151 522 1214 c 0,26,27
 522 1241 522 1241 520 1253 c 0,28,29
 520 1269 520 1269 512 1303 c 0,30,31
 508 1311 508 1311 505 1317 c 128,-1,32
 502 1323 502 1323 499 1329 c 128,-1,33
 496 1335 496 1335 492 1343 c 0,34,35
 469 1372 469 1372 469 1407 c 0,36,37
 471 1434 471 1434 491 1456 c 128,-1,38
 511 1478 511 1478 543 1481 c 0,39,40
 576 1481 576 1481 598 1457.5 c 128,-1,41
 620 1434 620 1434 623 1407 c 0,42,43
 623 1393 623 1393 615 1375.5 c 128,-1,44
 607 1358 607 1358 600 1343 c 0,45,46
 595 1337 595 1337 578 1303 c 0,47,48
 575 1290 575 1290 573 1281 c 128,-1,49
 571 1272 571 1272 567 1253 c 1,50,51
 567 1229 567 1229 563 1214 c 1,52,53
 563 1149 563 1149 596 1149 c 0,54,55
 613 1149 613 1149 655.5 1178 c 128,-1,56
 698 1207 698 1207 711 1223 c 0,57,58
 725 1237 725 1237 739 1260 c 0,59,60
 759 1290 759 1290 774.5 1305.5 c 128,-1,61
 790 1321 790 1321 817 1321 c 0,62,63
 822 1321 822 1321 840 1317 c 0,64,65
 863 1309 863 1309 878 1285.5 c 128,-1,66
 893 1262 893 1262 893 1229 c 1,67,68
 876 1167 876 1167 795 1167 c 0,69,70
 760 1167 760 1167 745 1165 c 0,71,72
 736 1163 736 1163 698 1149 c 0,73,74
 693 1146 693 1146 687.5 1143.5 c 128,-1,75
 682 1141 682 1141 676.5 1138.5 c 128,-1,76
 671 1136 671 1136 666 1133 c 0,77,78
 618 1110 618 1110 618 1087 c 0,79,80
 618 1086 618 1086 623 1071 c 0,81,82
 627 1059 627 1059 664 1040 c 0,83,84
 672 1036 672 1036 676.5 1034 c 128,-1,85
 681 1032 681 1032 685.5 1030 c 128,-1,86
 690 1028 690 1028 698 1024 c 0,87,88
 704 1022 704 1022 712 1019 c 128,-1,89
 720 1016 720 1016 729 1012.5 c 128,-1,90
 738 1009 738 1009 743 1008 c 0,91,92
 760 1006 760 1006 791 1006 c 0,93,94
 877 1006 877 1006 889 944 c 1,95,96
 889 875 889 875 840 854 c 1,97,98
 768 854 768 854 737 911 c 0,99,100
 728 933 728 933 711 950 c 0,101,102
 696 968 696 968 672 983 c 0,103,104
 651 999 651 999 643 1006 c 0,105,106
 609 1026 609 1026 592 1026 c 0,107,108
 573 1026 573 1026 568 1012.5 c 128,-1,109
 563 999 563 999 563 961 c 0,110,111
 563 934 563 934 567 922 c 0,112,113
 567 913 567 913 569 900.5 c 128,-1,114
 571 888 571 888 573 874 c 1,115,116
 579 864 579 864 586 851.5 c 128,-1,117
 593 839 593 839 596 831 c 0,118,119
 618 798 618 798 618 768 c 0,120,121
 615 740 615 740 595.5 718.5 c 128,-1,122
 576 697 576 697 545 694 c 0,123,124
 514 694 514 694 491.5 717.5 c 128,-1,125
 469 741 469 741 465 768 c 0,126,127
 465 791 465 791 487 831 c 0,128,129
 498 846 498 846 510 874 c 1,130,131
 510 871 510 871 514.5 900 c 128,-1,132
 519 929 519 929 522 961 c 0,133,134
 522 1026 522 1026 492 1026 c 0,135,136
 471 1026 471 1026 442 1006 c 0,137,138
 436 1002 436 1002 426 995 c 128,-1,139
 416 988 416 988 412 985 c 0,140,141
 390 973 390 973 375 954 c 0,142,143
 365 942 365 942 358 932 c 128,-1,144
 351 922 351 922 346 915 c 0,145,146
 316 854 316 854 270 854 c 0,147,148
 264 854 264 854 248 858 c 0,149,150
 195 873 195 873 195 948 c 1,151,152
 204 986 204 986 230 997 c 128,-1,153
 256 1008 256 1008 293 1008 c 0,154,155
 326 1008 326 1008 340 1012 c 0,156,157
 357 1014 357 1014 389 1026 c 0,158,159
 394 1031 394 1031 405 1035 c 128,-1,160
 416 1039 416 1039 420 1042 c 0,161,162
 431 1048 431 1048 442.5 1055 c 128,-1,163
 454 1062 454 1062 461.5 1070 c 128,-1,164
 469 1078 469 1078 469 1090 c 0,165,166
 469 1092 469 1092 465 1104 c 256,0,1
EndSplineSet
Validated: 1
EndChar

StartChar: plus
Encoding: 43 43 14
Width: 1452
Flags: W
LayerCount: 3
Fore
SplineSet
104 705 m 1,0,-1
 676 705 l 1,1,-1
 676 1276 l 1,2,-1
 774 1276 l 1,3,-1
 774 705 l 1,4,-1
 1346 705 l 1,5,-1
 1346 606 l 1,6,-1
 774 606 l 1,7,-1
 774 35 l 1,8,-1
 676 35 l 1,9,-1
 676 606 l 1,10,-1
 104 606 l 1,11,-1
 104 705 l 1,0,-1
EndSplineSet
Validated: 1
EndChar

StartChar: comma
Encoding: 44 44 15
Width: 543
Flags: W
LayerCount: 3
Fore
SplineSet
201 -289 m 5,0,-1
 178 -264 l 5,1,2
 284 -170 284 -170 289 -76 c 4,3,4
 289 -37 289 -37 279.5 -16 c 132,-1,5
 270 5 270 5 246 12 c 4,6,7
 216 16 216 16 209 18 c 4,8,9
 152 35 152 35 150 109 c 4,10,11
 150 157 150 157 177 188 c 132,-1,12
 204 219 204 219 254 219 c 4,13,14
 322 219 322 219 355.5 167 c 132,-1,15
 389 115 389 115 389 41 c 4,16,17
 384 -142 384 -142 201 -289 c 5,0,-1
EndSplineSet
Validated: 1
EndChar

StartChar: hyphen
Encoding: 45 45 16
Width: 723
Flags: W
LayerCount: 3
Fore
SplineSet
162 440 m 1,0,-1
 162 557 l 1,1,-1
 567 557 l 1,2,-1
 567 440 l 1,3,-1
 162 440 l 1,0,-1
EndSplineSet
Validated: 1
EndChar

StartChar: period
Encoding: 46 46 17
Width: 543
Flags: W
LayerCount: 3
Fore
SplineSet
172 72 m 0,0,1
 172 114 172 114 202 144 c 128,-1,2
 232 174 232 174 274 174 c 0,3,4
 294 174 294 174 313.5 166 c 128,-1,5
 333 158 333 158 346.5 143.5 c 128,-1,6
 360 129 360 129 367.5 111 c 128,-1,7
 375 93 375 93 375 72 c 0,8,9
 375 29 375 29 345 0 c 128,-1,10
 315 -29 315 -29 274 -29 c 0,11,12
 232 -29 232 -29 202 1 c 128,-1,13
 172 31 172 31 172 72 c 0,0,1
EndSplineSet
Validated: 1
EndChar

StartChar: slash
Encoding: 47 47 18
Width: 950
Flags: W
LayerCount: 3
Fore
SplineSet
76 -340 m 1,0,-1
 -6 -305 l 1,1,-1
 870 1780 l 1,2,-1
 956 1745 l 1,3,-1
 76 -340 l 1,0,-1
EndSplineSet
Validated: 1
EndChar

StartChar: zero
Encoding: 48 48 19
Width: 1087
Flags: W
LayerCount: 3
Fore
SplineSet
88 723 m 0,0,1
 88 891 88 891 122.5 1031.5 c 128,-1,2
 157 1172 157 1172 221 1273.5 c 128,-1,3
 285 1375 285 1375 367.5 1428 c 128,-1,4
 450 1481 450 1481 545 1481 c 0,5,6
 638 1480 638 1480 719.5 1427 c 128,-1,7
 801 1374 801 1374 863.5 1276 c 128,-1,8
 926 1178 926 1178 961.5 1036 c 128,-1,9
 997 894 997 894 997 723 c 0,10,11
 997 556 997 556 962 414.5 c 128,-1,12
 927 273 927 273 865 175 c 128,-1,13
 803 77 803 77 720.5 24 c 128,-1,14
 638 -29 638 -29 545 -29 c 0,15,16
 451 -29 451 -29 367.5 24 c 128,-1,17
 284 77 284 77 220.5 177 c 128,-1,18
 157 277 157 277 122.5 416.5 c 128,-1,19
 88 556 88 556 88 723 c 0,0,1
252 723 m 0,20,21
 252 337 252 337 334 177.5 c 128,-1,22
 416 18 416 18 545 18 c 0,23,24
 675 20 675 20 755.5 182 c 128,-1,25
 836 344 836 344 836 723 c 0,26,27
 836 913 836 913 814.5 1050.5 c 128,-1,28
 793 1188 793 1188 754.5 1269.5 c 128,-1,29
 716 1351 716 1351 663 1388 c 128,-1,30
 610 1425 610 1425 545 1425 c 0,31,32
 415 1425 415 1425 333.5 1267.5 c 128,-1,33
 252 1110 252 1110 252 723 c 0,20,21
EndSplineSet
Validated: 1
EndChar

StartChar: one
Encoding: 49 49 20
Width: 1087
Flags: W
LayerCount: 3
Fore
SplineSet
539 1452 m 1,0,-1
 623 1452 l 1,1,-1
 623 252 l 2,2,3
 623 185 623 185 632.5 138.5 c 128,-1,4
 642 92 642 92 677.5 61.5 c 128,-1,5
 713 31 713 31 780 31 c 1,6,-1
 780 0 l 1,7,-1
 311 0 l 1,8,-1
 311 31 l 1,9,10
 412 31 412 31 441.5 91.5 c 128,-1,11
 471 152 471 152 471 252 c 2,12,-1
 471 1149 l 2,13,14
 471 1212 471 1212 444.5 1253 c 128,-1,15
 418 1294 418 1294 326 1294 c 1,16,-1
 326 1321 l 1,17,18
 435 1335 435 1335 482.5 1377.5 c 128,-1,19
 530 1420 530 1420 539 1452 c 1,0,-1
EndSplineSet
Validated: 1
EndChar

StartChar: two
Encoding: 50 50 21
Width: 1087
Flags: W
LayerCount: 3
Fore
SplineSet
944 305 m 1,0,-1
 979 305 l 1,1,-1
 881 0 l 1,2,-1
 82 0 l 1,3,-1
 82 76 l 1,4,5
 306 280 306 280 449.5 439 c 128,-1,6
 593 598 593 598 667.5 715.5 c 128,-1,7
 742 833 742 833 769.5 922 c 128,-1,8
 797 1011 797 1011 797 1094 c 1,9,10
 788 1239 788 1239 700 1328 c 128,-1,11
 612 1417 612 1417 483 1417 c 0,12,13
 410 1416 410 1416 353.5 1382.5 c 128,-1,14
 297 1349 297 1349 264 1300.5 c 128,-1,15
 231 1252 231 1252 225 1202 c 1,16,17
 225 1131 225 1131 248 1100 c 0,18,19
 254 1094 254 1094 268 1083 c 128,-1,20
 282 1072 282 1072 289 1065 c 0,21,22
 314 1047 314 1047 332 1013 c 128,-1,23
 350 979 350 979 350 950 c 0,24,25
 350 915 350 915 329 892.5 c 128,-1,26
 308 870 308 870 281 868 c 0,27,28
 219 868 219 868 171 928 c 128,-1,29
 123 988 123 988 123 1092 c 0,30,31
 123 1174 123 1174 168.5 1263 c 128,-1,32
 214 1352 214 1352 304 1413.5 c 128,-1,33
 394 1475 394 1475 516 1481 c 1,34,35
 612 1481 612 1481 696.5 1447.5 c 128,-1,36
 781 1414 781 1414 844.5 1355 c 128,-1,37
 908 1296 908 1296 943.5 1219 c 128,-1,38
 979 1142 979 1142 979 1059 c 0,39,40
 979 979 979 979 950 905.5 c 128,-1,41
 921 832 921 832 870.5 764 c 128,-1,42
 820 696 820 696 773.5 649.5 c 128,-1,43
 727 603 727 603 629 512 c 1,44,45
 530 429 530 429 465 360 c 0,46,47
 421 315 421 315 387 280 c 128,-1,48
 353 245 353 245 315 213 c 0,49,50
 286 184 286 184 281 172 c 1,51,52
 274 166 274 166 266 150 c 1,53,-1
 659 150 l 2,54,55
 757 150 757 150 807.5 164.5 c 128,-1,56
 858 179 858 179 899 236 c 0,57,58
 924 269 924 269 932 283 c 0,59,60
 933 289 933 289 944 305 c 1,0,-1
EndSplineSet
Validated: 1
EndChar

StartChar: three
Encoding: 51 51 22
Width: 1087
Flags: W
LayerCount: 3
Fore
SplineSet
379 745 m 1,0,-1
 379 801 l 1,1,2
 544 803 544 803 646.5 872.5 c 128,-1,3
 749 942 749 942 756 1114 c 0,4,5
 756 1189 756 1189 734.5 1248.5 c 128,-1,6
 713 1308 713 1308 676.5 1346 c 128,-1,7
 640 1384 640 1384 593 1403.5 c 128,-1,8
 546 1423 546 1423 492 1423 c 0,9,10
 406 1420 406 1420 343 1375.5 c 128,-1,11
 280 1331 280 1331 274 1280 c 0,12,13
 274 1264 274 1264 287 1229 c 0,14,15
 295 1198 295 1198 295 1165 c 0,16,17
 295 1119 295 1119 273.5 1098 c 128,-1,18
 252 1077 252 1077 223 1077 c 1,19,20
 152 1087 152 1087 150 1167 c 0,21,22
 150 1245 150 1245 204 1318 c 128,-1,23
 258 1391 258 1391 346 1436 c 128,-1,24
 434 1481 434 1481 532 1481 c 0,25,26
 625 1478 625 1478 711 1432 c 128,-1,27
 797 1386 797 1386 850 1305.5 c 128,-1,28
 903 1225 903 1225 903 1128 c 0,29,30
 903 1034 903 1034 838.5 943 c 128,-1,31
 774 852 774 852 637 801 c 1,32,33
 851 760 851 760 921 644 c 128,-1,34
 991 528 991 528 991 401 c 1,35,36
 986 288 986 288 926 190.5 c 128,-1,37
 866 93 866 93 757 32 c 128,-1,38
 648 -29 648 -29 506 -29 c 0,39,40
 393 -28 393 -28 300 16.5 c 128,-1,41
 207 61 207 61 152 136 c 128,-1,42
 97 211 97 211 94 295 c 0,43,44
 94 365 94 365 126.5 403.5 c 128,-1,45
 159 442 159 442 201 442 c 0,46,47
 229 440 229 440 253 420.5 c 128,-1,48
 277 401 277 401 281 362 c 0,49,50
 281 338 281 338 270 303 c 1,51,52
 255 273 255 273 246 246 c 1,53,54
 229 217 229 217 229 186 c 0,55,56
 229 127 229 127 304.5 79 c 128,-1,57
 380 31 380 31 512 31 c 1,58,59
 652 40 652 40 732.5 139.5 c 128,-1,60
 813 239 813 239 813 401 c 0,61,62
 813 541 813 541 768 617.5 c 128,-1,63
 723 694 723 694 644.5 721 c 128,-1,64
 566 748 566 748 453 748 c 0,65,66
 403 748 403 748 379 745 c 1,0,-1
EndSplineSet
Validated: 1
EndChar

StartChar: four
Encoding: 52 52 23
Width: 1087
Flags: W
LayerCount: 3
Fore
SplineSet
979 506 m 1,0,-1
 979 430 l 1,1,-1
 756 430 l 1,2,-1
 756 258 l 2,3,4
 756 158 756 158 785.5 96 c 128,-1,5
 815 34 815 34 918 31 c 1,6,-1
 918 0 l 1,7,-1
 440 0 l 1,8,-1
 440 31 l 1,9,10
 544 34 544 34 573 95 c 128,-1,11
 602 156 602 156 602 258 c 2,12,-1
 602 430 l 1,13,-1
 63 430 l 1,14,-1
 63 459 l 1,15,-1
 676 1452 l 1,16,-1
 756 1452 l 1,17,-1
 756 506 l 1,18,-1
 979 506 l 1,0,-1
602 1247 m 1,19,-1
 162 506 l 1,20,-1
 602 506 l 1,21,-1
 602 1247 l 1,19,-1
EndSplineSet
Validated: 1
EndChar

StartChar: five
Encoding: 53 53 24
Width: 1087
Flags: W
LayerCount: 3
Fore
SplineSet
868 1511 m 1,0,-1
 897 1511 l 1,1,-1
 807 1303 l 1,2,-1
 270 1303 l 1,3,-1
 270 823 l 1,4,5
 344 881 344 881 409 914.5 c 128,-1,6
 474 948 474 948 557 948 c 0,7,8
 634 946 634 946 711 911.5 c 128,-1,9
 788 877 788 877 851.5 813.5 c 128,-1,10
 915 750 915 750 954.5 662 c 128,-1,11
 994 574 994 574 995 465 c 0,12,13
 995 340 995 340 933.5 227 c 128,-1,14
 872 114 872 114 761.5 44.5 c 128,-1,15
 651 -25 651 -25 510 -29 c 0,16,17
 406 -29 406 -29 316.5 7 c 128,-1,18
 227 43 227 43 171.5 114 c 128,-1,19
 116 185 116 185 109 283 c 1,20,21
 109 371 109 371 145 418 c 128,-1,22
 181 465 181 465 231 465 c 0,23,24
 256 463 256 463 274.5 444 c 128,-1,25
 293 425 293 425 293 389 c 256,26,27
 293 353 293 353 281 326 c 0,28,29
 275 314 275 314 248 274 c 1,30,31
 229 233 229 233 229 197 c 0,32,33
 231 155 231 155 266 116 c 128,-1,34
 301 77 301 77 364.5 51 c 128,-1,35
 428 25 428 25 510 25 c 0,36,37
 578 27 578 27 647.5 62 c 128,-1,38
 717 97 717 97 767.5 194 c 128,-1,39
 818 291 818 291 819 465 c 0,40,41
 819 618 819 618 777.5 707.5 c 128,-1,42
 736 797 736 797 678.5 833 c 128,-1,43
 621 869 621 869 561 877 c 1,44,45
 493 877 493 877 428 854 c 128,-1,46
 363 831 363 831 321 792 c 128,-1,47
 279 753 279 753 270 709 c 1,48,-1
 207 709 l 1,49,-1
 223 1452 l 1,50,-1
 698 1452 l 2,51,52
 755 1452 755 1452 796 1463 c 128,-1,53
 837 1474 837 1474 868 1511 c 1,0,-1
EndSplineSet
Validated: 1
EndChar

StartChar: six
Encoding: 54 54 25
Width: 1087
Flags: W
LayerCount: 3
Fore
SplineSet
281 774 m 1,0,1
 328 828 328 828 393.5 864 c 128,-1,2
 459 900 459 900 520 911 c 0,3,4
 576 920 576 920 594 920 c 0,5,6
 696 920 696 920 789.5 867 c 128,-1,7
 883 814 883 814 944 713 c 128,-1,8
 1005 612 1005 612 1012 483 c 1,9,10
 1012 331 1012 331 955 214.5 c 128,-1,11
 898 98 898 98 797 34.5 c 128,-1,12
 696 -29 696 -29 571 -29 c 0,13,14
 450 -29 450 -29 358 32.5 c 128,-1,15
 266 94 266 94 208 195.5 c 128,-1,16
 150 297 150 297 122 421.5 c 128,-1,17
 94 546 94 546 94 670 c 0,18,19
 94 910 94 910 164.5 1094 c 128,-1,20
 235 1278 235 1278 353.5 1378 c 128,-1,21
 472 1478 472 1478 612 1481 c 0,22,23
 675 1481 675 1481 747 1450.5 c 128,-1,24
 819 1420 819 1420 869 1370.5 c 128,-1,25
 919 1321 919 1321 926 1266 c 1,26,27
 926 1217 926 1217 905.5 1197.5 c 128,-1,28
 885 1178 885 1178 858 1178 c 0,29,30
 785 1178 785 1178 752 1288 c 0,31,32
 744 1320 744 1320 741.5 1330 c 128,-1,33
 739 1340 739 1340 733 1350 c 0,34,35
 694 1418 694 1418 602 1423 c 1,36,37
 456 1423 456 1423 368.5 1285 c 128,-1,38
 281 1147 281 1147 281 821 c 2,39,-1
 281 774 l 1,0,1
842 471 m 0,40,41
 841 626 841 626 797 711.5 c 128,-1,42
 753 797 753 797 703.5 824 c 128,-1,43
 654 851 654 851 618 854 c 0,44,45
 586 858 586 858 571 858 c 0,46,47
 460 858 460 858 373.5 785.5 c 128,-1,48
 287 713 287 713 276 573 c 0,49,50
 276 553 276 553 275.5 540 c 128,-1,51
 275 527 275 527 274 512 c 0,52,53
 274 384 274 384 302 272.5 c 128,-1,54
 330 161 330 161 396.5 91 c 128,-1,55
 463 21 463 21 567 18 c 0,56,57
 842 18 842 18 842 471 c 0,40,41
EndSplineSet
Validated: 1
EndChar

StartChar: seven
Encoding: 55 55 26
Width: 1087
Flags: W
LayerCount: 3
Fore
SplineSet
127 1151 m 1,0,-1
 100 1151 l 1,1,-1
 203 1452 l 1,2,-1
 995 1452 l 1,3,-1
 995 1354 l 1,4,5
 869 1211 869 1211 773.5 1042.5 c 128,-1,6
 678 874 678 874 613 692.5 c 128,-1,7
 548 511 548 511 513.5 334.5 c 128,-1,8
 479 158 479 158 475 0 c 1,9,-1
 283 0 l 1,10,11
 338 252 338 252 412 463 c 128,-1,12
 486 674 486 674 595 876 c 128,-1,13
 704 1078 704 1078 868 1305 c 1,14,-1
 383 1305 l 2,15,16
 294 1305 294 1305 234 1266.5 c 128,-1,17
 174 1228 174 1228 127 1151 c 1,0,-1
EndSplineSet
Validated: 1
EndChar

StartChar: eight
Encoding: 56 56 27
Width: 1087
Flags: W
LayerCount: 3
Fore
SplineSet
412 772 m 1,0,1
 313 820 313 820 259 874 c 128,-1,2
 205 928 205 928 184.5 985 c 128,-1,3
 164 1042 164 1042 162 1104 c 0,4,5
 162 1190 162 1190 192 1260 c 128,-1,6
 222 1330 222 1330 276 1379.5 c 128,-1,7
 330 1429 330 1429 400.5 1455 c 128,-1,8
 471 1481 471 1481 549 1481 c 0,9,10
 659 1480 659 1480 746.5 1429.5 c 128,-1,11
 834 1379 834 1379 883 1300.5 c 128,-1,12
 932 1222 932 1222 932 1137 c 0,13,14
 932 1025 932 1025 869 948.5 c 128,-1,15
 806 872 806 872 692 817 c 1,16,17
 707 807 707 807 726.5 794.5 c 128,-1,18
 746 782 746 782 752 778 c 0,19,20
 835 728 835 728 877 688 c 0,21,22
 917 652 917 652 944.5 608 c 128,-1,23
 972 564 972 564 989 510 c 128,-1,24
 1006 456 1006 456 1006 397 c 0,25,26
 1004 326 1004 326 977 254 c 128,-1,27
 950 182 950 182 893.5 118 c 128,-1,28
 837 54 837 54 752.5 14.5 c 128,-1,29
 668 -25 668 -25 551 -29 c 1,30,31
 425 -29 425 -29 319.5 24.5 c 128,-1,32
 214 78 214 78 151 172 c 128,-1,33
 88 266 88 266 88 383 c 0,34,35
 88 477 88 477 129.5 550 c 128,-1,36
 171 623 171 623 243 676.5 c 128,-1,37
 315 730 315 730 412 772 c 1,0,1
635 846 m 1,38,39
 703 884 703 884 743.5 936.5 c 128,-1,40
 784 989 784 989 797.5 1037.5 c 128,-1,41
 811 1086 811 1086 813 1126 c 0,42,43
 813 1289 813 1289 728.5 1353.5 c 128,-1,44
 644 1418 644 1418 549 1423 c 1,45,46
 468 1423 468 1423 409 1393.5 c 128,-1,47
 350 1364 350 1364 318 1316.5 c 128,-1,48
 286 1269 286 1269 281 1214 c 1,49,50
 281 1149 281 1149 302.5 1096 c 128,-1,51
 324 1043 324 1043 383 995 c 0,52,53
 407 975 407 975 445.5 951.5 c 128,-1,54
 484 928 484 928 504 915 c 0,55,56
 550 888 550 888 590 868 c 0,57,58
 609 855 609 855 635 846 c 1,38,39
469 731 m 1,59,60
 338 668 338 668 284.5 573 c 128,-1,61
 231 478 231 478 225 383 c 1,62,63
 225 287 225 287 268.5 206 c 128,-1,64
 312 125 312 125 387 77.5 c 128,-1,65
 462 30 462 30 555 29 c 0,66,67
 644 29 644 29 718 69.5 c 128,-1,68
 792 110 792 110 835.5 179 c 128,-1,69
 879 248 879 248 879 328 c 0,70,71
 879 367 879 367 870 395 c 0,72,73
 850 480 850 480 793 533 c 128,-1,74
 736 586 736 586 653 631 c 0,75,76
 558 682 558 682 532 694 c 0,77,78
 529 696 529 696 507 709 c 128,-1,79
 485 722 485 722 469 731 c 1,59,60
EndSplineSet
Validated: 1
EndChar

StartChar: nine
Encoding: 57 57 28
Width: 1087
Flags: W
LayerCount: 3
Fore
SplineSet
807 672 m 1,0,1
 764 623 764 623 697 587.5 c 128,-1,2
 630 552 630 552 567 539 c 0,3,4
 536 530 536 530 492 530 c 0,5,6
 392 530 392 530 299 581 c 128,-1,7
 206 632 206 632 144.5 731.5 c 128,-1,8
 83 831 83 831 76 967 c 1,9,10
 76 1121 76 1121 134 1238 c 128,-1,11
 192 1355 192 1355 292 1418 c 128,-1,12
 392 1481 392 1481 516 1481 c 0,13,14
 677 1481 677 1481 784 1377 c 128,-1,15
 891 1273 891 1273 940 1112 c 128,-1,16
 989 951 989 951 991 778 c 0,17,18
 991 531 991 531 918.5 347.5 c 128,-1,19
 846 164 846 164 727 68.5 c 128,-1,20
 608 -27 608 -27 475 -29 c 0,21,22
 354 -29 354 -29 262.5 37.5 c 128,-1,23
 171 104 171 104 162 184 c 1,24,25
 162 233 162 233 182 251.5 c 128,-1,26
 202 270 202 270 229 270 c 0,27,28
 300 270 300 270 334 158 c 0,29,30
 342 121 342 121 354 98 c 0,31,32
 392 29 392 29 483 29 c 0,33,34
 807 29 807 29 807 627 c 2,35,-1
 807 672 l 1,0,1
252 979 m 1,36,37
 257 770 257 770 318 687.5 c 128,-1,38
 379 605 379 605 469 592 c 0,39,40
 483 590 483 590 512 590 c 0,41,42
 560 590 560 590 611 605.5 c 128,-1,43
 662 621 662 621 705 655 c 128,-1,44
 748 689 748 689 776 745 c 128,-1,45
 804 801 804 801 807 877 c 0,46,47
 811 937 811 937 811 967 c 0,48,49
 811 1095 811 1095 785 1186 c 128,-1,50
 759 1277 759 1277 716.5 1330.5 c 128,-1,51
 674 1384 674 1384 623.5 1408 c 128,-1,52
 573 1432 573 1432 520 1432 c 0,53,54
 410 1432 410 1432 331 1342.5 c 128,-1,55
 252 1253 252 1253 252 1024 c 2,56,-1
 252 979 l 1,36,37
EndSplineSet
Validated: 1
EndChar

StartChar: colon
Encoding: 58 58 29
Width: 543
Flags: W
LayerCount: 3
Fore
SplineSet
172 72 m 0,0,1
 172 114 172 114 202 144 c 128,-1,2
 232 174 232 174 274 174 c 0,3,4
 294 174 294 174 313.5 166 c 128,-1,5
 333 158 333 158 346.5 143.5 c 128,-1,6
 360 129 360 129 367.5 111 c 128,-1,7
 375 93 375 93 375 72 c 0,8,9
 375 29 375 29 345 0 c 128,-1,10
 315 -29 315 -29 274 -29 c 0,11,12
 232 -29 232 -29 202 1 c 128,-1,13
 172 31 172 31 172 72 c 0,0,1
172 874 m 0,14,15
 172 915 172 915 202 944 c 128,-1,16
 232 973 232 973 274 973 c 0,17,18
 317 973 317 973 346 944 c 128,-1,19
 375 915 375 915 375 874 c 0,20,21
 375 830 375 830 345 801 c 128,-1,22
 315 772 315 772 274 772 c 0,23,24
 232 772 232 772 202 802 c 128,-1,25
 172 832 172 832 172 874 c 0,14,15
EndSplineSet
Validated: 1
EndChar

StartChar: semicolon
Encoding: 59 59 30
Width: 543
Flags: W
LayerCount: 3
Fore
SplineSet
190 -289 m 1,0,-1
 168 -264 l 1,1,2
 263 -182 263 -182 281 -76 c 1,3,4
 281 0 281 0 231 12 c 0,5,6
 223 14 223 14 213.5 15 c 128,-1,7
 204 16 204 16 201 18 c 0,8,9
 139 37 139 37 137 109 c 0,10,11
 137 157 137 157 164.5 188 c 128,-1,12
 192 219 192 219 242 219 c 0,13,14
 309 219 309 219 342 168 c 128,-1,15
 375 117 375 117 375 41 c 0,16,17
 374 -28 374 -28 349.5 -87.5 c 128,-1,18
 325 -147 325 -147 285 -196 c 128,-1,19
 245 -245 245 -245 190 -289 c 1,0,-1
143 874 m 0,20,21
 143 917 143 917 173 945 c 128,-1,22
 203 973 203 973 246 973 c 0,23,24
 288 973 288 973 316 944 c 128,-1,25
 344 915 344 915 344 874 c 0,26,27
 344 829 344 829 314.5 800.5 c 128,-1,28
 285 772 285 772 246 772 c 0,29,30
 201 772 201 772 172 802 c 128,-1,31
 143 832 143 832 143 874 c 0,20,21
EndSplineSet
Validated: 1
EndChar

StartChar: less
Encoding: 60 60 31
Width: 1452
Flags: W
LayerCount: 3
Fore
SplineSet
92 498 m 1,0,-1
 1333 1026 l 1,1,-1
 1356 961 l 1,2,-1
 303 498 l 1,3,-1
 1356 35 l 1,4,-1
 1333 -29 l 1,5,-1
 92 498 l 1,0,-1
EndSplineSet
Validated: 1
EndChar

StartChar: equal
Encoding: 61 61 32
Width: 1452
Flags: W
LayerCount: 3
Fore
SplineSet
104 848 m 1,0,-1
 1346 848 l 1,1,-1
 1346 750 l 1,2,-1
 104 750 l 1,3,-1
 104 848 l 1,0,-1
104 557 m 1,4,-1
 1346 557 l 1,5,-1
 1346 463 l 1,6,-1
 104 463 l 1,7,-1
 104 557 l 1,4,-1
EndSplineSet
Validated: 1
EndChar

StartChar: greater
Encoding: 62 62 33
Width: 1452
Flags: W
LayerCount: 3
Fore
SplineSet
1356 498 m 1,0,-1
 117 -29 l 1,1,-1
 92 35 l 1,2,-1
 1149 498 l 1,3,-1
 92 961 l 1,4,-1
 117 1026 l 1,5,-1
 1356 498 l 1,0,-1
EndSplineSet
Validated: 1
EndChar

StartChar: question
Encoding: 63 63 34
Width: 1087
Flags: W
LayerCount: 3
Fore
SplineSet
397 389 m 1,0,-1
 340 389 l 1,1,-1
 340 813 l 1,2,3
 366 809 366 809 382.5 807 c 128,-1,4
 399 805 399 805 420 801 c 0,5,6
 433 801 433 801 459 799 c 128,-1,7
 485 797 485 797 498 797 c 0,8,9
 532 797 532 797 549 801 c 0,10,11
 599 815 599 815 641 861 c 128,-1,12
 683 907 683 907 686 1006 c 0,13,14
 686 1099 686 1099 646 1196 c 128,-1,15
 606 1293 606 1293 544 1355 c 128,-1,16
 482 1417 482 1417 420 1417 c 0,17,18
 385 1417 385 1417 354 1391 c 0,19,20
 344 1383 344 1383 324.5 1356.5 c 128,-1,21
 305 1330 305 1330 303 1327 c 0,22,23
 272 1292 272 1292 238 1292 c 0,24,25
 209 1292 209 1292 184.5 1306 c 128,-1,26
 160 1320 160 1320 160 1350 c 0,27,28
 160 1369 160 1369 168 1389 c 0,29,30
 188 1432 188 1432 246 1456.5 c 128,-1,31
 304 1481 304 1481 362 1481 c 0,32,33
 440 1481 440 1481 520 1440 c 128,-1,34
 600 1399 600 1399 668 1324.5 c 128,-1,35
 736 1250 736 1250 777.5 1150.5 c 128,-1,36
 819 1051 819 1051 819 940 c 0,37,38
 816 762 816 762 725.5 690 c 128,-1,39
 635 618 635 618 512 618 c 0,40,41
 460 618 460 618 397 631 c 1,42,-1
 397 389 l 1,0,-1
270 72 m 0,43,44
 270 114 270 114 302 144 c 128,-1,45
 334 174 334 174 373 174 c 0,46,47
 414 174 414 174 444.5 144.5 c 128,-1,48
 475 115 475 115 475 72 c 0,49,50
 475 28 475 28 444.5 -0.5 c 128,-1,51
 414 -29 414 -29 373 -29 c 0,52,53
 333 -29 333 -29 301.5 0 c 128,-1,54
 270 29 270 29 270 72 c 0,43,44
EndSplineSet
Validated: 1
EndChar

StartChar: at
Encoding: 64 64 35
Width: 1946
Flags: W
LayerCount: 3
Fore
SplineSet
1526 1178 m 1,0,-1
 1354 606 l 2,1,2
 1348 594 1348 594 1344.5 580.5 c 128,-1,3
 1341 567 1341 567 1337 555 c 0,4,5
 1332 534 1332 534 1322.5 497 c 128,-1,6
 1313 460 1313 460 1311 434 c 0,7,8
 1311 318 1311 318 1413 299 c 1,9,10
 1499 299 1499 299 1594.5 367.5 c 128,-1,11
 1690 436 1690 436 1753.5 564 c 128,-1,12
 1817 692 1817 692 1817 858 c 0,13,14
 1814 1010 1814 1010 1755 1145 c 128,-1,15
 1696 1280 1696 1280 1588 1381 c 128,-1,16
 1480 1482 1480 1482 1328.5 1538.5 c 128,-1,17
 1177 1595 1177 1595 989 1595 c 1,18,19
 808 1589 808 1589 655 1518.5 c 128,-1,20
 502 1448 502 1448 390.5 1327.5 c 128,-1,21
 279 1207 279 1207 218.5 1052.5 c 128,-1,22
 158 898 158 898 158 731 c 0,23,24
 158 563 158 563 219 406 c 128,-1,25
 280 249 280 249 394.5 125.5 c 128,-1,26
 509 2 509 2 663.5 -68.5 c 128,-1,27
 818 -139 818 -139 997 -143 c 1,28,29
 1338 -143 1338 -143 1556 47 c 1,30,-1
 1602 -12 l 1,31,32
 1489 -98 1489 -98 1381 -143 c 128,-1,33
 1273 -188 1273 -188 1184 -202.5 c 128,-1,34
 1095 -217 1095 -217 1001 -217 c 0,35,36
 791 -217 791 -217 616.5 -137 c 128,-1,37
 442 -57 442 -57 317.5 79.5 c 128,-1,38
 193 216 193 216 126.5 385.5 c 128,-1,39
 60 555 60 555 57 731 c 0,40,41
 57 911 57 911 123.5 1078.5 c 128,-1,42
 190 1246 190 1246 313.5 1377 c 128,-1,43
 437 1508 437 1508 609.5 1585.5 c 128,-1,44
 782 1663 782 1663 985 1669 c 1,45,46
 1180 1669 1180 1669 1343 1611 c 128,-1,47
 1506 1553 1506 1553 1627.5 1445.5 c 128,-1,48
 1749 1338 1749 1338 1817 1188 c 128,-1,49
 1885 1038 1885 1038 1886 858 c 0,50,51
 1886 741 1886 741 1853 628 c 128,-1,52
 1820 515 1820 515 1756 425 c 128,-1,53
 1692 335 1692 335 1599.5 282 c 128,-1,54
 1507 229 1507 229 1391 229 c 0,55,56
 1227 229 1227 229 1149 356 c 1,57,58
 1002 248 1002 248 854 248 c 1,59,60
 725 254 725 254 622.5 347.5 c 128,-1,61
 520 441 520 441 520 641 c 0,62,63
 522 780 522 780 589 912 c 128,-1,64
 656 1044 656 1044 783.5 1128 c 128,-1,65
 911 1212 911 1212 1075 1212 c 0,66,67
 1231 1212 1231 1212 1321 1077 c 1,68,-1
 1354 1178 l 1,69,-1
 1526 1178 l 1,0,-1
1270 948 m 1,70,71
 1261 1008 1261 1008 1231.5 1053.5 c 128,-1,72
 1202 1099 1202 1099 1159.5 1124 c 128,-1,73
 1117 1149 1117 1149 1069 1149 c 0,74,75
 990 1149 990 1149 913 1079.5 c 128,-1,76
 836 1010 836 1010 784.5 891 c 128,-1,77
 733 772 733 772 721 625 c 0,78,79
 719 606 719 606 719 571 c 0,80,81
 719 334 719 334 897 322 c 1,82,83
 982 322 982 322 1041.5 362.5 c 128,-1,84
 1101 403 1101 403 1133 453 c 1,85,-1
 1270 948 l 1,70,71
EndSplineSet
Validated: 1
EndChar

StartChar: A
Encoding: 65 65 36
Width: 1497
Flags: W
LayerCount: 3
Fore
SplineSet
500 1294 m 1,0,-1
 500 1331 l 1,1,2
 593 1350 593 1350 648 1395.5 c 128,-1,3
 703 1441 703 1441 723 1522 c 1,4,-1
 813 1522 l 1,5,-1
 1219 223 l 2,6,7
 1239 152 1239 152 1281.5 92.5 c 128,-1,8
 1324 33 1324 33 1425 25 c 1,9,-1
 1425 0 l 1,10,-1
 926 0 l 1,11,-1
 926 25 l 1,12,13
 1069 25 1069 25 1069 127 c 0,14,15
 1069 159 1069 159 1059 184 c 2,16,-1
 983 446 l 1,17,-1
 412 446 l 1,18,-1
 326 201 l 2,19,20
 315 179 315 179 315 143 c 0,21,22
 315 37 315 37 434 25 c 1,23,-1
 434 0 l 1,24,-1
 53 0 l 1,25,-1
 53 25 l 1,26,27
 144 43 144 43 192 94.5 c 128,-1,28
 240 146 240 146 258 197 c 2,29,-1
 602 1167 l 2,30,31
 612 1195 612 1195 614 1212 c 0,32,33
 614 1245 614 1245 612 1260 c 0,34,35
 609 1265 609 1265 607.5 1269.5 c 128,-1,36
 606 1274 606 1274 602 1276 c 0,37,38
 592 1286 592 1286 586 1288 c 0,39,40
 571 1298 571 1298 539 1298 c 0,41,42
 512 1298 512 1298 500 1294 c 1,0,-1
709 1288 m 1,43,-1
 434 510 l 1,44,-1
 956 510 l 1,45,-1
 709 1288 l 1,43,-1
EndSplineSet
Validated: 1
EndChar

StartChar: B
Encoding: 66 66 37
Width: 1540
Flags: W
LayerCount: 3
Fore
SplineSet
172 1419 m 1,0,-1
 172 1452 l 1,1,-1
 829 1452 l 2,2,3
 996 1452 996 1452 1088.5 1393.5 c 128,-1,4
 1181 1335 1181 1335 1214 1258.5 c 128,-1,5
 1247 1182 1247 1182 1247 1116 c 0,6,7
 1247 1051 1247 1051 1219.5 981.5 c 128,-1,8
 1192 912 1192 912 1122.5 855.5 c 128,-1,9
 1053 799 1053 799 934 778 c 1,10,11
 1089 753 1089 753 1182 693 c 128,-1,12
 1275 633 1275 633 1312.5 554.5 c 128,-1,13
 1350 476 1350 476 1350 383 c 0,14,15
 1350 326 1350 326 1330 262 c 128,-1,16
 1310 198 1310 198 1258 137 c 128,-1,17
 1206 76 1206 76 1112 38 c 128,-1,18
 1018 0 1018 0 881 0 c 2,19,-1
 172 0 l 1,20,-1
 172 29 l 1,21,22
 274 30 274 30 303 90 c 128,-1,23
 332 150 332 150 332 248 c 2,24,-1
 332 1202 l 2,25,26
 332 1300 332 1300 303 1359 c 128,-1,27
 274 1418 274 1418 172 1419 c 1,0,-1
492 784 m 1,28,-1
 766 784 l 2,29,30
 844 784 844 784 902 807.5 c 128,-1,31
 960 831 960 831 1000.5 874.5 c 128,-1,32
 1041 918 1041 918 1061 975.5 c 128,-1,33
 1081 1033 1081 1033 1081 1100 c 0,34,35
 1080 1181 1080 1181 1043 1248 c 128,-1,36
 1006 1315 1006 1315 942.5 1353 c 128,-1,37
 879 1391 879 1391 803 1391 c 2,38,-1
 596 1391 l 2,39,40
 557 1391 557 1391 524.5 1362 c 128,-1,41
 492 1333 492 1333 492 1264 c 2,42,-1
 492 784 l 1,28,-1
492 727 m 1,43,-1
 492 195 l 2,44,45
 492 143 492 143 500 115.5 c 128,-1,46
 508 88 508 88 535.5 72.5 c 128,-1,47
 563 57 563 57 623 57 c 2,48,-1
 831 57 l 2,49,50
 922 57 922 57 996.5 102.5 c 128,-1,51
 1071 148 1071 148 1113 221.5 c 128,-1,52
 1155 295 1155 295 1157 379 c 0,53,54
 1157 449 1157 449 1132.5 525 c 128,-1,55
 1108 601 1108 601 1020 664 c 128,-1,56
 932 727 932 727 762 727 c 2,57,-1
 492 727 l 1,43,-1
EndSplineSet
Validated: 1
EndChar

StartChar: C
Encoding: 67 67 38
Width: 1540
Flags: W
LayerCount: 3
Fore
SplineSet
1298 1139 m 1,0,-1
 1276 1139 l 1,1,2
 1245 1220 1245 1220 1181.5 1283 c 128,-1,3
 1118 1346 1118 1346 1029 1381.5 c 128,-1,4
 940 1417 940 1417 840 1417 c 1,5,6
 736 1412 736 1412 627 1360 c 128,-1,7
 518 1308 518 1308 432 1154 c 128,-1,8
 346 1000 346 1000 346 721 c 0,9,10
 346 520 346 520 410 366 c 128,-1,11
 474 212 474 212 588.5 125 c 128,-1,12
 703 38 703 38 852 29 c 1,13,14
 979 29 979 29 1080.5 70 c 128,-1,15
 1182 111 1182 111 1248.5 188.5 c 128,-1,16
 1315 266 1315 266 1343 379 c 1,17,-1
 1368 379 l 1,18,-1
 1368 88 l 1,19,20
 1283 36 1283 36 1156 2.5 c 128,-1,21
 1029 -31 1029 -31 909 -31 c 0,22,23
 874 -31 874 -31 858 -29 c 0,24,25
 648 -11 648 -11 489.5 99 c 128,-1,26
 331 209 331 209 244.5 376.5 c 128,-1,27
 158 544 158 544 156 723 c 0,28,29
 156 870 156 870 212 1007 c 128,-1,30
 268 1144 268 1144 375 1252.5 c 128,-1,31
 482 1361 482 1361 630.5 1422 c 128,-1,32
 779 1483 779 1483 952 1483 c 0,33,34
 987 1483 987 1483 1006 1481 c 0,35,36
 1089 1476 1089 1476 1159 1459 c 128,-1,37
 1229 1442 1229 1442 1298 1407 c 1,38,-1
 1298 1139 l 1,0,-1
EndSplineSet
Validated: 1
EndChar

StartChar: D
Encoding: 68 68 39
Width: 1679
Flags: W
LayerCount: 3
Fore
SplineSet
158 1452 m 1,0,-1
 743 1452 l 2,1,2
 868 1452 868 1452 1032 1413 c 128,-1,3
 1196 1374 1196 1374 1348 1219.5 c 128,-1,4
 1500 1065 1500 1065 1505 762 c 1,5,6
 1505 472 1505 472 1366 260 c 1,7,8
 1266 138 1266 138 1120 69 c 128,-1,9
 974 0 974 0 737 0 c 2,10,-1
 158 0 l 1,11,-1
 158 29 l 1,12,13
 259 30 259 30 288 88.5 c 128,-1,14
 317 147 317 147 317 248 c 2,15,-1
 317 1202 l 2,16,17
 317 1303 317 1303 288 1360.5 c 128,-1,18
 259 1418 259 1418 158 1419 c 1,19,-1
 158 1452 l 1,0,-1
475 225 m 2,20,21
 475 166 475 166 485 134.5 c 128,-1,22
 495 103 495 103 517.5 87 c 128,-1,23
 540 71 540 71 573 67 c 128,-1,24
 606 63 606 63 657 63 c 0,25,26
 784 63 784 63 886 80 c 128,-1,27
 988 97 988 97 1087 158.5 c 128,-1,28
 1186 220 1186 220 1250 354.5 c 128,-1,29
 1314 489 1314 489 1317 709 c 0,30,31
 1317 901 1317 901 1270 1032.5 c 128,-1,32
 1223 1164 1223 1164 1152.5 1236 c 128,-1,33
 1082 1308 1082 1308 1006 1340.5 c 128,-1,34
 930 1373 930 1373 860 1382 c 0,35,36
 819 1384 819 1384 739 1384 c 2,37,-1
 618 1384 l 2,38,39
 550 1381 550 1381 520.5 1362.5 c 128,-1,40
 491 1344 491 1344 483 1302.5 c 128,-1,41
 475 1261 475 1261 475 1165 c 2,42,-1
 475 225 l 2,20,21
EndSplineSet
Validated: 1
EndChar

StartChar: E
Encoding: 69 69 40
Width: 1452
Flags: W
LayerCount: 3
Fore
SplineSet
1274 293 m 1,0,-1
 1309 293 l 1,1,-1
 1257 0 l 1,2,-1
 152 0 l 1,3,-1
 152 29 l 1,4,5
 253 30 253 30 282 90 c 128,-1,6
 311 150 311 150 311 248 c 2,7,-1
 311 1202 l 2,8,9
 311 1300 311 1300 282 1359 c 128,-1,10
 253 1418 253 1418 152 1419 c 1,11,-1
 152 1452 l 1,12,-1
 1212 1452 l 1,13,-1
 1257 1167 l 1,14,-1
 1212 1167 l 1,15,16
 1188 1246 1188 1246 1116.5 1308.5 c 128,-1,17
 1045 1371 1045 1371 956 1384 c 0,18,19
 951 1386 951 1386 905 1391 c 1,20,-1
 874 1391 l 1,21,-1
 600 1391 l 2,22,23
 469 1391 469 1391 469 1251 c 2,24,-1
 469 823 l 1,25,-1
 870 823 l 2,26,27
 1030 823 1030 823 1030 973 c 1,28,-1
 1063 973 l 1,29,-1
 1063 600 l 1,30,-1
 1030 600 l 1,31,32
 1030 671 1030 671 989.5 713.5 c 128,-1,33
 949 756 949 756 870 756 c 2,34,-1
 469 756 l 1,35,-1
 469 190 l 2,36,37
 469 144 469 144 488 110 c 128,-1,38
 507 76 507 76 535 66 c 0,39,40
 551 59 551 59 590 59 c 0,41,42
 596 57 596 57 614 57 c 2,43,-1
 909 57 l 2,44,45
 961 57 961 57 1024.5 73 c 128,-1,46
 1088 89 1088 89 1158 142 c 128,-1,47
 1228 195 1228 195 1274 293 c 1,0,-1
EndSplineSet
Validated: 1
EndChar

StartChar: F
Encoding: 70 70 41
Width: 1403
Flags: W
LayerCount: 3
Fore
SplineSet
150 0 m 1,0,-1
 150 29 l 1,1,2
 249 30 249 30 277 89.5 c 128,-1,3
 305 149 305 149 305 248 c 2,4,-1
 305 1202 l 2,5,6
 305 1300 305 1300 277 1359 c 128,-1,7
 249 1418 249 1418 150 1419 c 1,8,-1
 150 1452 l 1,9,-1
 1270 1452 l 1,10,-1
 1315 1167 l 1,11,-1
 1280 1167 l 1,12,13
 1237 1275 1237 1275 1163.5 1323 c 128,-1,14
 1090 1371 1090 1371 1014 1384 c 0,15,16
 1007 1386 1007 1386 961 1391 c 1,17,-1
 928 1391 l 1,18,-1
 592 1391 l 2,19,20
 508 1391 508 1391 485.5 1351.5 c 128,-1,21
 463 1312 463 1312 463 1251 c 2,22,-1
 463 823 l 1,23,-1
 868 823 l 2,24,25
 912 823 912 823 968 851 c 128,-1,26
 1024 879 1024 879 1024 973 c 1,27,-1
 1059 973 l 1,28,-1
 1059 600 l 1,29,-1
 1024 600 l 1,30,31
 1024 756 1024 756 868 756 c 2,32,-1
 463 756 l 1,33,-1
 463 248 l 2,34,35
 463 187 463 187 472 140.5 c 128,-1,36
 481 94 481 94 516 62 c 128,-1,37
 551 30 551 30 623 29 c 1,38,-1
 623 0 l 1,39,-1
 150 0 l 1,0,-1
EndSplineSet
Validated: 1
EndChar

StartChar: G
Encoding: 71 71 42
Width: 1679
Flags: W
LayerCount: 3
Fore
SplineSet
1294 1139 m 1,0,-1
 1270 1139 l 1,1,2
 1240 1219 1240 1219 1175 1282.5 c 128,-1,3
 1110 1346 1110 1346 1021 1381.5 c 128,-1,4
 932 1417 932 1417 831 1417 c 1,5,6
 732 1412 732 1412 622.5 1360 c 128,-1,7
 513 1308 513 1308 426.5 1154.5 c 128,-1,8
 340 1001 340 1001 340 721 c 0,9,10
 340 403 340 403 487 221.5 c 128,-1,11
 634 40 634 40 848 29 c 1,12,-1
 918 29 l 1,13,14
 1036 35 1036 35 1102.5 60.5 c 128,-1,15
 1169 86 1169 86 1198 123.5 c 128,-1,16
 1227 161 1227 161 1234 198.5 c 128,-1,17
 1241 236 1241 236 1241 287 c 2,18,-1
 1241 573 l 2,19,20
 1241 659 1241 659 1219 721 c 1,21,22
 1176 791 1176 791 1087 797 c 1,23,-1
 1087 825 l 1,24,-1
 1544 825 l 1,25,-1
 1544 797 l 1,26,27
 1403 788 1403 788 1403 618 c 2,28,-1
 1403 311 l 2,29,30
 1403 137 1403 137 1544 123 c 1,31,32
 1353 35 1353 35 1228.5 4.5 c 128,-1,33
 1104 -26 1104 -26 956 -29 c 0,34,35
 718 -29 718 -29 535.5 58 c 128,-1,36
 353 145 353 145 251.5 315.5 c 128,-1,37
 150 486 150 486 150 723 c 0,38,39
 153 893 153 893 209.5 1032 c 128,-1,40
 266 1171 266 1171 368 1272.5 c 128,-1,41
 470 1374 470 1374 607.5 1427.5 c 128,-1,42
 745 1481 745 1481 903 1481 c 0,43,44
 1038 1481 1038 1481 1130.5 1458 c 128,-1,45
 1223 1435 1223 1435 1294 1401 c 1,46,-1
 1294 1139 l 1,0,-1
EndSplineSet
Validated: 1
EndChar

StartChar: H
Encoding: 72 72 43
Width: 1722
Flags: W
LayerCount: 3
Fore
SplineSet
469 752 m 1,0,-1
 469 248 l 2,1,2
 469 188 469 188 478 142 c 128,-1,3
 487 96 487 96 522.5 63 c 128,-1,4
 558 30 558 30 629 29 c 1,5,-1
 629 0 l 1,6,-1
 152 0 l 1,7,-1
 152 29 l 1,8,9
 253 30 253 30 282 90 c 128,-1,10
 311 150 311 150 311 248 c 2,11,-1
 311 1202 l 2,12,13
 311 1300 311 1300 282 1359 c 128,-1,14
 253 1418 253 1418 152 1419 c 1,15,-1
 152 1452 l 1,16,-1
 629 1452 l 1,17,-1
 629 1419 l 1,18,19
 527 1418 527 1418 498 1358 c 128,-1,20
 469 1298 469 1298 469 1202 c 2,21,-1
 469 813 l 1,22,-1
 1251 813 l 1,23,-1
 1251 1202 l 2,24,25
 1251 1303 1251 1303 1223 1360.5 c 128,-1,26
 1195 1418 1195 1418 1094 1419 c 1,27,-1
 1094 1452 l 1,28,-1
 1571 1452 l 1,29,-1
 1571 1419 l 1,30,31
 1499 1418 1499 1418 1464 1386.5 c 128,-1,32
 1429 1355 1429 1355 1420 1309.5 c 128,-1,33
 1411 1264 1411 1264 1411 1202 c 2,34,-1
 1411 248 l 2,35,36
 1411 187 1411 187 1420 140.5 c 128,-1,37
 1429 94 1429 94 1464 62 c 128,-1,38
 1499 30 1499 30 1571 29 c 1,39,-1
 1571 0 l 1,40,-1
 1094 0 l 1,41,-1
 1094 29 l 1,42,43
 1195 30 1195 30 1223 88.5 c 128,-1,44
 1251 147 1251 147 1251 248 c 2,45,-1
 1251 752 l 1,46,-1
 469 752 l 1,0,-1
EndSplineSet
Validated: 1
EndChar

StartChar: I
Encoding: 73 73 44
Width: 905
Flags: W
LayerCount: 3
Fore
SplineSet
213 1452 m 1,0,-1
 692 1452 l 1,1,-1
 692 1419 l 1,2,3
 591 1418 591 1418 561.5 1358 c 128,-1,4
 532 1298 532 1298 532 1202 c 2,5,-1
 532 248 l 2,6,7
 532 152 532 152 561.5 91 c 128,-1,8
 591 30 591 30 692 29 c 1,9,-1
 692 0 l 1,10,-1
 213 0 l 1,11,-1
 213 29 l 1,12,13
 284 30 284 30 319 61 c 128,-1,14
 354 92 354 92 363.5 137.5 c 128,-1,15
 373 183 373 183 373 248 c 2,16,-1
 373 1202 l 2,17,18
 373 1266 373 1266 363.5 1311.5 c 128,-1,19
 354 1357 354 1357 319.5 1387.5 c 128,-1,20
 285 1418 285 1418 213 1419 c 1,21,-1
 213 1452 l 1,0,-1
EndSplineSet
Validated: 1
EndChar

StartChar: J
Encoding: 74 74 45
Width: 1042
Flags: W
LayerCount: 3
Fore
SplineSet
420 1452 m 1,0,-1
 899 1452 l 1,1,-1
 899 1419 l 1,2,3
 827 1418 827 1418 792 1386.5 c 128,-1,4
 757 1355 757 1355 748 1309.5 c 128,-1,5
 739 1264 739 1264 739 1202 c 2,6,-1
 739 403 l 2,7,8
 739 -25 739 -25 385 -29 c 0,9,10
 298 -29 298 -29 221.5 6.5 c 128,-1,11
 145 42 145 42 98 102 c 128,-1,12
 51 162 51 162 51 229 c 0,13,14
 51 258 51 258 59 283 c 0,15,16
 84 334 84 334 150 334 c 0,17,18
 195 332 195 332 224.5 291.5 c 128,-1,19
 254 251 254 251 254 156 c 0,20,21
 254 133 254 133 258 121 c 0,22,23
 264 87 264 87 295 58 c 128,-1,24
 326 29 326 29 389 29 c 0,25,26
 499 29 499 29 535.5 94.5 c 128,-1,27
 572 160 572 160 578 236 c 0,28,29
 580 254 580 254 580 295 c 2,30,-1
 580 346 l 1,31,-1
 580 1202 l 2,32,33
 580 1298 580 1298 551.5 1358 c 128,-1,34
 523 1418 523 1418 420 1419 c 1,35,-1
 420 1452 l 1,0,-1
EndSplineSet
Validated: 1
EndChar

StartChar: K
Encoding: 75 75 46
Width: 1630
Flags: W
LayerCount: 3
Fore
SplineSet
694 1452 m 1,0,-1
 694 1419 l 1,1,2
 593 1418 593 1418 564 1358 c 128,-1,3
 535 1298 535 1298 535 1202 c 2,4,-1
 535 631 l 1,5,-1
 1047 1184 l 2,6,7
 1074 1215 1074 1215 1094 1254 c 128,-1,8
 1114 1293 1114 1293 1114 1325 c 0,9,10
 1114 1332 1114 1332 1110 1350 c 0,11,12
 1105 1371 1105 1371 1084 1390.5 c 128,-1,13
 1063 1410 1063 1410 1034 1417 c 0,14,15
 1020 1419 1020 1419 997 1419 c 1,16,17
 991 1423 991 1423 983 1423 c 1,18,-1
 983 1452 l 1,19,-1
 1448 1452 l 1,20,-1
 1448 1423 l 1,21,22
 1327 1396 1327 1396 1225 1286 c 2,23,-1
 874 909 l 1,24,25
 947 729 947 729 1062.5 509.5 c 128,-1,26
 1178 290 1178 290 1314 99.5 c 128,-1,27
 1450 -91 1450 -91 1567 -172 c 1,28,-1
 1540 -207 l 1,29,30
 1446 -153 1446 -153 1359.5 -80.5 c 128,-1,31
 1273 -8 1273 -8 1172.5 109 c 128,-1,32
 1072 226 1072 226 962 385 c 128,-1,33
 852 544 852 544 727 752 c 1,34,-1
 535 545 l 1,35,-1
 535 248 l 2,36,37
 535 152 535 152 564 91 c 128,-1,38
 593 30 593 30 694 29 c 1,39,-1
 694 0 l 1,40,-1
 203 0 l 1,41,-1
 203 29 l 1,42,43
 304 30 304 30 332 88.5 c 128,-1,44
 360 147 360 147 360 248 c 2,45,-1
 360 1202 l 2,46,47
 360 1303 360 1303 332 1360.5 c 128,-1,48
 304 1418 304 1418 203 1419 c 1,49,-1
 203 1452 l 1,50,-1
 694 1452 l 1,0,-1
EndSplineSet
Validated: 1
EndChar

StartChar: L
Encoding: 76 76 47
Width: 1403
Flags: W
LayerCount: 3
Fore
SplineSet
190 1452 m 1,0,-1
 625 1452 l 1,1,-1
 625 1419 l 1,2,3
 544 1413 544 1413 513.5 1371.5 c 128,-1,4
 483 1330 483 1330 483 1245 c 2,5,-1
 487 225 l 2,6,7
 487 154 487 154 496 120.5 c 128,-1,8
 505 87 505 87 535.5 72 c 128,-1,9
 566 57 566 57 631 57 c 2,10,-1
 893 57 l 2,11,12
 971 57 971 57 1078.5 101 c 128,-1,13
 1186 145 1186 145 1257 293 c 1,14,-1
 1292 293 l 1,15,-1
 1241 0 l 1,16,-1
 172 0 l 1,17,-1
 172 29 l 1,18,19
 261 30 261 30 294.5 77 c 128,-1,20
 328 124 328 124 328 225 c 2,21,-1
 328 1231 l 2,22,23
 328 1322 328 1322 299 1368.5 c 128,-1,24
 270 1415 270 1415 190 1419 c 1,25,-1
 190 1452 l 1,0,-1
EndSplineSet
Validated: 1
EndChar

StartChar: M
Encoding: 77 77 48
Width: 1995
Flags: W
LayerCount: 3
Fore
SplineSet
963 408 m 1,0,-1
 1360 1452 l 1,1,-1
 1675 1452 l 1,2,-1
 1675 1419 l 1,3,4
 1534 1419 1534 1419 1534 1294 c 0,5,6
 1534 1281 1534 1281 1538 1247 c 2,7,-1
 1737 209 l 2,8,9
 1753 125 1753 125 1806 78 c 128,-1,10
 1859 31 1859 31 1925 31 c 1,11,-1
 1925 0 l 1,12,-1
 1411 0 l 1,13,-1
 1411 31 l 1,14,15
 1561 31 1561 31 1571 139 c 0,16,17
 1571 151 1571 151 1570 161 c 128,-1,18
 1569 171 1569 171 1565.5 191.5 c 128,-1,19
 1562 212 1562 212 1561 219 c 2,20,-1
 1360 1282 l 1,21,-1
 938 158 l 1,22,-1
 874 158 l 1,23,-1
 506 1247 l 1,24,-1
 299 217 l 2,25,26
 295 193 295 193 295 180 c 0,27,28
 295 111 295 111 341.5 72.5 c 128,-1,29
 388 34 388 34 453 31 c 1,30,-1
 453 0 l 1,31,-1
 66 0 l 1,32,-1
 66 31 l 1,33,34
 185 37 185 37 225 152 c 0,35,36
 231 167 231 167 242 203 c 0,37,38
 243 205 243 205 248 229 c 2,39,-1
 440 1202 l 2,40,41
 449 1245 449 1245 449 1298 c 0,42,43
 447 1341 447 1341 412.5 1380 c 128,-1,44
 378 1419 378 1419 299 1419 c 1,45,-1
 299 1452 l 1,46,-1
 623 1452 l 1,47,-1
 963 408 l 1,0,-1
EndSplineSet
Validated: 1
EndChar

StartChar: N
Encoding: 78 78 49
Width: 1679
Flags: W
LayerCount: 3
Fore
SplineSet
1298 246 m 1,0,-1
 1298 1196 l 2,1,2
 1298 1262 1298 1262 1278 1329.5 c 128,-1,3
 1258 1397 1258 1397 1184 1413 c 0,4,5
 1179 1415 1179 1415 1168 1416.5 c 128,-1,6
 1157 1418 1157 1418 1149 1419 c 2,7,-1
 1133 1419 l 1,8,-1
 1133 1452 l 1,9,-1
 1520 1452 l 1,10,-1
 1520 1419 l 1,11,12
 1450 1412 1450 1412 1415 1377.5 c 128,-1,13
 1380 1343 1380 1343 1371 1299.5 c 128,-1,14
 1362 1256 1362 1256 1362 1206 c 2,15,-1
 1362 -29 l 1,16,-1
 1305 -29 l 1,17,-1
 385 1264 l 1,18,-1
 385 236 l 2,19,20
 385 179 385 179 417.5 104 c 128,-1,21
 450 29 450 29 555 29 c 1,22,-1
 555 0 l 1,23,-1
 162 0 l 1,24,-1
 162 29 l 1,25,26
 269 34 269 34 300.5 96.5 c 128,-1,27
 332 159 332 159 332 223 c 2,28,-1
 332 1174 l 2,29,30
 332 1419 332 1419 162 1419 c 1,31,-1
 162 1452 l 1,32,-1
 465 1452 l 1,33,-1
 1298 246 l 1,0,-1
EndSplineSet
Validated: 1
EndChar

StartChar: O
Encoding: 79 79 50
Width: 1679
Flags: W
LayerCount: 3
Fore
SplineSet
143 750 m 1,0,1
 149 946 149 946 216 1085.5 c 128,-1,2
 283 1225 283 1225 389 1312 c 128,-1,3
 495 1399 495 1399 611 1439 c 128,-1,4
 727 1479 727 1479 836 1481 c 0,5,6
 944 1481 944 1481 1064.5 1440.5 c 128,-1,7
 1185 1400 1185 1400 1289.5 1313.5 c 128,-1,8
 1394 1227 1394 1227 1462 1085 c 128,-1,9
 1530 943 1530 943 1534 750 c 1,10,11
 1534 546 1534 546 1468.5 394 c 128,-1,12
 1403 242 1403 242 1297 149 c 128,-1,13
 1191 56 1191 56 1069 13.5 c 128,-1,14
 947 -29 947 -29 836 -29 c 0,15,16
 728 -29 728 -29 607.5 13.5 c 128,-1,17
 487 56 487 56 380 150 c 128,-1,18
 273 244 273 244 208 394.5 c 128,-1,19
 143 545 143 545 143 750 c 1,0,1
334 743 m 0,20,21
 334 570 334 570 381 408 c 128,-1,22
 428 246 428 246 542 138.5 c 128,-1,23
 656 31 656 31 840 31 c 0,24,25
 982 31 982 31 1080.5 96 c 128,-1,26
 1179 161 1179 161 1236.5 266 c 128,-1,27
 1294 371 1294 371 1318.5 492.5 c 128,-1,28
 1343 614 1343 614 1343 743 c 0,29,30
 1339 985 1339 985 1261.5 1138 c 128,-1,31
 1184 1291 1184 1291 1070.5 1357 c 128,-1,32
 957 1423 957 1423 840 1423 c 0,33,34
 754 1421 754 1421 668.5 1386.5 c 128,-1,35
 583 1352 583 1352 507 1272 c 128,-1,36
 431 1192 431 1192 384.5 1062.5 c 128,-1,37
 338 933 338 933 334 743 c 0,20,21
EndSplineSet
Validated: 1
EndChar

StartChar: P
Encoding: 80 80 51
Width: 1452
Flags: W
LayerCount: 3
Fore
SplineSet
469 545 m 1,0,-1
 469 246 l 2,1,2
 469 176 469 176 480 131 c 128,-1,3
 491 86 491 86 526 59 c 128,-1,4
 561 32 561 32 625 29 c 1,5,-1
 625 0 l 1,6,-1
 156 0 l 1,7,-1
 156 29 l 1,8,9
 253 30 253 30 282 87.5 c 128,-1,10
 311 145 311 145 311 246 c 2,11,-1
 311 1206 l 2,12,13
 311 1306 311 1306 282.5 1362.5 c 128,-1,14
 254 1419 254 1419 156 1419 c 1,15,-1
 156 1452 l 1,16,-1
 831 1452 l 2,17,18
 945 1452 945 1452 1033.5 1416.5 c 128,-1,19
 1122 1381 1122 1381 1179.5 1319 c 128,-1,20
 1237 1257 1237 1257 1267.5 1174 c 128,-1,21
 1298 1091 1298 1091 1298 1001 c 0,22,23
 1294 772 1294 772 1143 661.5 c 128,-1,24
 992 551 992 551 788 551 c 0,25,26
 740 549 740 549 709 547 c 128,-1,27
 678 545 678 545 664 545 c 2,28,-1
 469 545 l 1,0,-1
469 602 m 1,29,-1
 641 602 l 2,30,31
 825 602 825 602 929 651 c 128,-1,32
 1033 700 1033 700 1073.5 787 c 128,-1,33
 1114 874 1114 874 1114 997 c 0,34,35
 1111 1206 1111 1206 1017.5 1286 c 128,-1,36
 924 1366 924 1366 829 1382 c 0,37,38
 784 1389 784 1389 698 1389 c 0,39,40
 625 1389 625 1389 586 1384 c 1,41,42
 553 1384 553 1384 517 1365.5 c 128,-1,43
 481 1347 481 1347 471 1298 c 0,44,45
 470 1290 470 1290 470 1274.5 c 128,-1,46
 470 1259 470 1259 469 1251 c 2,47,-1
 469 1225 l 1,48,-1
 469 602 l 1,29,-1
EndSplineSet
Validated: 1
EndChar

StartChar: Q
Encoding: 81 81 52
Width: 1679
Flags: W
LayerCount: 3
Fore
SplineSet
143 750 m 1,0,1
 149 946 149 946 216 1085.5 c 128,-1,2
 283 1225 283 1225 389 1312 c 128,-1,3
 495 1399 495 1399 611 1439 c 128,-1,4
 727 1479 727 1479 836 1481 c 0,5,6
 944 1481 944 1481 1064.5 1440.5 c 128,-1,7
 1185 1400 1185 1400 1289.5 1313.5 c 128,-1,8
 1394 1227 1394 1227 1462 1085 c 128,-1,9
 1530 943 1530 943 1534 750 c 0,10,11
 1534 617 1534 617 1500.5 495 c 128,-1,12
 1467 373 1467 373 1403 274.5 c 128,-1,13
 1339 176 1339 176 1249.5 107.5 c 128,-1,14
 1160 39 1160 39 1049 6 c 1,15,16
 1082 -99 1082 -99 1139 -168.5 c 128,-1,17
 1196 -238 1196 -238 1282 -238 c 0,18,19
 1323 -238 1323 -238 1366.5 -211 c 128,-1,20
 1410 -184 1410 -184 1432 -150 c 1,21,-1
 1464 -150 l 1,22,23
 1444 -233 1444 -233 1380.5 -296.5 c 128,-1,24
 1317 -360 1317 -360 1219 -360 c 0,25,26
 1156 -358 1156 -358 1091.5 -324.5 c 128,-1,27
 1027 -291 1027 -291 972.5 -218 c 128,-1,28
 918 -145 918 -145 883 -29 c 1,29,30
 868 -29 868 -29 859.5 -29.5 c 128,-1,31
 851 -30 851 -30 840 -31 c 0,32,33
 693 -31 693 -31 565.5 26 c 128,-1,34
 438 83 438 83 343 188 c 128,-1,35
 248 293 248 293 195.5 437.5 c 128,-1,36
 143 582 143 582 143 750 c 1,0,1
635 334 m 1,37,-1
 635 367 l 1,38,39
 667 375 667 375 715 375 c 0,40,41
 842 371 842 371 907.5 296 c 128,-1,42
 973 221 973 221 1024 70 c 1,43,44
 1118 110 1118 110 1182.5 189 c 128,-1,45
 1247 268 1247 268 1282.5 367.5 c 128,-1,46
 1318 467 1318 467 1330.5 560 c 128,-1,47
 1343 653 1343 653 1343 743 c 0,48,49
 1339 985 1339 985 1261.5 1138 c 128,-1,50
 1184 1291 1184 1291 1070.5 1357 c 128,-1,51
 957 1423 957 1423 840 1423 c 0,52,53
 754 1421 754 1421 668.5 1386.5 c 128,-1,54
 583 1352 583 1352 507 1272 c 128,-1,55
 431 1192 431 1192 384.5 1062.5 c 128,-1,56
 338 933 338 933 334 743 c 1,57,58
 334 492 334 492 407 331 c 128,-1,59
 480 170 480 170 600.5 100.5 c 128,-1,60
 721 31 721 31 864 31 c 1,61,62
 836 149 836 149 814 207.5 c 128,-1,63
 792 266 792 266 750.5 300 c 128,-1,64
 709 334 709 334 635 334 c 1,37,-1
EndSplineSet
Validated: 1
EndChar

StartChar: R
Encoding: 82 82 53
Width: 1540
Flags: W
LayerCount: 3
Fore
SplineSet
172 1452 m 1,0,-1
 797 1448 l 2,1,2
 976 1448 976 1448 1145.5 1378.5 c 128,-1,3
 1315 1309 1315 1309 1321 1063 c 1,4,5
 1321 885 1321 885 1227.5 783.5 c 128,-1,6
 1134 682 1134 682 963 625 c 1,7,8
 985 498 985 498 1053 345.5 c 128,-1,9
 1121 193 1121 193 1218 51 c 128,-1,10
 1315 -91 1315 -91 1407 -172 c 1,11,-1
 1384 -203 l 1,12,13
 1280 -137 1280 -137 1181.5 -47 c 128,-1,14
 1083 43 1083 43 999 147.5 c 128,-1,15
 915 252 915 252 854.5 368 c 128,-1,16
 794 484 794 484 772 596 c 1,17,18
 666 596 666 596 602 600 c 0,19,20
 556 600 556 600 506 606 c 1,21,-1
 492 606 l 1,22,-1
 492 248 l 2,23,24
 492 145 492 145 521 87.5 c 128,-1,25
 550 30 550 30 647 29 c 1,26,-1
 647 0 l 1,27,-1
 172 0 l 1,28,-1
 172 29 l 1,29,30
 274 30 274 30 303 90 c 128,-1,31
 332 150 332 150 332 248 c 2,32,-1
 332 1202 l 2,33,34
 332 1300 332 1300 303 1359 c 128,-1,35
 274 1418 274 1418 172 1419 c 1,36,-1
 172 1452 l 1,0,-1
492 666 m 1,37,38
 565 657 565 657 676 657 c 0,39,40
 831 658 831 658 937.5 709.5 c 128,-1,41
 1044 761 1044 761 1099.5 848 c 128,-1,42
 1155 935 1155 935 1155 1040 c 0,43,44
 1151 1197 1151 1197 1069 1275 c 128,-1,45
 987 1353 987 1353 896.5 1372 c 128,-1,46
 806 1391 806 1391 721 1391 c 2,47,-1
 657 1391 l 2,48,49
 591 1391 591 1391 549 1377 c 128,-1,50
 507 1363 507 1363 494 1321 c 0,51,52
 492 1303 492 1303 492 1260 c 2,53,-1
 492 1229 l 1,54,-1
 492 666 l 1,37,38
EndSplineSet
Validated: 1
EndChar

StartChar: S
Encoding: 83 83 54
Width: 1403
Flags: W
LayerCount: 3
Fore
SplineSet
1085 1133 m 1,0,-1
 1047 1133 l 1,1,2
 1023 1210 1023 1210 961.5 1277 c 128,-1,3
 900 1344 900 1344 820 1380.5 c 128,-1,4
 740 1417 740 1417 653 1419 c 0,5,6
 516 1419 516 1419 450.5 1346 c 128,-1,7
 385 1273 385 1273 385 1180 c 0,8,9
 385 1117 385 1117 413.5 1069 c 128,-1,10
 442 1021 442 1021 492 983.5 c 128,-1,11
 542 946 542 946 600 917 c 128,-1,12
 658 888 658 888 752 846 c 0,13,14
 849 806 849 806 944 762 c 1,15,16
 1035 715 1035 715 1121.5 627 c 128,-1,17
 1208 539 1208 539 1208 389 c 0,18,19
 1208 290 1208 290 1153.5 194.5 c 128,-1,20
 1099 99 1099 99 992 38 c 128,-1,21
 885 -23 885 -23 739 -29 c 1,22,23
 586 -29 586 -29 468 6.5 c 128,-1,24
 350 42 350 42 209 111 c 1,25,-1
 195 389 l 1,26,-1
 231 389 l 1,27,28
 261 280 261 280 338 199 c 128,-1,29
 415 118 415 118 514.5 75 c 128,-1,30
 614 32 614 32 709 29 c 0,31,32
 807 29 807 29 882.5 67.5 c 128,-1,33
 958 106 958 106 1001 172.5 c 128,-1,34
 1044 239 1044 239 1047 322 c 0,35,36
 1047 426 1047 426 996 486.5 c 128,-1,37
 945 547 945 547 860 590 c 0,38,39
 794 620 794 620 698 659 c 0,40,41
 568 717 568 717 493.5 757.5 c 128,-1,42
 419 798 419 798 361.5 849.5 c 128,-1,43
 304 901 304 901 275 965.5 c 128,-1,44
 246 1030 246 1030 246 1116 c 0,45,46
 252 1278 252 1278 368.5 1379.5 c 128,-1,47
 485 1481 485 1481 688 1481 c 1,48,49
 888 1471 888 1471 1063 1368 c 1,50,-1
 1085 1133 l 1,0,-1
EndSplineSet
Validated: 1
EndChar

StartChar: T
Encoding: 84 84 55
Width: 1315
Flags: W
LayerCount: 3
Fore
SplineSet
424 0 m 1,0,-1
 424 29 l 1,1,2
 524 30 524 30 552 90 c 128,-1,3
 580 150 580 150 580 246 c 2,4,-1
 580 1223 l 2,5,6
 580 1235 580 1235 579.5 1242 c 128,-1,7
 579 1249 579 1249 578 1257 c 0,8,9
 576 1280 576 1280 575.5 1296 c 128,-1,10
 575 1312 575 1312 571 1321 c 0,11,12
 558 1365 558 1365 526 1377 c 128,-1,13
 494 1389 494 1389 449 1389 c 0,14,15
 351 1385 351 1385 257 1320 c 128,-1,16
 163 1255 163 1255 123 1174 c 1,17,-1
 94 1174 l 1,18,-1
 158 1452 l 1,19,-1
 1155 1452 l 1,20,-1
 1219 1174 l 1,21,-1
 1190 1174 l 1,22,23
 1158 1235 1158 1235 1111 1277.5 c 128,-1,24
 1064 1320 1064 1320 1015.5 1343.5 c 128,-1,25
 967 1367 967 1367 926.5 1377 c 128,-1,26
 886 1387 886 1387 864 1389 c 0,27,28
 840 1393 840 1393 821 1393 c 0,29,30
 748 1393 748 1393 733 1321 c 1,31,-1
 733 1257 l 1,32,-1
 733 1223 l 1,33,-1
 733 246 l 2,34,35
 733 150 733 150 761 90 c 128,-1,36
 789 30 789 30 889 29 c 1,37,-1
 889 0 l 1,38,-1
 424 0 l 1,0,-1
EndSplineSet
Validated: 1
EndChar

StartChar: U
Encoding: 85 85 56
Width: 1722
Flags: W
LayerCount: 3
Fore
SplineSet
1202 1419 m 1,0,-1
 1202 1452 l 1,1,-1
 1585 1452 l 1,2,-1
 1585 1419 l 1,3,4
 1530 1419 1530 1419 1484 1385 c 128,-1,5
 1438 1351 1438 1351 1430 1298 c 0,6,7
 1428 1292 1428 1292 1428 1277 c 128,-1,8
 1428 1262 1428 1262 1425 1253 c 2,9,-1
 1425 1208 l 1,10,-1
 1425 520 l 2,11,12
 1425 435 1425 435 1414 356.5 c 128,-1,13
 1403 278 1403 278 1353.5 188.5 c 128,-1,14
 1304 99 1304 99 1192.5 37 c 128,-1,15
 1081 -25 1081 -25 897 -29 c 1,16,17
 631 -29 631 -29 501 59 c 128,-1,18
 371 147 371 147 341 255.5 c 128,-1,19
 311 364 311 364 311 494 c 2,20,-1
 311 1202 l 2,21,22
 311 1300 311 1300 282 1359 c 128,-1,23
 253 1418 253 1418 152 1419 c 1,24,-1
 152 1452 l 1,25,-1
 629 1452 l 1,26,-1
 629 1419 l 1,27,28
 527 1418 527 1418 498 1358 c 128,-1,29
 469 1298 469 1298 469 1202 c 2,30,-1
 469 389 l 2,31,32
 469 336 469 336 480.5 278.5 c 128,-1,33
 492 221 492 221 534.5 164 c 128,-1,34
 577 107 577 107 670 68 c 128,-1,35
 763 29 763 29 915 29 c 1,36,37
 1112 35 1112 35 1210 111.5 c 128,-1,38
 1308 188 1308 188 1335 285 c 128,-1,39
 1362 382 1362 382 1362 494 c 2,40,-1
 1362 1212 l 2,41,42
 1362 1316 1362 1316 1332.5 1365 c 128,-1,43
 1303 1414 1303 1414 1202 1419 c 1,0,-1
EndSplineSet
Validated: 1
EndChar

StartChar: V
Encoding: 86 86 57
Width: 1540
Flags: W
LayerCount: 3
Fore
SplineSet
813 197 m 1,0,-1
 1186 1180 l 2,1,2
 1209 1244 1209 1244 1212 1274 c 0,3,4
 1212 1357 1212 1357 1168.5 1390 c 128,-1,5
 1125 1423 1125 1423 1069 1425 c 1,6,-1
 1069 1452 l 1,7,-1
 1470 1452 l 1,8,-1
 1470 1425 l 1,9,10
 1395 1416 1395 1416 1352 1378.5 c 128,-1,11
 1309 1341 1309 1341 1280 1264 c 2,12,-1
 797 -29 l 1,13,-1
 721 -29 l 1,14,-1
 281 1225 l 2,15,16
 249 1317 249 1317 209.5 1367 c 128,-1,17
 170 1417 170 1417 70 1417 c 1,18,-1
 70 1452 l 1,19,-1
 522 1452 l 1,20,-1
 522 1425 l 1,21,22
 506 1425 506 1425 500 1423 c 0,23,24
 483 1423 483 1423 475 1419 c 0,25,26
 454 1417 454 1417 433.5 1401.5 c 128,-1,27
 413 1386 413 1386 412 1354 c 0,28,29
 412 1328 412 1328 424 1282 c 1,30,-1
 813 197 l 1,0,-1
EndSplineSet
Validated: 1
EndChar

StartChar: W
Encoding: 87 87 58
Width: 2085
Flags: W
LayerCount: 3
Fore
SplineSet
1065 868 m 1,0,-1
 778 -29 l 1,1,-1
 686 -29 l 1,2,-1
 305 1184 l 2,3,4
 277 1269 277 1269 251.5 1317 c 128,-1,5
 226 1365 226 1365 186.5 1390.5 c 128,-1,6
 147 1416 147 1416 82 1419 c 1,7,-1
 82 1452 l 1,8,-1
 532 1452 l 1,9,-1
 532 1419 l 1,10,11
 494 1417 494 1417 467.5 1394.5 c 128,-1,12
 441 1372 441 1372 436 1333 c 1,13,14
 436 1286 436 1286 463 1190 c 2,15,-1
 784 201 l 1,16,-1
 1036 973 l 1,17,-1
 963 1219 l 2,18,19
 933 1312 933 1312 897 1365.5 c 128,-1,20
 861 1419 861 1419 768 1419 c 1,21,-1
 768 1452 l 1,22,-1
 1225 1452 l 1,23,-1
 1225 1419 l 1,24,25
 1154 1409 1154 1409 1130 1380.5 c 128,-1,26
 1106 1352 1106 1352 1106 1288 c 1,27,28
 1114 1241 1114 1241 1126 1208 c 2,29,-1
 1430 201 l 1,30,-1
 1733 1106 l 2,31,32
 1739 1128 1739 1128 1743 1141.5 c 128,-1,33
 1747 1155 1747 1155 1751 1171 c 0,34,35
 1767 1229 1767 1229 1774 1257 c 0,36,37
 1778 1276 1778 1276 1778 1311 c 0,38,39
 1774 1351 1774 1351 1749 1385 c 128,-1,40
 1724 1419 1724 1419 1663 1419 c 1,41,-1
 1663 1452 l 1,42,-1
 2013 1452 l 1,43,-1
 2013 1419 l 1,44,45
 1922 1419 1922 1419 1870 1288 c 0,46,47
 1857 1262 1857 1262 1837 1212 c 0,48,49
 1830 1196 1830 1196 1817 1155 c 2,50,-1
 1423 -29 l 1,51,-1
 1331 -29 l 1,52,-1
 1065 868 l 1,0,-1
EndSplineSet
Validated: 1
EndChar

StartChar: X
Encoding: 88 88 59
Width: 1497
Flags: W
LayerCount: 3
Fore
SplineSet
772 877 m 1,0,-1
 997 1219 l 2,1,2
 1029 1264 1029 1264 1041 1286.5 c 128,-1,3
 1053 1309 1053 1309 1053 1337 c 0,4,5
 1047 1396 1047 1396 989 1413 c 0,6,7
 983 1415 983 1415 970.5 1416.5 c 128,-1,8
 958 1418 958 1418 948 1419 c 2,9,-1
 928 1419 l 1,10,-1
 928 1452 l 1,11,-1
 1343 1452 l 1,12,-1
 1343 1419 l 1,13,14
 1284 1410 1284 1410 1241.5 1389 c 128,-1,15
 1199 1368 1199 1368 1170 1341.5 c 128,-1,16
 1141 1315 1141 1315 1117 1282 c 128,-1,17
 1093 1249 1093 1249 1081 1231 c 2,18,-1
 807 823 l 1,19,-1
 1208 158 l 2,20,21
 1243 103 1243 103 1285 71 c 128,-1,22
 1327 39 1327 39 1401 29 c 1,23,-1
 1401 0 l 1,24,-1
 909 0 l 1,25,-1
 909 29 l 1,26,27
 927 29 927 29 948 35 c 1,28,29
 980 38 980 38 997 53 c 0,30,31
 1023 71 1023 71 1026 92 c 0,32,33
 1026 114 1026 114 1019 137 c 128,-1,34
 1012 160 1012 160 999 186.5 c 128,-1,35
 986 213 986 213 983 219 c 2,36,-1
 709 680 l 1,37,-1
 414 231 l 1,38,39
 383 198 383 198 375 145 c 1,40,41
 375 35 375 35 498 29 c 1,42,-1
 498 0 l 1,43,-1
 86 0 l 1,44,-1
 86 29 l 1,45,46
 156 39 156 39 206.5 76 c 128,-1,47
 257 113 257 113 284.5 150.5 c 128,-1,48
 312 188 312 188 346 242 c 2,49,-1
 676 731 l 1,50,-1
 362 1257 l 2,51,52
 323 1326 323 1326 275.5 1372 c 128,-1,53
 228 1418 228 1418 150 1419 c 1,54,-1
 150 1452 l 1,55,-1
 612 1452 l 1,56,-1
 612 1419 l 1,57,58
 517 1416 517 1416 506 1374 c 1,59,-1
 506 1333 l 1,60,61
 513 1319 513 1319 518 1311 c 128,-1,62
 523 1303 523 1303 526 1294 c 0,63,64
 529 1288 529 1288 534 1281 c 128,-1,65
 539 1274 539 1274 545 1264 c 2,66,-1
 772 877 l 1,0,-1
EndSplineSet
Validated: 1
EndChar

StartChar: Y
Encoding: 89 89 60
Width: 1403
Flags: W
LayerCount: 3
Fore
SplineSet
657 612 m 1,0,-1
 299 1260 l 2,1,2
 264 1330 264 1330 219 1374.5 c 128,-1,3
 174 1419 174 1419 86 1419 c 1,4,-1
 86 1452 l 1,5,-1
 571 1452 l 1,6,-1
 571 1419 l 1,7,-1
 549 1419 l 1,8,9
 511 1415 511 1415 504 1411 c 0,10,11
 461 1396 461 1396 455 1346 c 0,12,13
 455 1333 455 1333 463 1321 c 1,14,15
 465 1304 465 1304 477 1280 c 0,16,17
 484 1270 484 1270 490.5 1256.5 c 128,-1,18
 497 1243 497 1243 504 1231 c 2,19,-1
 797 698 l 1,20,-1
 1036 1214 l 2,21,22
 1077 1301 1077 1301 1077 1366 c 1,23,24
 1072 1387 1072 1387 1048.5 1403 c 128,-1,25
 1025 1419 1025 1419 985 1419 c 1,26,-1
 985 1452 l 1,27,-1
 1339 1452 l 1,28,-1
 1339 1419 l 1,29,30
 1273 1412 1273 1412 1233 1390 c 128,-1,31
 1193 1368 1193 1368 1164.5 1328.5 c 128,-1,32
 1136 1289 1136 1289 1100 1212 c 2,33,-1
 817 606 l 1,34,-1
 817 248 l 2,35,36
 817 145 817 145 845.5 87.5 c 128,-1,37
 874 30 874 30 973 29 c 1,38,-1
 973 0 l 1,39,-1
 498 0 l 1,40,-1
 498 29 l 1,41,42
 571 30 571 30 605.5 64.5 c 128,-1,43
 640 99 640 99 648.5 144 c 128,-1,44
 657 189 657 189 657 248 c 2,45,-1
 657 612 l 1,0,-1
EndSplineSet
Validated: 1
EndChar

StartChar: Z
Encoding: 90 90 61
Width: 1360
Flags: W
LayerCount: 3
Fore
SplineSet
195 1161 m 1,0,-1
 158 1161 l 1,1,-1
 260 1452 l 1,2,-1
 1235 1452 l 1,3,-1
 328 57 l 1,4,-1
 573 57 l 2,5,6
 1056 57 1056 57 1194 309 c 1,7,-1
 1235 309 l 1,8,-1
 1137 0 l 1,9,-1
 88 0 l 1,10,-1
 1001 1395 l 1,11,-1
 745 1395 l 2,12,13
 652 1395 652 1395 560 1382 c 128,-1,14
 468 1369 468 1369 364.5 1317.5 c 128,-1,15
 261 1266 261 1266 195 1161 c 1,0,-1
EndSplineSet
Validated: 1
EndChar

StartChar: bracketleft
Encoding: 91 91 62
Width: 543
Flags: W
LayerCount: 3
Fore
SplineSet
53 -463 m 1,0,-1
 53 1481 l 1,1,-1
 401 1481 l 1,2,-1
 401 1430 l 1,3,-1
 360 1430 l 1,4,-1
 315 1430 l 2,5,6
 241 1430 241 1430 222 1403.5 c 128,-1,7
 203 1377 203 1377 203 1317 c 2,8,-1
 203 -299 l 2,9,10
 203 -361 203 -361 222.5 -387 c 128,-1,11
 242 -413 242 -413 315 -414 c 2,12,-1
 360 -414 l 1,13,-1
 401 -414 l 1,14,-1
 401 -463 l 1,15,-1
 53 -463 l 1,0,-1
EndSplineSet
Validated: 1
EndChar

StartChar: backslash
Encoding: 92 92 63
Width: 963
Flags: W
LayerCount: 3
Fore
SplineSet
881 -344 m 1,0,-1
 0 1739 l 1,1,-1
 86 1774 l 1,2,-1
 963 -309 l 1,3,-1
 881 -344 l 1,0,-1
EndSplineSet
Validated: 1
EndChar

StartChar: bracketright
Encoding: 93 93 64
Width: 543
Flags: W
LayerCount: 3
Fore
SplineSet
487 -463 m 1,0,-1
 139 -463 l 1,1,-1
 139 -414 l 1,2,-1
 180 -414 l 1,3,-1
 229 -414 l 2,4,5
 302 -413 302 -413 321 -387.5 c 128,-1,6
 340 -362 340 -362 340 -299 c 2,7,-1
 340 1317 l 2,8,9
 340 1373 340 1373 321.5 1401.5 c 128,-1,10
 303 1430 303 1430 229 1430 c 2,11,-1
 180 1430 l 1,12,-1
 139 1430 l 1,13,-1
 139 1481 l 1,14,-1
 487 1481 l 1,15,-1
 487 -463 l 1,0,-1
EndSplineSet
Validated: 1
EndChar

StartChar: asciicircum
Encoding: 94 94 65
Width: 752
Flags: W
LayerCount: 3
Fore
SplineSet
375 1264 m 1,0,-1
 207 1098 l 1,1,-1
 35 1098 l 1,2,-1
 375 1440 l 1,3,-1
 717 1098 l 1,4,-1
 545 1098 l 1,5,-1
 375 1264 l 1,0,-1
EndSplineSet
Validated: 1
EndChar

StartChar: underscore
Encoding: 95 95 66
Width: 1200
Flags: W
LayerCount: 3
Fore
SplineSet
0 -403 m 1,0,-1
 0 -305 l 1,1,-1
 1200 -305 l 1,2,-1
 1200 -403 l 1,3,-1
 0 -403 l 1,0,-1
EndSplineSet
Validated: 1
EndChar

StartChar: grave
Encoding: 96 96 67
Width: 680
Flags: W
LayerCount: 3
Fore
SplineSet
395 1481 m 1,0,-1
 414 1454 l 1,1,2
 318 1371 318 1371 303 1266 c 1,3,4
 303 1190 303 1190 350 1178 c 0,5,6
 354 1176 354 1176 363 1174.5 c 128,-1,7
 372 1173 372 1173 383 1171 c 0,8,9
 405 1166 405 1166 424 1144 c 128,-1,10
 443 1122 443 1122 446 1081 c 0,11,12
 446 1033 446 1033 419.5 1001 c 128,-1,13
 393 969 393 969 340 969 c 0,14,15
 275 969 275 969 241 1022 c 128,-1,16
 207 1075 207 1075 207 1149 c 0,17,18
 209 1235 209 1235 252 1318.5 c 128,-1,19
 295 1402 295 1402 395 1481 c 1,0,-1
EndSplineSet
Validated: 1
EndChar

StartChar: a
Encoding: 97 97 68
Width: 1178
Flags: W
LayerCount: 3
Fore
SplineSet
897 739 m 2,0,-1
 899 150 l 1,1,-1
 899 121 l 2,2,3
 901 112 901 112 902.5 103.5 c 128,-1,4
 904 95 904 95 905.5 87.5 c 128,-1,5
 907 80 907 80 911 70 c 0,6,7
 928 20 928 20 1018 20 c 1,8,-1
 1018 0 l 1,9,-1
 772 0 l 1,10,-1
 772 94 l 1,11,12
 631 25 631 25 549 2.5 c 128,-1,13
 467 -20 467 -20 420 -20 c 0,14,15
 297 -20 297 -20 241.5 50.5 c 128,-1,16
 186 121 186 121 186 203 c 0,17,18
 189 289 189 289 240.5 346 c 128,-1,19
 292 403 292 403 369 446 c 0,20,21
 417 474 417 474 465.5 495.5 c 128,-1,22
 514 517 514 517 585 546 c 128,-1,23
 656 575 656 575 676 584 c 0,24,25
 688 588 688 588 714 599.5 c 128,-1,26
 740 611 740 611 772 625 c 1,27,-1
 772 676 l 1,28,-1
 772 762 l 1,29,30
 757 934 757 934 596 934 c 1,31,32
 494 929 494 929 456 878 c 128,-1,33
 418 827 418 827 418 788 c 0,34,35
 416 777 416 777 415 764 c 128,-1,36
 414 751 414 751 412 733 c 0,37,38
 393 666 393 666 326 666 c 0,39,40
 298 666 298 666 275 686 c 128,-1,41
 252 706 252 706 252 745 c 0,42,43
 252 834 252 834 358.5 906.5 c 128,-1,44
 465 979 465 979 631 979 c 1,45,46
 795 975 795 975 846 900 c 128,-1,47
 897 825 897 825 897 739 c 2,0,-1
772 561 m 1,48,49
 694 532 694 532 617.5 498 c 128,-1,50
 541 464 541 464 477.5 420.5 c 128,-1,51
 414 377 414 377 376 321.5 c 128,-1,52
 338 266 338 266 338 201 c 0,53,54
 340 144 340 144 370.5 96.5 c 128,-1,55
 401 49 401 49 487 49 c 0,56,57
 545 49 545 49 620 82 c 128,-1,58
 695 115 695 115 772 162 c 1,59,-1
 772 561 l 1,48,49
EndSplineSet
Validated: 1
EndChar

StartChar: b
Encoding: 98 98 69
Width: 1178
Flags: W
LayerCount: 3
Fore
SplineSet
385 846 m 1,0,1
 515 979 515 979 680 979 c 0,2,3
 788 978 788 978 877 917 c 128,-1,4
 966 856 966 856 1017.5 747.5 c 128,-1,5
 1069 639 1069 639 1069 506 c 0,6,7
 1067 373 1067 373 1016.5 252 c 128,-1,8
 966 131 966 131 868.5 55.5 c 128,-1,9
 771 -20 771 -20 637 -20 c 0,10,11
 565 -20 565 -20 500 3.5 c 128,-1,12
 435 27 435 27 369 86 c 1,13,-1
 299 -20 l 1,14,-1
 260 -20 l 1,15,-1
 254 1264 l 2,16,17
 254 1314 254 1314 229.5 1335 c 128,-1,18
 205 1356 205 1356 150 1356 c 1,19,-1
 150 1382 l 1,20,21
 280 1414 280 1414 334 1497 c 1,22,-1
 385 1497 l 1,23,-1
 385 846 l 1,0,1
389 225 m 2,24,25
 389 170 389 170 435 99.5 c 128,-1,26
 481 29 481 29 631 29 c 0,27,28
 726 32 726 32 814.5 119.5 c 128,-1,29
 903 207 903 207 903 494 c 0,30,31
 900 609 900 609 875.5 692 c 128,-1,32
 851 775 851 775 813.5 824 c 128,-1,33
 776 873 776 873 731.5 894 c 128,-1,34
 687 915 687 915 635 915 c 0,35,36
 480 915 480 915 434.5 839.5 c 128,-1,37
 389 764 389 764 389 694 c 2,38,-1
 389 225 l 2,24,25
EndSplineSet
Validated: 1
EndChar

StartChar: c
Encoding: 99 99 70
Width: 997
Flags: W
LayerCount: 3
Fore
SplineSet
911 152 m 1,0,1
 731 -20 731 -20 557 -20 c 0,2,3
 478 -20 478 -20 400 15 c 128,-1,4
 322 50 322 50 260.5 113.5 c 128,-1,5
 199 177 199 177 160 268 c 128,-1,6
 121 359 121 359 117 469 c 0,7,8
 117 567 117 567 149.5 660 c 128,-1,9
 182 753 182 753 240 824.5 c 128,-1,10
 298 896 298 896 377.5 937.5 c 128,-1,11
 457 979 457 979 545 979 c 0,12,13
 632 979 632 979 705 943.5 c 128,-1,14
 778 908 778 908 819 850.5 c 128,-1,15
 860 793 860 793 860 731 c 1,16,17
 856 694 856 694 832 672.5 c 128,-1,18
 808 651 808 651 778 651 c 0,19,20
 727 652 727 652 708 687.5 c 128,-1,21
 689 723 689 723 682 778 c 1,22,23
 682 813 682 813 676 831 c 0,24,25
 665 857 665 857 635 878.5 c 128,-1,26
 605 900 605 900 545 903 c 0,27,28
 400 903 400 903 333 787.5 c 128,-1,29
 266 672 266 672 266 504 c 1,30,31
 272 430 272 430 302.5 341.5 c 128,-1,32
 333 253 333 253 396.5 179.5 c 128,-1,33
 460 106 460 106 557 82 c 0,34,35
 588 76 588 76 621 76 c 0,36,37
 757 76 757 76 868 190 c 1,38,-1
 911 152 l 1,0,1
EndSplineSet
Validated: 1
EndChar

StartChar: d
Encoding: 100 100 71
Width: 1178
Flags: W
LayerCount: 3
Fore
SplineSet
705 1356 m 1,0,-1
 705 1382 l 1,1,2
 827 1413 827 1413 877 1497 c 1,3,-1
 940 1497 l 1,4,-1
 940 145 l 2,5,6
 940 77 940 77 968 48.5 c 128,-1,7
 996 20 996 20 1059 20 c 1,8,-1
 1059 0 l 1,9,-1
 803 0 l 1,10,-1
 803 117 l 1,11,12
 745 50 745 50 687.5 15.5 c 128,-1,13
 630 -19 630 -19 545 -20 c 0,14,15
 447 -20 447 -20 362 31.5 c 128,-1,16
 277 83 277 83 224.5 186.5 c 128,-1,17
 172 290 172 290 172 434 c 0,18,19
 172 661 172 661 274.5 820 c 128,-1,20
 377 979 377 979 563 979 c 0,21,22
 666 979 666 979 733 938 c 0,23,24
 751 931 751 931 756 926 c 0,25,26
 763 923 763 923 770 918.5 c 128,-1,27
 777 914 777 914 784 909 c 0,28,29
 790 906 790 906 795 902 c 128,-1,30
 800 898 800 898 803 897 c 2,31,-1
 803 1264 l 2,32,33
 803 1300 803 1300 787.5 1323.5 c 128,-1,34
 772 1347 772 1347 752 1354 c 0,35,36
 739 1356 739 1356 717 1356 c 2,37,-1
 705 1356 l 1,0,-1
803 715 m 2,38,39
 803 817 803 817 740.5 872.5 c 128,-1,40
 678 928 678 928 573 928 c 0,41,42
 521 928 521 928 465.5 899 c 128,-1,43
 410 870 410 870 366 773 c 128,-1,44
 322 676 322 676 322 492 c 0,45,46
 322 291 322 291 392 169.5 c 128,-1,47
 462 48 462 48 573 43 c 0,48,49
 635 43 635 43 688 74 c 128,-1,50
 741 105 741 105 772 156.5 c 128,-1,51
 803 208 803 208 803 266 c 2,52,-1
 803 715 l 2,38,39
EndSplineSet
Validated: 1
EndChar

StartChar: e
Encoding: 101 101 72
Width: 995
Flags: W
LayerCount: 3
Fore
SplineSet
897 174 m 1,0,-1
 915 158 l 1,1,2
 842 84 842 84 773.5 44.5 c 128,-1,3
 705 5 705 5 650.5 -7.5 c 128,-1,4
 596 -20 596 -20 539 -20 c 0,5,6
 450 -17 450 -17 371.5 25 c 128,-1,7
 293 67 293 67 237 138 c 128,-1,8
 181 209 181 209 150 297.5 c 128,-1,9
 119 386 119 386 117 481 c 0,10,11
 117 632 117 632 175 747.5 c 128,-1,12
 233 863 233 863 326.5 923 c 128,-1,13
 420 983 420 983 522 983 c 0,14,15
 592 982 592 982 656.5 949.5 c 128,-1,16
 721 917 721 917 773.5 854.5 c 128,-1,17
 826 792 826 792 858 709 c 128,-1,18
 890 626 890 626 897 528 c 1,19,-1
 266 528 l 1,20,21
 272 283 272 283 377 163 c 128,-1,22
 482 43 482 43 618 43 c 1,23,24
 746 48 746 48 897 174 c 1,0,-1
752 578 m 1,25,26
 749 656 749 656 722.5 738.5 c 128,-1,27
 696 821 696 821 643.5 875.5 c 128,-1,28
 591 930 591 930 512 934 c 0,29,30
 441 934 441 934 394 905 c 128,-1,31
 347 876 347 876 319 824.5 c 128,-1,32
 291 773 291 773 279 712 c 128,-1,33
 267 651 267 651 264 578 c 1,34,-1
 752 578 l 1,25,26
EndSplineSet
Validated: 1
EndChar

StartChar: f
Encoding: 102 102 73
Width: 723
Flags: W
LayerCount: 3
Fore
SplineSet
266 928 m 1,0,-1
 123 928 l 1,1,-1
 123 977 l 1,2,-1
 266 977 l 1,3,4
 266 1063 266 1063 264 1120 c 0,5,6
 259 1160 259 1160 248 1223 c 0,7,8
 246 1251 246 1251 246 1305 c 1,9,10
 255 1384 255 1384 318 1439 c 128,-1,11
 381 1494 381 1494 463 1497 c 0,12,13
 534 1497 534 1497 583 1465.5 c 128,-1,14
 632 1434 632 1434 635 1391 c 0,15,16
 635 1362 635 1362 614 1341.5 c 128,-1,17
 593 1321 593 1321 557 1321 c 256,18,19
 521 1321 521 1321 492 1337 c 0,20,21
 482 1341 482 1341 465.5 1353 c 128,-1,22
 449 1365 449 1365 446 1366 c 0,23,24
 431 1373 431 1373 408 1383 c 128,-1,25
 385 1393 385 1393 375 1395 c 0,26,27
 349 1395 349 1395 328 1375 c 128,-1,28
 307 1355 307 1355 303 1311 c 1,29,30
 303 1242 303 1242 335 1143.5 c 128,-1,31
 367 1045 367 1045 403 977 c 1,32,-1
 557 977 l 1,33,-1
 557 928 l 1,34,-1
 403 928 l 1,35,-1
 403 145 l 2,36,37
 403 90 403 90 426 55 c 128,-1,38
 449 20 449 20 522 20 c 1,39,-1
 522 0 l 1,40,-1
 150 0 l 1,41,-1
 150 20 l 1,42,43
 236 20 236 20 258 70 c 0,44,45
 262 78 262 78 266 121 c 1,46,-1
 266 145 l 1,47,-1
 266 928 l 1,0,-1
EndSplineSet
Validated: 1
EndChar

StartChar: g
Encoding: 103 103 74
Width: 1315
Flags: W
LayerCount: 3
Fore
SplineSet
350 334 m 1,0,1
 213 448 213 448 213 612 c 0,2,3
 213 675 213 675 237 741 c 128,-1,4
 261 807 261 807 310.5 861 c 128,-1,5
 360 915 360 915 435.5 947 c 128,-1,6
 511 979 511 979 614 979 c 0,7,8
 668 979 668 979 722 970 c 128,-1,9
 776 961 776 961 832 935 c 128,-1,10
 888 909 888 909 940 860 c 1,11,12
 988 925 988 925 1040.5 960 c 128,-1,13
 1093 995 1093 995 1143 997 c 0,14,15
 1184 997 1184 997 1213 976.5 c 128,-1,16
 1242 956 1242 956 1245 918 c 0,17,18
 1245 879 1245 879 1225.5 854 c 128,-1,19
 1206 829 1206 829 1165 829 c 0,20,21
 1132 829 1132 829 1092 858 c 0,22,23
 1068 871 1068 871 1059 874 c 0,24,25
 1053 877 1053 877 1036 877 c 0,26,27
 998 872 998 872 969 831 c 1,28,29
 1042 734 1042 734 1042 623 c 0,30,31
 1042 539 1042 539 1000 455.5 c 128,-1,32
 958 372 958 372 870 316 c 128,-1,33
 782 260 782 260 653 254 c 0,34,35
 572 254 572 254 515 265.5 c 128,-1,36
 458 277 458 277 401 305 c 1,37,38
 363 291 363 291 326 254 c 128,-1,39
 289 217 289 217 289 186 c 0,40,41
 290 147 290 147 330 122.5 c 128,-1,42
 370 98 370 98 435 84.5 c 128,-1,43
 500 71 500 71 561 59 c 2,44,-1
 743 29 l 2,45,46
 916 1 916 1 1014.5 -45 c 128,-1,47
 1113 -91 1113 -91 1120 -197 c 1,48,49
 1120 -265 1120 -265 1078.5 -318.5 c 128,-1,50
 1037 -372 1037 -372 964.5 -408.5 c 128,-1,51
 892 -445 892 -445 803 -463 c 128,-1,52
 714 -481 714 -481 618 -481 c 0,53,54
 376 -474 376 -474 277 -403.5 c 128,-1,55
 178 -333 178 -333 178 -242 c 1,56,57
 184 -127 184 -127 350 -49 c 1,58,59
 197 27 197 27 197 145 c 0,60,61
 200 196 200 196 235 235.5 c 128,-1,62
 270 275 270 275 350 334 c 1,0,1
369 608 m 0,63,64
 372 469 372 469 445 387 c 128,-1,65
 518 305 518 305 631 305 c 0,66,67
 737 305 737 305 810 385 c 128,-1,68
 883 465 883 465 887 602 c 1,69,70
 887 754 887 754 816.5 843.5 c 128,-1,71
 746 933 746 933 637 938 c 1,72,73
 521 938 521 938 445 855.5 c 128,-1,74
 369 773 369 773 369 608 c 0,63,64
469 -78 m 2,75,76
 455 -76 455 -76 447 -75 c 128,-1,77
 439 -74 439 -74 433 -73 c 128,-1,78
 427 -72 427 -72 414 -72 c 0,79,80
 375 -81 375 -81 332.5 -126.5 c 128,-1,81
 290 -172 290 -172 283 -223 c 1,82,83
 283 -292 283 -292 335 -339 c 128,-1,84
 387 -386 387 -386 470 -409 c 128,-1,85
 553 -432 553 -432 635 -434 c 0,86,87
 728 -434 728 -434 809.5 -412 c 128,-1,88
 891 -390 891 -390 942.5 -353.5 c 128,-1,89
 994 -317 994 -317 1001 -274 c 1,90,91
 1001 -214 1001 -214 967 -186 c 1,92,93
 937 -167 937 -167 883 -156 c 0,94,95
 847 -145 847 -145 840 -145 c 2,96,-1
 469 -78 l 2,75,76
EndSplineSet
Validated: 1
EndChar

StartChar: h
Encoding: 104 104 75
Width: 1178
Flags: W
LayerCount: 3
Fore
SplineSet
362 842 m 1,0,1
 469 912 469 912 557 945 c 128,-1,2
 645 978 645 978 745 979 c 0,3,4
 841 979 841 979 894.5 953 c 128,-1,5
 948 927 948 927 948 842 c 2,6,-1
 948 145 l 2,7,8
 948 75 948 75 975.5 47.5 c 128,-1,9
 1003 20 1003 20 1065 20 c 1,10,-1
 1065 0 l 1,11,-1
 692 0 l 1,12,-1
 692 20 l 1,13,14
 754 20 754 20 781.5 47.5 c 128,-1,15
 809 75 809 75 809 145 c 2,16,-1
 809 788 l 2,17,18
 809 843 809 843 786 873.5 c 128,-1,19
 763 904 763 904 688 905 c 0,20,21
 634 905 634 905 573.5 888 c 128,-1,22
 513 871 513 871 457.5 842.5 c 128,-1,23
 402 814 402 814 362 780 c 1,24,-1
 362 145 l 2,25,26
 362 77 362 77 390 48.5 c 128,-1,27
 418 20 418 20 481 20 c 1,28,-1
 481 0 l 1,29,-1
 109 0 l 1,30,-1
 109 20 l 1,31,32
 191 20 191 20 213 70 c 1,33,34
 223 82 223 82 223 121 c 0,35,36
 225 127 225 127 225 145 c 2,37,-1
 225 1264 l 2,38,39
 225 1315 225 1315 202.5 1335.5 c 128,-1,40
 180 1356 180 1356 127 1356 c 1,41,-1
 127 1382 l 1,42,43
 204 1402 204 1402 243 1435 c 128,-1,44
 282 1468 282 1468 299 1497 c 1,45,-1
 362 1497 l 1,46,-1
 362 842 l 1,0,1
EndSplineSet
Validated: 1
EndChar

StartChar: i
Encoding: 105 105 76
Width: 680
Flags: W
LayerCount: 3
Fore
SplineSet
172 852 m 1,0,-1
 172 874 l 1,1,2
 247 895 247 895 288 930 c 128,-1,3
 329 965 329 965 344 991 c 1,4,-1
 408 991 l 1,5,-1
 408 145 l 2,6,7
 408 77 408 77 436 48.5 c 128,-1,8
 464 20 464 20 526 20 c 1,9,-1
 526 0 l 1,10,-1
 152 0 l 1,11,-1
 152 20 l 1,12,13
 236 20 236 20 258 70 c 0,14,15
 261 75 261 75 270 121 c 1,16,-1
 270 145 l 1,17,-1
 270 760 l 2,18,19
 270 811 270 811 246 831.5 c 128,-1,20
 222 852 222 852 172 852 c 1,0,-1
238 1286 m 0,21,22
 238 1324 238 1324 267 1355 c 128,-1,23
 296 1386 296 1386 338 1389 c 0,24,25
 379 1389 379 1389 409.5 1358.5 c 128,-1,26
 440 1328 440 1328 440 1286 c 0,27,28
 440 1241 440 1241 409.5 1212.5 c 128,-1,29
 379 1184 379 1184 338 1184 c 256,30,31
 297 1184 297 1184 267.5 1214.5 c 128,-1,32
 238 1245 238 1245 238 1286 c 0,21,22
EndSplineSet
Validated: 1
EndChar

StartChar: j
Encoding: 106 106 77
Width: 723
Flags: W
LayerCount: 3
Fore
SplineSet
209 858 m 1,0,-1
 209 881 l 1,1,2
 328 911 328 911 385 997 c 1,3,-1
 446 997 l 1,4,-1
 446 -78 l 2,5,6
 446 -181 446 -181 432 -266.5 c 128,-1,7
 418 -352 418 -352 362.5 -418 c 128,-1,8
 307 -484 307 -484 197 -487 c 0,9,10
 133 -487 133 -487 93 -454 c 128,-1,11
 53 -421 53 -421 53 -379 c 0,12,13
 53 -342 53 -342 77.5 -320.5 c 128,-1,14
 102 -299 102 -299 137 -299 c 0,15,16
 196 -299 196 -299 231 -356 c 0,17,18
 234 -358 234 -358 238.5 -365 c 128,-1,19
 243 -372 243 -372 248 -379 c 0,20,21
 257 -395 257 -395 274 -397 c 0,22,23
 301 -397 301 -397 316.5 -380.5 c 128,-1,24
 332 -364 332 -364 332 -309 c 0,25,26
 332 -296 332 -296 330 -272 c 128,-1,27
 328 -248 328 -248 328 -238 c 0,28,29
 325 -194 325 -194 317 -156 c 0,30,31
 316 -147 316 -147 315.5 -139.5 c 128,-1,32
 315 -132 315 -132 313.5 -122 c 128,-1,33
 312 -112 312 -112 311 -104 c 0,34,35
 311 -89 311 -89 310.5 -79.5 c 128,-1,36
 310 -70 310 -70 309 -59 c 2,37,-1
 309 766 l 2,38,39
 309 817 309 817 285.5 837.5 c 128,-1,40
 262 858 262 858 209 858 c 1,0,-1
276 1286 m 0,41,42
 276 1326 276 1326 305 1357.5 c 128,-1,43
 334 1389 334 1389 379 1389 c 0,44,45
 421 1389 421 1389 451 1357 c 128,-1,46
 481 1325 481 1325 481 1286 c 0,47,48
 481 1244 481 1244 451 1214 c 128,-1,49
 421 1184 421 1184 379 1184 c 0,50,51
 334 1184 334 1184 305 1214 c 128,-1,52
 276 1244 276 1244 276 1286 c 0,41,42
EndSplineSet
Validated: 1
EndChar

StartChar: k
Encoding: 107 107 78
Width: 1133
Flags: W
LayerCount: 3
Fore
SplineSet
129 1356 m 1,0,-1
 129 1382 l 1,1,2
 208 1402 208 1402 249 1436.5 c 128,-1,3
 290 1471 290 1471 303 1497 c 1,4,-1
 367 1497 l 1,5,-1
 367 418 l 1,6,-1
 711 756 l 2,7,8
 787 832 787 832 791 874 c 0,9,10
 791 904 791 904 767.5 919 c 128,-1,11
 744 934 744 934 711 934 c 1,12,-1
 711 956 l 1,13,-1
 1036 956 l 1,14,-1
 1036 934 l 1,15,16
 965 928 965 928 858 831 c 0,17,18
 842 819 842 819 809 788 c 0,19,20
 803 781 803 781 794.5 774 c 128,-1,21
 786 767 786 767 780 762 c 2,22,-1
 631 608 l 1,23,-1
 911 158 l 2,24,25
 931 131 931 131 940 115 c 0,26,27
 968 81 968 81 983 66 c 0,28,29
 1024 20 1024 20 1071 20 c 1,30,-1
 1071 0 l 1,31,-1
 711 0 l 1,32,-1
 711 20 l 1,33,34
 795 20 795 20 795 94 c 0,35,36
 793 103 793 103 784 118 c 128,-1,37
 775 133 775 133 768 145 c 2,38,-1
 535 516 l 1,39,-1
 367 346 l 1,40,-1
 367 145 l 2,41,42
 367 75 367 75 394 47.5 c 128,-1,43
 421 20 421 20 483 20 c 1,44,-1
 483 0 l 1,45,-1
 111 0 l 1,46,-1
 111 20 l 1,47,48
 193 20 193 20 219 70 c 0,49,50
 219 71 219 71 229 121 c 1,51,-1
 229 145 l 1,52,-1
 229 1264 l 2,53,54
 229 1315 229 1315 206.5 1335.5 c 128,-1,55
 184 1356 184 1356 129 1356 c 1,0,-1
EndSplineSet
Validated: 1
EndChar

StartChar: l
Encoding: 108 108 79
Width: 680
Flags: W
LayerCount: 3
Fore
SplineSet
168 1356 m 1,0,-1
 168 1382 l 1,1,2
 246 1402 246 1402 288 1437.5 c 128,-1,3
 330 1473 330 1473 340 1497 c 1,4,-1
 403 1497 l 1,5,-1
 403 145 l 2,6,7
 403 77 403 77 431 48.5 c 128,-1,8
 459 20 459 20 522 20 c 1,9,-1
 522 0 l 1,10,-1
 150 0 l 1,11,-1
 150 20 l 1,12,13
 232 20 232 20 258 70 c 0,14,15
 262 78 262 78 266 121 c 1,16,-1
 266 145 l 1,17,-1
 266 1264 l 2,18,19
 266 1315 266 1315 244 1335.5 c 128,-1,20
 222 1356 222 1356 168 1356 c 1,0,-1
EndSplineSet
Validated: 1
EndChar

StartChar: m
Encoding: 109 109 80
Width: 1812
Flags: W
LayerCount: 3
Fore
SplineSet
375 854 m 1,0,1
 489 914 489 914 579.5 944.5 c 128,-1,2
 670 975 670 975 774 979 c 0,3,4
 875 979 875 979 922.5 951.5 c 128,-1,5
 970 924 970 924 977 854 c 1,6,7
 1087 913 1087 913 1178.5 944 c 128,-1,8
 1270 975 1270 975 1374 979 c 0,9,10
 1478 979 1478 979 1527.5 949 c 128,-1,11
 1577 919 1577 919 1577 842 c 2,12,-1
 1577 145 l 2,13,14
 1577 77 1577 77 1604.5 48.5 c 128,-1,15
 1632 20 1632 20 1694 20 c 1,16,-1
 1694 0 l 1,17,-1
 1321 0 l 1,18,-1
 1321 20 l 1,19,20
 1408 20 1408 20 1425 70 c 1,21,22
 1436 89 1436 89 1436 121 c 2,23,-1
 1436 145 l 1,24,-1
 1436 788 l 2,25,26
 1436 842 1436 842 1414.5 873 c 128,-1,27
 1393 904 1393 904 1317 905 c 0,28,29
 1170 905 1170 905 977 795 c 1,30,-1
 977 145 l 2,31,32
 977 79 977 79 1004 49.5 c 128,-1,33
 1031 20 1031 20 1094 20 c 1,34,-1
 1094 0 l 1,35,-1
 721 0 l 1,36,-1
 721 20 l 1,37,38
 792 20 792 20 814 53 c 128,-1,39
 836 86 836 86 836 145 c 2,40,-1
 836 788 l 2,41,42
 836 842 836 842 815 873 c 128,-1,43
 794 904 794 904 717 905 c 0,44,45
 572 905 572 905 375 795 c 1,46,-1
 375 145 l 1,47,-1
 375 121 l 2,48,49
 377 112 377 112 380.5 92 c 128,-1,50
 384 72 384 72 385 70 c 0,51,52
 409 20 409 20 494 20 c 1,53,-1
 494 0 l 1,54,-1
 121 0 l 1,55,-1
 121 20 l 1,56,57
 166 20 166 20 192 35 c 128,-1,58
 218 50 218 50 225 70 c 1,59,60
 236 82 236 82 236 121 c 0,61,62
 237 127 237 127 237.5 132 c 128,-1,63
 238 137 238 137 238 145 c 2,64,-1
 238 766 l 2,65,66
 238 817 238 817 213 837.5 c 128,-1,67
 188 858 188 858 137 858 c 1,68,-1
 137 881 l 1,69,70
 262 912 262 912 311 997 c 1,71,-1
 375 997 l 1,72,-1
 375 854 l 1,0,1
EndSplineSet
Validated: 1
EndChar

StartChar: n
Encoding: 110 110 81
Width: 1225
Flags: W
LayerCount: 3
Fore
SplineSet
362 842 m 1,0,1
 482 905 482 905 583 940 c 128,-1,2
 684 975 684 975 795 979 c 0,3,4
 893 979 893 979 942 950 c 128,-1,5
 991 921 991 921 991 842 c 2,6,-1
 991 145 l 2,7,8
 991 79 991 79 1019.5 49.5 c 128,-1,9
 1048 20 1048 20 1110 20 c 1,10,-1
 1110 0 l 1,11,-1
 737 0 l 1,12,-1
 737 20 l 1,13,14
 813 20 813 20 846 70 c 0,15,16
 850 78 850 78 854 121 c 1,17,-1
 854 145 l 1,18,-1
 854 788 l 2,19,20
 854 850 854 850 827 877 c 128,-1,21
 800 904 800 904 733 905 c 0,22,23
 587 905 587 905 362 780 c 1,24,-1
 362 145 l 2,25,26
 362 77 362 77 389.5 48.5 c 128,-1,27
 417 20 417 20 481 20 c 1,28,-1
 481 0 l 1,29,-1
 109 0 l 1,30,-1
 109 20 l 1,31,32
 191 20 191 20 213 70 c 1,33,34
 223 82 223 82 223 121 c 2,35,-1
 223 145 l 1,36,-1
 223 766 l 2,37,38
 223 817 223 817 198.5 837.5 c 128,-1,39
 174 858 174 858 123 858 c 1,40,-1
 123 881 l 1,41,42
 237 910 237 910 299 997 c 1,43,-1
 362 997 l 1,44,-1
 362 842 l 1,0,1
EndSplineSet
Validated: 1
EndChar

StartChar: o
Encoding: 111 111 82
Width: 1042
Flags: W
LayerCount: 3
Fore
SplineSet
98 477 m 0,0,1
 98 549 98 549 120.5 635.5 c 128,-1,2
 143 722 143 722 194.5 801 c 128,-1,3
 246 880 246 880 329.5 929.5 c 128,-1,4
 413 979 413 979 526 979 c 0,5,6
 636 979 636 979 719 929.5 c 128,-1,7
 802 880 802 880 851.5 803.5 c 128,-1,8
 901 727 901 727 924.5 640 c 128,-1,9
 948 553 948 553 948 477 c 0,10,11
 948 397 948 397 923.5 311.5 c 128,-1,12
 899 226 899 226 848 150.5 c 128,-1,13
 797 75 797 75 716 27.5 c 128,-1,14
 635 -20 635 -20 526 -20 c 0,15,16
 379 -20 379 -20 281.5 60.5 c 128,-1,17
 184 141 184 141 141 257.5 c 128,-1,18
 98 374 98 374 98 477 c 0,0,1
248 477 m 0,19,20
 248 318 248 318 301.5 166 c 128,-1,21
 355 14 355 14 522 14 c 0,22,23
 693 14 693 14 745 164.5 c 128,-1,24
 797 315 797 315 797 477 c 0,25,26
 797 638 797 638 745.5 788 c 128,-1,27
 694 938 694 938 522 938 c 0,28,29
 354 938 354 938 301 788 c 128,-1,30
 248 638 248 638 248 477 c 0,19,20
EndSplineSet
Validated: 1
EndChar

StartChar: p
Encoding: 112 112 83
Width: 1225
Flags: W
LayerCount: 3
Fore
SplineSet
338 1001 m 1,0,-1
 397 1001 l 1,1,-1
 397 858 l 1,2,-1
 412 858 l 1,3,4
 508 979 508 979 670 979 c 0,5,6
 745 977 745 977 813 945.5 c 128,-1,7
 881 914 881 914 931.5 857 c 128,-1,8
 982 800 982 800 1012 714.5 c 128,-1,9
 1042 629 1042 629 1042 524 c 0,10,11
 1042 481 1042 481 1040 459 c 0,12,13
 1027 309 1027 309 967 200.5 c 128,-1,14
 907 92 907 92 817 36 c 128,-1,15
 727 -20 727 -20 631 -20 c 0,16,17
 488 -20 488 -20 408 78 c 1,18,-1
 397 78 l 1,19,-1
 397 -322 l 2,20,21
 397 -393 397 -393 428.5 -421 c 128,-1,22
 460 -449 460 -449 532 -449 c 1,23,-1
 532 -469 l 1,24,-1
 150 -469 l 1,25,-1
 150 -449 l 1,26,27
 210 -449 210 -449 238 -420 c 128,-1,28
 266 -391 266 -391 266 -322 c 2,29,-1
 266 727 l 2,30,31
 266 800 266 800 247 829.5 c 128,-1,32
 228 859 228 859 158 860 c 1,33,-1
 158 883 l 1,34,35
 280 912 280 912 338 1001 c 1,0,-1
401 242 m 2,36,37
 401 180 401 180 465.5 116.5 c 128,-1,38
 530 53 530 53 625 53 c 0,39,40
 688 53 688 53 747 95.5 c 128,-1,41
 806 138 806 138 845 227 c 128,-1,42
 884 316 884 316 887 453 c 0,43,44
 887 627 887 627 817.5 755 c 128,-1,45
 748 883 748 883 618 883 c 0,46,47
 565 883 565 883 513 860 c 128,-1,48
 461 837 461 837 429 796.5 c 128,-1,49
 397 756 397 756 397 711 c 2,50,-1
 401 242 l 2,36,37
EndSplineSet
Validated: 1
EndChar

StartChar: q
Encoding: 113 113 84
Width: 1133
Flags: W
LayerCount: 3
Fore
SplineSet
784 117 m 1,0,1
 725 51 725 51 667 16 c 128,-1,2
 609 -19 609 -19 522 -20 c 0,3,4
 407 -20 407 -20 323 40 c 128,-1,5
 239 100 239 100 195.5 203.5 c 128,-1,6
 152 307 152 307 152 434 c 0,7,8
 152 565 152 565 185.5 669 c 128,-1,9
 219 773 219 773 276 842 c 128,-1,10
 333 911 333 911 402 945 c 128,-1,11
 471 979 471 979 543 979 c 0,12,13
 592 979 592 979 648.5 962 c 128,-1,14
 705 945 705 945 737 926 c 0,15,16
 751 917 751 917 752 915 c 0,17,18
 766 905 766 905 778 905 c 0,19,20
 785 905 785 905 791 909 c 128,-1,21
 797 913 797 913 802.5 919 c 128,-1,22
 808 925 808 925 817 934 c 2,23,-1
 881 1012 l 1,24,-1
 922 1012 l 1,25,-1
 922 -334 l 2,26,27
 922 -400 922 -400 950.5 -429.5 c 128,-1,28
 979 -459 979 -459 1040 -459 c 1,29,-1
 1040 -481 l 1,30,-1
 666 -481 l 1,31,-1
 666 -459 l 1,32,33
 751 -459 751 -459 772 -412 c 0,34,35
 780 -395 780 -395 780 -360 c 0,36,37
 780 -358 780 -358 782 -349 c 128,-1,38
 784 -340 784 -340 784 -334 c 2,39,-1
 784 117 l 1,0,1
784 715 m 2,40,41
 784 819 784 819 719.5 873.5 c 128,-1,42
 655 928 655 928 555 928 c 0,43,44
 396 928 396 928 347.5 779 c 128,-1,45
 299 630 299 630 299 492 c 0,46,47
 299 370 299 370 330 267.5 c 128,-1,48
 361 165 361 165 419.5 105.5 c 128,-1,49
 478 46 478 46 555 43 c 0,50,51
 615 43 615 43 667.5 75 c 128,-1,52
 720 107 720 107 752 159.5 c 128,-1,53
 784 212 784 212 784 266 c 2,54,-1
 784 715 l 2,40,41
EndSplineSet
Validated: 1
EndChar

StartChar: r
Encoding: 114 114 85
Width: 905
Flags: W
LayerCount: 3
Fore
SplineSet
143 858 m 1,0,-1
 143 881 l 1,1,2
 218 900 218 900 260 933.5 c 128,-1,3
 302 967 302 967 317 997 c 1,4,-1
 383 997 l 1,5,-1
 383 858 l 1,6,7
 470 923 470 923 534.5 951 c 128,-1,8
 599 979 599 979 659 979 c 0,9,10
 722 978 722 978 753 950 c 128,-1,11
 784 922 784 922 784 881 c 0,12,13
 781 844 781 844 757 823.5 c 128,-1,14
 733 803 733 803 705 803 c 0,15,16
 663 803 663 803 614 831 c 1,17,18
 592 851 592 851 578 858 c 0,19,20
 553 868 553 868 528 868 c 0,21,22
 472 868 472 868 427.5 834.5 c 128,-1,23
 383 801 383 801 383 752 c 2,24,-1
 383 145 l 2,25,26
 383 75 383 75 410 47.5 c 128,-1,27
 437 20 437 20 498 20 c 1,28,-1
 498 0 l 1,29,-1
 127 0 l 1,30,-1
 127 20 l 1,31,32
 214 20 214 20 231 70 c 1,33,34
 242 89 242 89 242 121 c 2,35,-1
 242 145 l 1,36,-1
 242 766 l 2,37,38
 242 817 242 817 218.5 837.5 c 128,-1,39
 195 858 195 858 143 858 c 1,0,-1
EndSplineSet
Validated: 1
EndChar

StartChar: s
Encoding: 115 115 86
Width: 995
Flags: W
LayerCount: 3
Fore
SplineSet
762 733 m 1,0,-1
 739 733 l 1,1,2
 673 926 673 926 463 926 c 0,3,4
 370 926 370 926 314 881.5 c 128,-1,5
 258 837 258 837 258 774 c 0,6,7
 258 720 258 720 288.5 691.5 c 128,-1,8
 319 663 319 663 383 635 c 2,9,-1
 682 512 l 2,10,11
 783 473 783 473 823.5 404 c 128,-1,12
 864 335 864 335 864 236 c 1,13,14
 855 119 855 119 759 49.5 c 128,-1,15
 663 -20 663 -20 520 -20 c 0,16,17
 402 -20 402 -20 295 2 c 0,18,19
 268 11 268 11 242 18.5 c 128,-1,20
 216 26 216 26 201 31 c 0,21,22
 195 35 195 35 188 37 c 128,-1,23
 181 39 181 39 174 41 c 1,24,-1
 152 270 l 1,25,-1
 174 270 l 1,26,27
 223 146 223 146 320.5 87.5 c 128,-1,28
 418 29 418 29 520 29 c 0,29,30
 620 29 620 29 691.5 73.5 c 128,-1,31
 763 118 763 118 766 209 c 0,32,33
 766 324 766 324 612 383 c 2,34,-1
 356 481 l 2,35,36
 250 523 250 523 209 584 c 128,-1,37
 168 645 168 645 168 733 c 1,38,39
 175 848 175 848 263.5 913.5 c 128,-1,40
 352 979 352 979 475 979 c 0,41,42
 576 979 576 979 666 954 c 0,43,44
 682 950 682 950 706 942.5 c 128,-1,45
 730 935 730 935 743 932 c 0,46,47
 747 932 747 932 753 930 c 128,-1,48
 759 928 759 928 762 928 c 2,49,-1
 762 733 l 1,0,-1
EndSplineSet
Validated: 1
EndChar

StartChar: t
Encoding: 116 116 87
Width: 768
Flags: W
LayerCount: 3
Fore
SplineSet
629 969 m 1,0,-1
 629 922 l 1,1,-1
 418 922 l 1,2,-1
 418 252 l 2,3,4
 419 240 419 240 419.5 230 c 128,-1,5
 420 220 420 220 420 207 c 0,6,7
 420 150 420 150 430 123 c 0,8,9
 452 63 452 63 549 63 c 1,10,11
 606 73 606 73 643 133 c 1,12,-1
 666 133 l 1,13,14
 638 44 638 44 583 12 c 128,-1,15
 528 -20 528 -20 469 -20 c 0,16,17
 354 -20 354 -20 317.5 43 c 128,-1,18
 281 106 281 106 281 197 c 2,19,-1
 281 922 l 1,20,-1
 111 922 l 1,21,-1
 111 969 l 1,22,23
 184 974 184 974 240 1020 c 128,-1,24
 296 1066 296 1066 329 1173 c 128,-1,25
 362 1280 362 1280 362 1452 c 1,26,-1
 418 1452 l 1,27,-1
 418 969 l 1,28,-1
 629 969 l 1,0,-1
EndSplineSet
Validated: 1
EndChar

StartChar: u
Encoding: 117 117 88
Width: 1223
Flags: W
LayerCount: 3
Fore
SplineSet
117 858 m 1,0,-1
 117 881 l 1,1,2
 190 900 190 900 234 936.5 c 128,-1,3
 278 973 278 973 289 997 c 1,4,-1
 354 997 l 1,5,-1
 354 238 l 2,6,7
 354 148 354 148 375.5 99.5 c 128,-1,8
 397 51 397 51 481 47 c 0,9,10
 546 47 546 47 657 90 c 128,-1,11
 768 133 768 133 840 184 c 1,12,-1
 840 766 l 2,13,14
 840 817 840 817 815 837.5 c 128,-1,15
 790 858 790 858 739 858 c 1,16,-1
 739 881 l 1,17,18
 814 900 814 900 857 936.5 c 128,-1,19
 900 973 900 973 911 997 c 1,20,-1
 977 997 l 1,21,-1
 977 145 l 2,22,23
 977 75 977 75 1004.5 47.5 c 128,-1,24
 1032 20 1032 20 1094 20 c 1,25,-1
 1094 0 l 1,26,-1
 840 0 l 1,27,-1
 840 115 l 1,28,29
 830 111 830 111 824 108 c 128,-1,30
 818 105 818 105 811.5 101.5 c 128,-1,31
 805 98 805 98 797 94 c 0,32,33
 763 79 763 79 722 60.5 c 128,-1,34
 681 42 681 42 643 25 c 0,35,36
 522 -23 522 -23 432 -23 c 0,37,38
 406 -23 406 -23 391 -20 c 0,39,40
 282 -15 282 -15 249.5 37.5 c 128,-1,41
 217 90 217 90 217 180 c 2,42,-1
 217 766 l 2,43,44
 217 817 217 817 192.5 837.5 c 128,-1,45
 168 858 168 858 117 858 c 1,0,-1
EndSplineSet
Validated: 1
EndChar

StartChar: v
Encoding: 118 118 89
Width: 1087
Flags: W
LayerCount: 3
Fore
SplineSet
592 150 m 1,0,-1
 784 756 l 2,1,2
 799 800 799 800 799 838 c 0,3,4
 799 892 799 892 770 913 c 128,-1,5
 741 934 741 934 705 934 c 1,6,-1
 705 956 l 1,7,-1
 1014 956 l 1,8,-1
 1014 934 l 1,9,10
 942 923 942 923 898.5 869.5 c 128,-1,11
 855 816 855 816 825 727 c 2,12,-1
 586 -20 l 1,13,-1
 535 -20 l 1,14,-1
 223 760 l 2,15,16
 190 844 190 844 152 889 c 128,-1,17
 114 934 114 934 53 934 c 1,18,-1
 53 956 l 1,19,-1
 436 956 l 1,20,-1
 436 934 l 1,21,22
 391 934 391 934 359.5 914 c 128,-1,23
 328 894 328 894 328 860 c 0,24,25
 328 843 328 843 340 807 c 2,26,-1
 592 150 l 1,0,-1
EndSplineSet
Validated: 1
EndChar

StartChar: w
Encoding: 119 119 90
Width: 1630
Flags: W
LayerCount: 3
Fore
SplineSet
823 578 m 1,0,-1
 612 -20 l 1,1,-1
 555 -20 l 1,2,-1
 238 760 l 2,3,4
 207 837 207 837 176 878.5 c 128,-1,5
 145 920 145 920 70 934 c 1,6,-1
 70 956 l 1,7,-1
 453 956 l 1,8,-1
 453 934 l 1,9,10
 375 923 375 923 360 864 c 1,11,12
 360 813 360 813 385 750 c 2,13,-1
 618 152 l 1,14,-1
 795 653 l 1,15,-1
 743 791 l 1,16,17
 714 852 714 852 686.5 890.5 c 128,-1,18
 659 929 659 929 596 934 c 1,19,-1
 596 956 l 1,20,-1
 963 956 l 1,21,-1
 963 934 l 1,22,23
 923 934 923 934 898.5 906 c 128,-1,24
 874 878 874 878 874 823 c 0,25,26
 876 808 876 808 899 745 c 2,27,-1
 1116 152 l 1,28,-1
 1317 727 l 2,29,30
 1319 731 1319 731 1327 760 c 0,31,32
 1336 781 1336 781 1339 809 c 0,33,34
 1339 881 1339 881 1306.5 907.5 c 128,-1,35
 1274 934 1274 934 1237 934 c 1,36,-1
 1237 956 l 1,37,-1
 1561 956 l 1,38,-1
 1561 934 l 1,39,40
 1483 923 1483 923 1446.5 874 c 128,-1,41
 1410 825 1410 825 1384 756 c 2,42,-1
 1110 -20 l 1,43,-1
 1042 -20 l 1,44,-1
 823 578 l 1,0,-1
EndSplineSet
Validated: 1
EndChar

StartChar: x
Encoding: 120 120 91
Width: 995
Flags: W
LayerCount: 3
Fore
SplineSet
526 590 m 1,0,-1
 680 813 l 2,1,2
 700 843 700 843 700 860 c 256,3,4
 700 877 700 877 692 895 c 128,-1,5
 684 913 684 913 670 922 c 0,6,7
 652 932 652 932 635 932 c 0,8,9
 605 938 605 938 606 938 c 2,10,-1
 606 956 l 1,11,-1
 911 956 l 1,12,-1
 911 938 l 1,13,14
 836 930 836 930 778 852 c 2,15,-1
 555 545 l 1,16,-1
 819 121 l 2,17,18
 855 69 855 69 883.5 44.5 c 128,-1,19
 912 20 912 20 963 20 c 1,20,-1
 963 0 l 1,21,-1
 606 0 l 1,22,-1
 606 20 l 1,23,24
 644 20 644 20 666 39 c 128,-1,25
 688 58 688 58 688 86 c 0,26,27
 688 103 688 103 666 129 c 1,28,-1
 477 434 l 1,29,-1
 264 121 l 2,30,31
 252 103 252 103 252 86 c 0,32,33
 252 30 252 30 350 20 c 1,34,-1
 350 0 l 1,35,-1
 35 0 l 1,36,-1
 35 20 l 1,37,38
 103 36 103 36 146 74 c 128,-1,39
 189 112 189 112 203 137 c 2,40,-1
 442 481 l 1,41,-1
 246 809 l 2,42,43
 233 832 233 832 219 846 c 0,44,45
 197 879 197 879 178 897 c 0,46,47
 159 912 159 912 139.5 920.5 c 128,-1,48
 120 929 120 929 102 933.5 c 128,-1,49
 84 938 84 938 78 938 c 1,50,-1
 78 956 l 1,51,-1
 442 956 l 1,52,-1
 442 938 l 1,53,54
 419 938 419 938 394.5 929 c 128,-1,55
 370 920 370 920 362 897 c 1,56,57
 362 858 362 858 375 836 c 2,58,-1
 526 590 l 1,0,-1
EndSplineSet
Validated: 1
EndChar

StartChar: y
Encoding: 121 121 92
Width: 1133
Flags: W
LayerCount: 3
Fore
SplineSet
743 956 m 1,0,-1
 1053 956 l 1,1,-1
 1053 918 l 1,2,3
 994 899 994 899 966 857.5 c 128,-1,4
 938 816 938 816 909 737 c 2,5,-1
 539 -248 l 2,6,7
 498 -362 498 -362 438.5 -410.5 c 128,-1,8
 379 -459 379 -459 289 -459 c 1,9,10
 211 -455 211 -455 172 -416 c 128,-1,11
 133 -377 133 -377 133 -328 c 1,12,13
 137 -304 137 -304 155 -284 c 128,-1,14
 173 -264 173 -264 207 -264 c 0,15,16
 259 -266 259 -266 309 -322 c 0,17,18
 336 -347 336 -347 350 -354 c 1,19,20
 396 -354 396 -354 420.5 -319.5 c 128,-1,21
 445 -285 445 -285 469 -229 c 2,22,-1
 555 8 l 1,23,-1
 231 774 l 1,24,25
 220 816 220 816 181 865 c 128,-1,26
 142 914 142 914 78 918 c 1,27,-1
 78 956 l 1,28,-1
 436 956 l 1,29,-1
 436 918 l 1,30,31
 357 909 357 909 350 854 c 0,32,33
 350 825 350 825 367 784 c 2,34,-1
 623 203 l 1,35,-1
 631 203 l 1,36,-1
 817 705 l 2,37,38
 840 767 840 767 842 795 c 0,39,40
 842 911 842 911 743 918 c 1,41,-1
 743 956 l 1,0,-1
EndSplineSet
Validated: 1
EndChar

StartChar: z
Encoding: 122 122 93
Width: 1042
Flags: W
LayerCount: 3
Fore
SplineSet
897 281 m 1,0,-1
 926 281 l 1,1,-1
 823 0 l 1,2,-1
 117 0 l 1,3,-1
 672 903 l 1,4,5
 657 904 657 904 644.5 904.5 c 128,-1,6
 632 905 632 905 612 905 c 0,7,8
 447 905 447 905 334 859.5 c 128,-1,9
 221 814 221 814 162 700 c 1,10,-1
 133 700 l 1,11,-1
 217 956 l 1,12,-1
 864 956 l 1,13,-1
 311 53 l 1,14,15
 331 53 331 53 343 52.5 c 128,-1,16
 355 52 355 52 369 51 c 0,17,18
 545 51 545 51 679 105 c 128,-1,19
 813 159 813 159 897 281 c 1,0,-1
EndSplineSet
Validated: 1
EndChar

StartChar: braceleft
Encoding: 123 123 94
Width: 731
Flags: W
LayerCount: 3
Fore
SplineSet
219 561 m 1,0,1
 347 499 347 499 406 407.5 c 128,-1,2
 465 316 465 316 471 178 c 1,3,-1
 471 66 l 2,4,5
 470 54 470 54 468.5 34.5 c 128,-1,6
 467 15 467 15 465.5 -5 c 128,-1,7
 464 -25 464 -25 463 -37 c 2,8,-1
 463 -137 l 1,9,10
 468 -235 468 -235 516.5 -280.5 c 128,-1,11
 565 -326 565 -326 623 -334 c 1,12,-1
 608 -403 l 1,13,14
 309 -364 309 -364 303 -39 c 1,15,-1
 303 6 l 2,16,17
 304 45 304 45 304.5 76.5 c 128,-1,18
 305 108 305 108 305 158 c 0,19,20
 305 291 305 291 272 399 c 128,-1,21
 239 507 239 507 115 520 c 1,22,-1
 115 606 l 1,23,24
 200 614 200 614 242.5 678 c 128,-1,25
 285 742 285 742 295 814 c 128,-1,26
 305 886 305 886 305 967 c 0,27,28
 305 1017 305 1017 304.5 1048 c 128,-1,29
 304 1079 304 1079 303 1116 c 0,30,31
 305 1128 305 1128 305 1163 c 0,32,33
 305 1293 305 1293 365 1400 c 128,-1,34
 425 1507 425 1507 608 1532 c 1,35,-1
 623 1462 l 1,36,37
 563 1452 563 1452 515.5 1408 c 128,-1,38
 468 1364 468 1364 463 1264 c 1,39,-1
 463 1161 l 2,40,41
 465 1136 465 1136 467 1113.5 c 128,-1,42
 469 1091 469 1091 471 1059 c 2,43,-1
 471 948 l 1,44,45
 465 808 465 808 406 716.5 c 128,-1,46
 347 625 347 625 219 561 c 1,0,1
EndSplineSet
Validated: 1
EndChar

StartChar: bar
Encoding: 124 124 95
Width: 332
Flags: W
LayerCount: 3
Fore
SplineSet
115 -403 m 1,0,-1
 115 1774 l 1,1,-1
 213 1774 l 1,2,-1
 213 -403 l 1,3,-1
 115 -403 l 1,0,-1
EndSplineSet
Validated: 1
EndChar

StartChar: braceright
Encoding: 125 125 96
Width: 731
Flags: W
LayerCount: 3
Fore
SplineSet
510 561 m 1,0,1
 381 625 381 625 322.5 716.5 c 128,-1,2
 264 808 264 808 258 948 c 1,3,-1
 258 1059 l 2,4,5
 259 1071 259 1071 260.5 1090.5 c 128,-1,6
 262 1110 262 1110 263.5 1129.5 c 128,-1,7
 265 1149 265 1149 266 1161 c 0,8,9
 270 1196 270 1196 270 1264 c 1,10,11
 262 1363 262 1363 214 1407.5 c 128,-1,12
 166 1452 166 1452 111 1462 c 1,13,-1
 121 1532 l 1,14,15
 420 1490 420 1490 426 1163 c 1,16,-1
 426 1116 l 2,17,18
 426 1066 426 1066 425.5 1035.5 c 128,-1,19
 425 1005 425 1005 424 967 c 0,20,21
 424 833 424 833 458 726 c 128,-1,22
 492 619 492 619 614 606 c 1,23,-1
 614 520 l 1,24,25
 527 510 527 510 485.5 446 c 128,-1,26
 444 382 444 382 434 309.5 c 128,-1,27
 424 237 424 237 424 158 c 0,28,29
 425 121 425 121 425.5 89 c 128,-1,30
 426 57 426 57 426 6 c 0,31,32
 424 -6 424 -6 424 -39 c 0,33,34
 424 -167 424 -167 364 -273 c 128,-1,35
 304 -379 304 -379 121 -403 c 1,36,-1
 111 -334 l 1,37,38
 165 -326 165 -326 213.5 -280 c 128,-1,39
 262 -234 262 -234 270 -137 c 1,40,41
 270 -70 270 -70 266 -37 c 0,42,43
 264 -3 264 -3 262 19 c 128,-1,44
 260 41 260 41 258 66 c 2,45,-1
 258 178 l 1,46,47
 264 317 264 317 323 407.5 c 128,-1,48
 382 498 382 498 510 561 c 1,0,1
EndSplineSet
Validated: 1
EndChar

StartChar: asciitilde
Encoding: 126 126 97
Width: 1100
Flags: W
LayerCount: 3
Fore
SplineSet
111 1208 m 1,0,1
 144 1302 144 1302 221.5 1369.5 c 128,-1,2
 299 1437 299 1437 397 1440 c 0,3,4
 436 1440 436 1440 483 1430 c 0,5,6
 500 1426 500 1426 536 1412.5 c 128,-1,7
 572 1399 572 1399 596 1391 c 0,8,9
 733 1343 733 1343 795 1343 c 1,10,11
 834 1348 834 1348 857.5 1373 c 128,-1,12
 881 1398 881 1398 903 1440 c 1,13,-1
 989 1440 l 1,14,15
 889 1210 889 1210 731 1206 c 0,16,17
 676 1206 676 1206 637 1214 c 0,18,19
 605 1222 605 1222 539 1247 c 0,20,21
 380 1305 380 1305 315 1305 c 1,22,23
 281 1298 281 1298 248 1268.5 c 128,-1,24
 215 1239 215 1239 201 1208 c 1,25,-1
 111 1208 l 1,0,1
EndSplineSet
Validated: 1
EndChar

StartChar: uni0402
Encoding: 1026 1026 98
AltUni2: 000402.ffffffff.0
Width: 997
Flags: W
LayerCount: 3
Fore
SplineSet
502 -354 m 1,0,-1
 502 -14 l 1,1,2
 432 -4 432 -4 364 34.5 c 128,-1,3
 296 73 296 73 241 137 c 128,-1,4
 186 201 186 201 153.5 285 c 128,-1,5
 121 369 121 369 117 469 c 1,6,7
 117 592 117 592 167 704.5 c 128,-1,8
 217 817 217 817 305 889.5 c 128,-1,9
 393 962 393 962 502 977 c 1,10,-1
 502 1294 l 1,11,-1
 600 1294 l 1,12,-1
 600 977 l 1,13,14
 676 967 676 967 734.5 930.5 c 128,-1,15
 793 894 793 894 826.5 840.5 c 128,-1,16
 860 787 860 787 860 731 c 1,17,18
 856 694 856 694 832 672.5 c 128,-1,19
 808 651 808 651 778 651 c 0,20,21
 727 652 727 652 708 687.5 c 128,-1,22
 689 723 689 723 682 778 c 1,23,24
 682 813 682 813 676 831 c 0,25,26
 665 857 665 857 635 878.5 c 128,-1,27
 605 900 605 900 545 903 c 0,28,29
 400 903 400 903 333 787.5 c 128,-1,30
 266 672 266 672 266 504 c 1,31,32
 272 430 272 430 302.5 341.5 c 128,-1,33
 333 253 333 253 396.5 179.5 c 128,-1,34
 460 106 460 106 557 82 c 0,35,36
 588 76 588 76 621 76 c 0,37,38
 757 76 757 76 868 190 c 1,39,-1
 911 152 l 1,40,41
 833 78 833 78 758.5 35 c 128,-1,42
 684 -8 684 -8 600 -18 c 1,43,-1
 600 -354 l 1,44,-1
 502 -354 l 1,0,-1
EndSplineSet
Validated: 1
EndChar

StartChar: uni0403
Encoding: 1027 1027 99
AltUni2: 000403.ffffffff.0
Width: 1403
Flags: W
LayerCount: 3
Fore
SplineSet
190 1452 m 1,0,-1
 625 1452 l 1,1,-1
 625 1419 l 1,2,3
 544 1413 544 1413 513.5 1371.5 c 128,-1,4
 483 1330 483 1330 483 1245 c 2,5,-1
 487 225 l 2,6,7
 487 154 487 154 496 120.5 c 128,-1,8
 505 87 505 87 535.5 72 c 128,-1,9
 566 57 566 57 631 57 c 2,10,-1
 893 57 l 2,11,12
 971 57 971 57 1078.5 101 c 128,-1,13
 1186 145 1186 145 1257 293 c 1,14,-1
 1292 293 l 1,15,-1
 1241 0 l 1,16,-1
 172 0 l 1,17,-1
 172 29 l 1,18,19
 261 30 261 30 294.5 77 c 128,-1,20
 328 124 328 124 328 225 c 2,21,-1
 328 1231 l 2,22,23
 328 1322 328 1322 299 1368.5 c 128,-1,24
 270 1415 270 1415 190 1419 c 1,25,-1
 190 1452 l 1,0,-1
EndSplineSet
Validated: 1
EndChar

StartChar: quotesinglbase
Encoding: 8218 8218 100
Width: 1403
Flags: W
LayerCount: 3
Fore
SplineSet
184 719 m 1,0,-1
 598 719 l 1,1,-1
 299 1260 l 2,2,3
 264 1330 264 1330 219 1374.5 c 128,-1,4
 174 1419 174 1419 86 1419 c 1,5,-1
 86 1452 l 1,6,-1
 571 1452 l 1,7,-1
 571 1419 l 1,8,-1
 549 1419 l 2,9,10
 539 1419 539 1419 524 1415 c 128,-1,11
 509 1411 509 1411 504 1411 c 0,12,13
 455 1394 455 1394 455 1346 c 0,14,15
 455 1340 455 1340 458 1332.5 c 128,-1,16
 461 1325 461 1325 463 1321 c 0,17,18
 463 1315 463 1315 470 1301 c 128,-1,19
 477 1287 477 1287 477 1280 c 1,20,21
 484 1270 484 1270 490.5 1256.5 c 128,-1,22
 497 1243 497 1243 504 1231 c 2,23,-1
 784 719 l 1,24,-1
 805 719 l 1,25,-1
 1036 1214 l 2,26,27
 1077 1300 1077 1300 1077 1366 c 0,28,29
 1077 1386 1077 1386 1052 1402.5 c 128,-1,30
 1027 1419 1027 1419 985 1419 c 1,31,-1
 985 1452 l 1,32,-1
 1339 1452 l 1,33,-1
 1339 1419 l 1,34,35
 1273 1412 1273 1412 1233 1390 c 128,-1,36
 1193 1368 1193 1368 1164.5 1328.5 c 128,-1,37
 1136 1289 1136 1289 1100 1212 c 2,38,-1
 868 719 l 1,39,-1
 1303 719 l 1,40,-1
 1303 621 l 1,41,-1
 823 621 l 1,42,-1
 817 606 l 1,43,-1
 817 428 l 1,44,-1
 1303 428 l 1,45,-1
 1303 334 l 1,46,-1
 817 334 l 1,47,-1
 817 248 l 2,48,49
 817 182 817 182 826.5 136.5 c 128,-1,50
 836 91 836 91 870.5 60 c 128,-1,51
 905 29 905 29 973 29 c 1,52,-1
 973 0 l 1,53,-1
 498 0 l 1,54,-1
 498 29 l 1,55,56
 571 29 571 29 605.5 63.5 c 128,-1,57
 640 98 640 98 648.5 143 c 128,-1,58
 657 188 657 188 657 248 c 2,59,-1
 657 334 l 1,60,-1
 184 334 l 1,61,-1
 184 428 l 1,62,-1
 657 428 l 1,63,-1
 657 612 l 1,64,-1
 653 621 l 1,65,-1
 184 621 l 1,66,-1
 184 719 l 1,0,-1
EndSplineSet
Validated: 1
EndChar

StartChar: florin
Encoding: 402 402 101
Width: 793
Flags: W
LayerCount: 3
Fore
SplineSet
483 139 m 2,0,1
 483 28 483 28 469.5 -60.5 c 128,-1,2
 456 -149 456 -149 400 -215.5 c 128,-1,3
 344 -282 344 -282 233 -285 c 0,4,5
 171 -285 171 -285 130.5 -252 c 128,-1,6
 90 -219 90 -219 90 -176 c 0,7,8
 90 -139 90 -139 114.5 -117.5 c 128,-1,9
 139 -96 139 -96 174 -96 c 0,10,11
 232 -96 232 -96 268 -154 c 0,12,13
 273 -159 273 -159 277.5 -166 c 128,-1,14
 282 -173 282 -173 285 -176 c 0,15,16
 295 -193 295 -193 311 -195 c 0,17,18
 338 -195 338 -195 353.5 -178 c 128,-1,19
 369 -161 369 -161 369 -106 c 0,20,21
 369 -93 369 -93 367 -69 c 128,-1,22
 365 -45 365 -45 365 -35 c 0,23,24
 361 7 361 7 354 47 c 0,25,26
 349 94 349 94 348 98 c 0,27,28
 348 115 348 115 347.5 123 c 128,-1,29
 347 131 347 131 346 139 c 2,30,-1
 346 922 l 1,31,-1
 203 922 l 1,32,-1
 203 971 l 1,33,-1
 346 971 l 1,34,35
 346 1057 346 1057 344 1114 c 0,36,37
 339 1154 339 1154 328 1217 c 0,38,39
 326 1245 326 1245 326 1298 c 1,40,41
 335 1378 335 1378 398 1433 c 128,-1,42
 461 1488 461 1488 543 1491 c 0,43,44
 615 1491 615 1491 663.5 1459.5 c 128,-1,45
 712 1428 712 1428 715 1384 c 0,46,47
 715 1356 715 1356 694 1335.5 c 128,-1,48
 673 1315 673 1315 637 1315 c 256,49,50
 601 1315 601 1315 571 1331 c 0,51,52
 563 1334 563 1334 546 1346.5 c 128,-1,53
 529 1359 529 1359 526 1360 c 0,54,55
 518 1363 518 1363 493.5 1374.5 c 128,-1,56
 469 1386 469 1386 455 1389 c 0,57,58
 429 1389 429 1389 408 1369 c 128,-1,59
 387 1349 387 1349 383 1305 c 1,60,61
 383 1234 383 1234 416 1135 c 128,-1,62
 449 1036 449 1036 483 971 c 1,63,-1
 637 971 l 1,64,-1
 637 922 l 1,65,-1
 483 922 l 1,66,-1
 483 139 l 2,0,1
EndSplineSet
Validated: 1
EndChar

StartChar: quotedblbase
Encoding: 8222 8222 102
Width: 1270
Flags: W
LayerCount: 3
Fore
SplineSet
387 -309 m 1,0,-1
 365 -287 l 1,1,2
 460 -203 460 -203 477 -98 c 1,3,4
 477 -18 477 -18 428 -4 c 0,5,6
 414 -4 414 -4 397 2 c 0,7,8
 341 17 341 17 334 90 c 1,9,10
 334 139 334 139 361 171 c 128,-1,11
 388 203 388 203 438 203 c 0,12,13
 506 203 506 203 539.5 152 c 128,-1,14
 573 101 573 101 573 25 c 0,15,16
 568 -167 568 -167 387 -309 c 1,0,-1
797 -309 m 1,17,-1
 774 -287 l 1,18,19
 834 -234 834 -234 858.5 -185.5 c 128,-1,20
 883 -137 883 -137 885 -98 c 0,21,22
 885 -62 885 -62 877 -37.5 c 128,-1,23
 869 -13 869 -13 838 -4 c 1,24,25
 820 -4 820 -4 805 2 c 0,26,27
 749 18 749 18 745 90 c 0,28,29
 745 139 745 139 772 171 c 128,-1,30
 799 203 799 203 850 203 c 0,31,32
 915 203 915 203 948 150.5 c 128,-1,33
 981 98 981 98 981 25 c 0,34,35
 981 -165 981 -165 797 -309 c 1,17,-1
EndSplineSet
Validated: 1
EndChar

StartChar: ellipsis
Encoding: 8230 8230 103
Width: 1309
Flags: W
LayerCount: 3
Fore
SplineSet
991 72 m 0,0,1
 991 114 991 114 1021 144 c 128,-1,2
 1051 174 1051 174 1094 174 c 0,3,4
 1114 174 1114 174 1133 166 c 128,-1,5
 1152 158 1152 158 1165.5 143.5 c 128,-1,6
 1179 129 1179 129 1186.5 111 c 128,-1,7
 1194 93 1194 93 1194 72 c 0,8,9
 1194 29 1194 29 1165 0 c 128,-1,10
 1136 -29 1136 -29 1094 -29 c 0,11,12
 1051 -29 1051 -29 1021 1 c 128,-1,13
 991 31 991 31 991 72 c 0,0,1
582 72 m 0,14,15
 582 114 582 114 612 144 c 128,-1,16
 642 174 642 174 684 174 c 0,17,18
 704 174 704 174 723 166 c 128,-1,19
 742 158 742 158 755.5 143.5 c 128,-1,20
 769 129 769 129 776.5 111 c 128,-1,21
 784 93 784 93 784 72 c 0,22,23
 784 29 784 29 755 0 c 128,-1,24
 726 -29 726 -29 684 -29 c 256,25,26
 642 -29 642 -29 612 1 c 128,-1,27
 582 31 582 31 582 72 c 0,14,15
172 72 m 0,28,29
 172 114 172 114 202 144 c 128,-1,30
 232 174 232 174 274 174 c 0,31,32
 294 174 294 174 313.5 166 c 128,-1,33
 333 158 333 158 346.5 143.5 c 128,-1,34
 360 129 360 129 367.5 111 c 128,-1,35
 375 93 375 93 375 72 c 0,36,37
 375 29 375 29 345 0 c 128,-1,38
 315 -29 315 -29 274 -29 c 0,39,40
 232 -29 232 -29 202 1 c 128,-1,41
 172 31 172 31 172 72 c 0,28,29
EndSplineSet
Validated: 1
EndChar

StartChar: dagger
Encoding: 8224 8224 104
Width: 485
Flags: W
LayerCount: 3
Fore
SplineSet
45 1534 m 1,0,-1
 195 1534 l 1,1,-1
 195 1780 l 1,2,-1
 293 1780 l 1,3,-1
 293 1534 l 1,4,-1
 451 1534 l 1,5,-1
 451 1430 l 1,6,-1
 293 1430 l 1,7,-1
 293 -397 l 1,8,-1
 195 -397 l 1,9,-1
 195 1430 l 1,10,-1
 45 1430 l 1,11,-1
 45 1534 l 1,0,-1
EndSplineSet
Validated: 1
EndChar

StartChar: daggerdbl
Encoding: 8225 8225 105
Width: 1722
Flags: W
LayerCount: 3
Fore
SplineSet
1202 1419 m 1,0,-1
 1202 1452 l 1,1,-1
 1585 1452 l 1,2,-1
 1585 1419 l 1,3,4
 1530 1419 1530 1419 1484 1385 c 128,-1,5
 1438 1351 1438 1351 1430 1298 c 0,6,7
 1428 1292 1428 1292 1428 1277 c 128,-1,8
 1428 1262 1428 1262 1425 1253 c 2,9,-1
 1425 1208 l 1,10,-1
 1425 520 l 2,11,12
 1425 435 1425 435 1414 356.5 c 128,-1,13
 1403 278 1403 278 1353.5 188.5 c 128,-1,14
 1304 99 1304 99 1192.5 37 c 128,-1,15
 1081 -25 1081 -25 897 -29 c 1,16,17
 631 -29 631 -29 501 59 c 128,-1,18
 371 147 371 147 341 255.5 c 128,-1,19
 311 364 311 364 311 494 c 2,20,-1
 311 1202 l 2,21,22
 311 1300 311 1300 282 1359 c 128,-1,23
 253 1418 253 1418 152 1419 c 1,24,-1
 152 1452 l 1,25,-1
 629 1452 l 1,26,-1
 629 1419 l 1,27,28
 527 1418 527 1418 498 1358 c 128,-1,29
 469 1298 469 1298 469 1202 c 2,30,-1
 469 389 l 2,31,32
 469 336 469 336 480.5 278.5 c 128,-1,33
 492 221 492 221 534.5 164 c 128,-1,34
 577 107 577 107 670 68 c 128,-1,35
 763 29 763 29 915 29 c 1,36,37
 1112 35 1112 35 1210 111.5 c 128,-1,38
 1308 188 1308 188 1335 285 c 128,-1,39
 1362 382 1362 382 1362 494 c 2,40,-1
 1362 1212 l 2,41,42
 1362 1316 1362 1316 1332.5 1365 c 128,-1,43
 1303 1414 1303 1414 1202 1419 c 1,0,-1
EndSplineSet
Validated: 1
EndChar

StartChar: circumflex
Encoding: 710 710 106
Width: 1315
Flags: W
LayerCount: 3
Fore
SplineSet
1208 1171 m 1,0,-1
 1178 1171 l 1,1,2
 1159 1216 1159 1216 1121.5 1257.5 c 128,-1,3
 1084 1299 1084 1299 1037 1328 c 128,-1,4
 990 1357 990 1357 934.5 1374 c 128,-1,5
 879 1391 879 1391 825 1391 c 2,6,-1
 629 1391 l 2,7,8
 550 1391 550 1391 528 1348 c 128,-1,9
 506 1305 506 1305 506 1245 c 2,10,-1
 506 252 l 2,11,12
 506 188 506 188 515 142 c 128,-1,13
 524 96 524 96 559 64 c 128,-1,14
 594 32 594 32 666 29 c 1,15,-1
 666 0 l 1,16,-1
 209 0 l 1,17,-1
 209 29 l 1,18,19
 313 30 313 30 341 87 c 128,-1,20
 369 144 369 144 369 252 c 2,21,-1
 369 1200 l 2,22,23
 369 1305 369 1305 337 1360 c 128,-1,24
 305 1415 305 1415 209 1419 c 1,25,-1
 209 1452 l 1,26,-1
 1139 1452 l 1,27,-1
 1208 1171 l 1,0,-1
EndSplineSet
Validated: 1
EndChar

StartChar: perthousand
Encoding: 8240 8240 107
Width: 3097
Flags: W
LayerCount: 3
Fore
SplineSet
274 1155 m 0,0,1
 274 1253 274 1253 320 1341 c 128,-1,2
 366 1429 366 1429 447 1483 c 128,-1,3
 528 1537 528 1537 625 1538 c 0,4,5
 702 1538 702 1538 768 1506.5 c 128,-1,6
 834 1475 834 1475 882 1421 c 128,-1,7
 930 1367 930 1367 956.5 1299.5 c 128,-1,8
 983 1232 983 1232 983 1155 c 0,9,10
 983 1059 983 1059 936 970.5 c 128,-1,11
 889 882 889 882 806 828 c 128,-1,12
 723 774 723 774 625 774 c 0,13,14
 528 775 528 775 446.5 829 c 128,-1,15
 365 883 365 883 319.5 970.5 c 128,-1,16
 274 1058 274 1058 274 1155 c 0,0,1
453 1155 m 1,17,-1
 453 1104 l 2,18,19
 455 813 455 813 631 813 c 1,20,21
 801 821 801 821 803 1104 c 2,22,-1
 803 1155 l 1,23,-1
 803 1206 l 1,24,25
 799 1368 799 1368 748.5 1432.5 c 128,-1,26
 698 1497 698 1497 631 1497 c 0,27,28
 460 1497 460 1497 453 1206 c 1,29,-1
 453 1155 l 1,17,-1
1194 266 m 0,30,31
 1194 365 1194 365 1240 452 c 128,-1,32
 1286 539 1286 539 1366 591 c 128,-1,33
 1446 643 1446 643 1544 643 c 0,34,35
 1620 643 1620 643 1685.5 613 c 128,-1,36
 1751 583 1751 583 1801 528 c 128,-1,37
 1851 473 1851 473 1877 407 c 128,-1,38
 1903 341 1903 341 1903 264 c 0,39,40
 1903 168 1903 168 1856 80 c 128,-1,41
 1809 -8 1809 -8 1727 -61.5 c 128,-1,42
 1645 -115 1645 -115 1544 -115 c 0,43,44
 1449 -114 1449 -114 1368 -60.5 c 128,-1,45
 1287 -7 1287 -7 1240.5 81 c 128,-1,46
 1194 169 1194 169 1194 266 c 0,30,31
1362 264 m 1,47,-1
 1362 213 l 1,48,49
 1367 -76 1367 -76 1544 -76 c 0,50,51
 1618 -76 1618 -76 1666.5 -10 c 128,-1,52
 1715 56 1715 56 1716 213 c 2,53,-1
 1716 264 l 1,54,-1
 1716 315 l 1,55,56
 1712 474 1712 474 1663.5 538 c 128,-1,57
 1615 602 1615 602 1544 606 c 1,58,59
 1374 606 1374 606 1362 315 c 1,60,-1
 1362 264 l 1,47,-1
602 -309 m 1,61,-1
 555 -283 l 1,62,-1
 1577 1733 l 1,63,-1
 1628 1708 l 1,64,-1
 602 -309 l 1,61,-1
2091 266 m 0,65,66
 2091 362 2091 362 2137 450 c 128,-1,67
 2183 538 2183 538 2264 590.5 c 128,-1,68
 2345 643 2345 643 2441 643 c 0,69,70
 2517 643 2517 643 2582.5 613 c 128,-1,71
 2648 583 2648 583 2698 528 c 128,-1,72
 2748 473 2748 473 2774 407 c 128,-1,73
 2800 341 2800 341 2800 264 c 0,74,75
 2800 168 2800 168 2753 80 c 128,-1,76
 2706 -8 2706 -8 2624 -61.5 c 128,-1,77
 2542 -115 2542 -115 2441 -115 c 0,78,79
 2346 -114 2346 -114 2265 -60.5 c 128,-1,80
 2184 -7 2184 -7 2137.5 81 c 128,-1,81
 2091 169 2091 169 2091 266 c 0,65,66
2259 264 m 1,82,-1
 2259 213 l 1,83,84
 2264 -76 2264 -76 2441 -76 c 0,85,86
 2515 -76 2515 -76 2563.5 -10 c 128,-1,87
 2612 56 2612 56 2613 213 c 2,88,-1
 2613 264 l 1,89,-1
 2613 315 l 1,90,91
 2609 474 2609 474 2560.5 538 c 128,-1,92
 2512 602 2512 602 2441 606 c 1,93,94
 2271 606 2271 606 2259 315 c 1,95,-1
 2259 264 l 1,82,-1
EndSplineSet
Validated: 1
EndChar

StartChar: Scaron
Encoding: 352 352 108
Width: 905
Flags: W
LayerCount: 3
Fore
SplineSet
848 698 m 1,0,-1
 819 698 l 1,1,2
 760 825 760 825 673.5 867 c 128,-1,3
 587 909 587 909 506 909 c 0,4,5
 447 909 447 909 404.5 891.5 c 128,-1,6
 362 874 362 874 362 807 c 2,7,-1
 362 145 l 2,8,9
 362 77 362 77 389.5 48.5 c 128,-1,10
 417 20 417 20 481 20 c 1,11,-1
 481 0 l 1,12,-1
 362 0 l 1,13,-1
 238 0 l 1,14,-1
 117 0 l 1,15,-1
 117 20 l 1,16,17
 180 20 180 20 208 48 c 128,-1,18
 236 76 236 76 236 145 c 2,19,-1
 236 809 l 2,20,21
 236 877 236 877 207.5 905.5 c 128,-1,22
 179 934 179 934 117 934 c 1,23,-1
 117 956 l 1,24,-1
 238 956 l 1,25,-1
 788 956 l 1,26,-1
 848 698 l 1,0,-1
EndSplineSet
Validated: 1
EndChar

StartChar: guilsinglleft
Encoding: 8249 8249 109
Width: 737
Flags: W
LayerCount: 3
Fore
SplineSet
535 977 m 1,0,-1
 580 932 l 1,1,-1
 207 561 l 1,2,-1
 580 186 l 1,3,-1
 535 145 l 1,4,-1
 121 561 l 1,5,-1
 535 977 l 1,0,-1
EndSplineSet
Validated: 1
EndChar

StartChar: OE
Encoding: 338 338 110
Width: 1452
Flags: W
LayerCount: 3
Fore
SplineSet
252 252 m 1,0,-1
 655 655 l 1,1,-1
 252 1059 l 1,2,-1
 322 1128 l 1,3,-1
 725 725 l 1,4,-1
 1128 1128 l 1,5,-1
 1198 1059 l 1,6,-1
 795 655 l 1,7,-1
 1198 252 l 1,8,-1
 1128 182 l 1,9,-1
 725 586 l 1,10,-1
 322 182 l 1,11,-1
 252 252 l 1,0,-1
EndSplineSet
Validated: 1
EndChar

StartChar: uni040C
Encoding: 1036 1036 111
AltUni2: 00040c.ffffffff.0
Width: 1540
Flags: W
LayerCount: 3
Fore
SplineSet
1395 1597 m 1,0,-1
 1456 1585 l 1,1,-1
 797 -29 l 1,2,-1
 721 -29 l 1,3,-1
 442 780 l 1,4,-1
 86 780 l 1,5,-1
 86 909 l 1,6,-1
 571 909 l 1,7,-1
 813 197 l 1,8,-1
 1395 1597 l 1,0,-1
EndSplineSet
Validated: 1
EndChar

StartChar: uni040B
Encoding: 1035 1035 112
AltUni2: 00040b.ffffffff.0
Width: 1452
Flags: W
LayerCount: 3
Fore
SplineSet
92 498 m 1,0,-1
 1333 1026 l 1,1,-1
 1356 961 l 1,2,-1
 303 498 l 1,3,-1
 1356 35 l 1,4,-1
 1333 -29 l 1,5,-1
 92 498 l 1,0,-1
141 -268 m 1,6,-1
 141 -170 l 1,7,-1
 1341 -170 l 1,8,-1
 1341 -268 l 1,9,-1
 141 -268 l 1,6,-1
EndSplineSet
Validated: 1
EndChar

StartChar: uni040F
Encoding: 1039 1039 113
AltUni2: 00040f.ffffffff.0
Width: 1452
Flags: W
LayerCount: 3
Fore
SplineSet
1356 498 m 1,0,-1
 117 -29 l 1,1,-1
 92 35 l 1,2,-1
 1149 498 l 1,3,-1
 92 961 l 1,4,-1
 117 1026 l 1,5,-1
 1356 498 l 1,0,-1
117 -268 m 1,6,-1
 117 -170 l 1,7,-1
 1317 -170 l 1,8,-1
 1317 -268 l 1,9,-1
 117 -268 l 1,6,-1
EndSplineSet
Validated: 1
EndChar

StartChar: uni0452
Encoding: 1106 1106 114
AltUni2: 000452.ffffffff.0
Width: 1042
Flags: W
LayerCount: 3
Fore
SplineSet
98 477 m 0,0,1
 98 549 98 549 120.5 635.5 c 128,-1,2
 143 722 143 722 194.5 801 c 128,-1,3
 246 880 246 880 329.5 929.5 c 128,-1,4
 413 979 413 979 526 979 c 0,5,6
 636 979 636 979 719 929.5 c 128,-1,7
 802 880 802 880 851.5 803.5 c 128,-1,8
 901 727 901 727 924.5 640 c 128,-1,9
 948 553 948 553 948 477 c 0,10,11
 948 397 948 397 923.5 311.5 c 128,-1,12
 899 226 899 226 848 150.5 c 128,-1,13
 797 75 797 75 716 27.5 c 128,-1,14
 635 -20 635 -20 526 -20 c 0,15,16
 379 -20 379 -20 281.5 60.5 c 128,-1,17
 184 141 184 141 141 257.5 c 128,-1,18
 98 374 98 374 98 477 c 0,0,1
248 477 m 0,19,20
 248 318 248 318 301.5 166 c 128,-1,21
 355 14 355 14 522 14 c 0,22,23
 693 14 693 14 745 164.5 c 128,-1,24
 797 315 797 315 797 477 c 0,25,26
 797 638 797 638 745.5 788 c 128,-1,27
 694 938 694 938 522 938 c 0,28,29
 354 938 354 938 301 788 c 128,-1,30
 248 638 248 638 248 477 c 0,19,20
EndSplineSet
Validated: 1
EndChar

StartChar: quoteleft
Encoding: 8216 8216 115
Width: 680
Flags: W
LayerCount: 3
Fore
SplineSet
395 1481 m 1,0,-1
 414 1454 l 1,1,2
 318 1371 318 1371 303 1266 c 1,3,4
 303 1190 303 1190 350 1178 c 0,5,6
 354 1176 354 1176 363 1174.5 c 128,-1,7
 372 1173 372 1173 383 1171 c 0,8,9
 405 1166 405 1166 424 1144 c 128,-1,10
 443 1122 443 1122 446 1081 c 0,11,12
 446 1033 446 1033 419.5 1001 c 128,-1,13
 393 969 393 969 340 969 c 0,14,15
 275 969 275 969 241 1022 c 128,-1,16
 207 1075 207 1075 207 1149 c 0,17,18
 209 1235 209 1235 252 1318.5 c 128,-1,19
 295 1402 295 1402 395 1481 c 1,0,-1
EndSplineSet
Validated: 1
EndChar

StartChar: quoteright
Encoding: 8217 8217 116
Width: 543
Flags: W
LayerCount: 3
Fore
SplineSet
201 969 m 1,0,-1
 178 991 l 1,1,2
 236 1044 236 1044 261.5 1094 c 128,-1,3
 287 1144 287 1144 289 1180 c 0,4,5
 289 1223 289 1223 279.5 1245 c 128,-1,6
 270 1267 270 1267 246 1274 c 1,7,8
 230 1274 230 1274 209 1280 c 0,9,10
 152 1295 152 1295 150 1368 c 0,11,12
 150 1417 150 1417 176.5 1449 c 128,-1,13
 203 1481 203 1481 254 1481 c 0,14,15
 322 1481 322 1481 355.5 1429 c 128,-1,16
 389 1377 389 1377 389 1303 c 0,17,18
 384 1112 384 1112 201 969 c 1,0,-1
EndSplineSet
Validated: 1
EndChar

StartChar: quotedblleft
Encoding: 8220 8220 117
Width: 1087
Flags: W
LayerCount: 3
Fore
SplineSet
803 1481 m 1,0,-1
 823 1454 l 1,1,2
 728 1372 728 1372 711 1266 c 1,3,4
 711 1192 711 1192 760 1178 c 0,5,6
 766 1176 766 1176 773.5 1174.5 c 128,-1,7
 781 1173 781 1173 791 1171 c 0,8,9
 852 1151 852 1151 854 1081 c 0,10,11
 854 1030 854 1030 827.5 999.5 c 128,-1,12
 801 969 801 969 750 969 c 0,13,14
 683 969 683 969 648.5 1021.5 c 128,-1,15
 614 1074 614 1074 614 1149 c 0,16,17
 619 1331 619 1331 803 1481 c 1,0,-1
391 1481 m 1,18,-1
 414 1454 l 1,19,20
 356 1401 356 1401 330.5 1352 c 128,-1,21
 305 1303 305 1303 303 1266 c 0,22,23
 303 1245 303 1245 305.5 1229 c 128,-1,24
 308 1213 308 1213 318.5 1198 c 128,-1,25
 329 1183 329 1183 350 1178 c 0,26,27
 354 1176 354 1176 363 1174.5 c 128,-1,28
 372 1173 372 1173 383 1171 c 0,29,30
 405 1164 405 1164 424 1143 c 128,-1,31
 443 1122 443 1122 446 1081 c 0,32,33
 446 1051 446 1051 434 1024.5 c 128,-1,34
 422 998 422 998 399.5 983.5 c 128,-1,35
 377 969 377 969 340 969 c 0,36,37
 275 969 275 969 241 1022 c 128,-1,38
 207 1075 207 1075 207 1149 c 0,39,40
 210 1332 210 1332 391 1481 c 1,18,-1
EndSplineSet
Validated: 1
EndChar

StartChar: quotedblright
Encoding: 8221 8221 118
Width: 1270
Flags: W
LayerCount: 3
Fore
SplineSet
362 969 m 1,0,-1
 340 991 l 1,1,2
 433 1074 433 1074 453 1180 c 1,3,4
 453 1260 453 1260 403 1274 c 1,5,6
 388 1274 388 1274 373 1280 c 0,7,8
 316 1295 316 1295 309 1368 c 1,9,10
 309 1417 309 1417 336 1449 c 128,-1,11
 363 1481 363 1481 414 1481 c 0,12,13
 482 1481 482 1481 515.5 1429 c 128,-1,14
 549 1377 549 1377 549 1303 c 0,15,16
 544 1110 544 1110 362 969 c 1,0,-1
772 969 m 1,17,-1
 750 991 l 1,18,19
 855 1084 855 1084 860 1180 c 0,20,21
 860 1216 860 1216 852 1240.5 c 128,-1,22
 844 1265 844 1265 813 1274 c 1,23,24
 797 1274 797 1274 780 1280 c 0,25,26
 723 1297 723 1297 721 1368 c 0,27,28
 721 1417 721 1417 748 1449 c 128,-1,29
 775 1481 775 1481 825 1481 c 0,30,31
 890 1481 890 1481 923 1430 c 128,-1,32
 956 1379 956 1379 956 1303 c 0,33,34
 956 1113 956 1113 772 969 c 1,17,-1
EndSplineSet
Validated: 1
EndChar

StartChar: bullet
Encoding: 8226 8226 119
Width: 1452
Flags: W
LayerCount: 3
Fore
SplineSet
522 723 m 0,0,1
 522 778 522 778 547.5 824.5 c 128,-1,2
 573 871 573 871 620 899.5 c 128,-1,3
 667 928 667 928 723 928 c 0,4,5
 810 928 810 928 869 866.5 c 128,-1,6
 928 805 928 805 928 723 c 0,7,8
 928 669 928 669 901 623.5 c 128,-1,9
 874 578 874 578 826.5 550 c 128,-1,10
 779 522 779 522 723 522 c 256,11,12
 667 522 667 522 620.5 550 c 128,-1,13
 574 578 574 578 548 623.5 c 128,-1,14
 522 669 522 669 522 723 c 0,0,1
EndSplineSet
Validated: 1
EndChar

StartChar: endash
Encoding: 8211 8211 120
Width: 1452
Flags: W
LayerCount: 3
Fore
SplineSet
88 705 m 1,0,-1
 1360 705 l 1,1,-1
 1360 606 l 1,2,-1
 88 606 l 1,3,-1
 88 705 l 1,0,-1
EndSplineSet
Validated: 1
EndChar

StartChar: emdash
Encoding: 8212 8212 121
Width: 2177
Flags: W
LayerCount: 3
Fore
SplineSet
115 434 m 1,0,-1
 115 522 l 1,1,-1
 2058 520 l 1,2,-1
 2058 434 l 1,3,-1
 115 434 l 1,0,-1
EndSplineSet
Validated: 1
EndChar

StartChar: tilde
Encoding: 732 732 122
Width: 1722
Flags: W
LayerCount: 3
Fore
SplineSet
465 1413 m 1,0,-1
 465 1452 l 1,1,-1
 1368 1452 l 1,2,-1
 1528 1452 l 1,3,-1
 1528 1419 l 1,4,5
 1426 1418 1426 1418 1397 1358 c 128,-1,6
 1368 1298 1368 1298 1368 1202 c 2,7,-1
 1368 248 l 2,8,9
 1368 188 1368 188 1377 142 c 128,-1,10
 1386 96 1386 96 1421.5 63 c 128,-1,11
 1457 30 1457 30 1528 29 c 1,12,-1
 1528 0 l 1,13,-1
 1053 0 l 1,14,-1
 1053 29 l 1,15,16
 1154 30 1154 30 1183 90 c 128,-1,17
 1212 150 1212 150 1212 248 c 2,18,-1
 1212 1219 l 2,19,20
 1212 1332 1212 1332 1179.5 1361.5 c 128,-1,21
 1147 1391 1147 1391 1087 1391 c 2,22,-1
 899 1391 l 2,23,24
 827 1391 827 1391 780.5 1366.5 c 128,-1,25
 734 1342 734 1342 715 1282 c 0,26,27
 710 1267 710 1267 705.5 1227 c 128,-1,28
 701 1187 701 1187 700 1184 c 0,29,30
 700 1137 700 1137 694 1092 c 0,31,32
 682 948 682 948 676 874 c 0,33,34
 651 606 651 606 609 428.5 c 128,-1,35
 567 251 567 251 514 151 c 128,-1,36
 461 51 461 51 409 12 c 128,-1,37
 357 -27 357 -27 305 -29 c 0,38,39
 256 -29 256 -29 211.5 0.5 c 128,-1,40
 167 30 167 30 139 86 c 128,-1,41
 111 142 111 142 111 213 c 0,42,43
 112 277 112 277 133.5 318.5 c 128,-1,44
 155 360 155 360 185 378.5 c 128,-1,45
 215 397 215 397 246 397 c 0,46,47
 280 395 280 395 303 369 c 128,-1,48
 326 343 326 343 326 299 c 0,49,50
 326 292 326 292 322 266 c 0,51,52
 315 220 315 220 264 158 c 0,53,54
 258 152 258 152 248 137 c 0,55,56
 242 123 242 123 242 94 c 0,57,58
 250 31 250 31 334 31 c 1,59,60
 389 41 389 41 438 121 c 128,-1,61
 487 201 487 201 524.5 327 c 128,-1,62
 562 453 562 453 588 607.5 c 128,-1,63
 614 762 614 762 625 922 c 0,64,65
 634 1024 634 1024 637 1120 c 0,66,67
 637 1212 637 1212 635 1257 c 1,68,69
 625 1326 625 1326 588 1364 c 128,-1,70
 551 1402 551 1402 465 1413 c 1,0,-1
EndSplineSet
Validated: 1
EndChar

StartChar: trademark
Encoding: 8482 8482 123
Width: 1806
Flags: W
LayerCount: 3
Fore
SplineSet
266 1018 m 1,0,-1
 266 1034 l 1,1,2
 316 1035 316 1035 331 1063 c 128,-1,3
 346 1091 346 1091 346 1149 c 2,4,-1
 346 1657 l 1,5,-1
 346 1675 l 2,6,7
 345 1681 345 1681 345 1692 c 128,-1,8
 345 1703 345 1703 344 1708 c 0,9,10
 334 1743 334 1743 281 1743 c 0,11,12
 227 1740 227 1740 179 1706.5 c 128,-1,13
 131 1673 131 1673 111 1630 c 1,14,-1
 94 1630 l 1,15,-1
 129 1774 l 1,16,-1
 647 1774 l 1,17,-1
 680 1630 l 1,18,-1
 666 1630 l 1,19,20
 653 1660 653 1660 612.5 1696.5 c 128,-1,21
 572 1733 572 1733 498 1743 c 1,22,23
 462 1743 462 1743 446.5 1736 c 128,-1,24
 431 1729 431 1729 426 1708 c 1,25,-1
 426 1675 l 1,26,-1
 426 1657 l 1,27,-1
 426 1149 l 2,28,29
 426 1099 426 1099 440.5 1067 c 128,-1,30
 455 1035 455 1035 510 1034 c 1,31,-1
 510 1018 l 1,32,-1
 266 1018 l 1,0,-1
1235 1231 m 1,33,-1
 1440 1774 l 1,34,-1
 1606 1774 l 1,35,-1
 1606 1759 l 1,36,37
 1534 1759 1534 1759 1534 1669 c 1,38,-1
 1636 1128 l 1,39,40
 1658 1038 1658 1038 1737 1034 c 1,41,-1
 1737 1018 l 1,42,-1
 1468 1018 l 1,43,-1
 1468 1034 l 1,44,45
 1546 1034 1546 1034 1550 1092 c 0,46,47
 1550 1116 1550 1116 1544 1133 c 2,48,-1
 1440 1688 l 1,49,-1
 1223 1100 l 1,50,-1
 1186 1100 l 1,51,-1
 995 1669 l 1,52,-1
 889 1133 l 1,53,54
 889 1038 889 1038 967 1034 c 1,55,-1
 967 1018 l 1,56,-1
 766 1018 l 1,57,-1
 766 1034 l 1,58,59
 840 1042 840 1042 860 1139 c 2,60,-1
 961 1647 l 2,61,62
 963 1659 963 1659 965 1673 c 128,-1,63
 967 1687 967 1687 967 1694 c 0,64,65
 957 1759 957 1759 889 1759 c 1,66,-1
 889 1774 l 1,67,-1
 1057 1774 l 1,68,-1
 1235 1231 l 1,33,-1
EndSplineSet
Validated: 1
EndChar

StartChar: scaron
Encoding: 353 353 124
Width: 1178
Flags: W
LayerCount: 3
Fore
SplineSet
326 911 m 1,0,-1
 326 956 l 1,1,-1
 1024 956 l 1,2,-1
 1024 915 l 1,3,4
 943 915 943 915 918 864 c 0,5,6
 909 852 909 852 909 813 c 0,7,8
 909 810 909 810 907 801 c 128,-1,9
 905 792 905 792 905 788 c 2,10,-1
 905 168 l 2,11,12
 905 152 905 152 909 143 c 1,13,14
 909 104 909 104 918 92 c 0,15,16
 940 43 940 43 1024 43 c 1,17,-1
 1024 0 l 1,18,-1
 659 0 l 1,19,-1
 659 43 l 1,20,21
 744 43 744 43 766 92 c 0,22,23
 769 96 769 96 778 143 c 1,24,-1
 778 166 l 1,25,-1
 778 731 l 1,26,-1
 778 766 l 1,27,-1
 778 803 l 2,28,29
 775 842 775 842 757.5 861.5 c 128,-1,30
 740 881 740 881 694 881 c 2,31,-1
 592 881 l 2,32,33
 544 881 544 881 527.5 855 c 128,-1,34
 511 829 511 829 498 715 c 0,35,36
 469 451 469 451 438 297.5 c 128,-1,37
 407 144 407 144 353.5 62 c 128,-1,38
 300 -20 300 -20 209 -20 c 0,39,40
 141 -20 141 -20 101.5 26 c 128,-1,41
 62 72 62 72 59 150 c 0,42,43
 59 221 59 221 89.5 258 c 128,-1,44
 120 295 120 295 158 295 c 0,45,46
 206 295 206 295 223 248 c 0,47,48
 227 238 227 238 227 213 c 0,49,50
 227 190 227 190 223 178 c 0,51,52
 214 147 214 147 195 111 c 1,53,54
 180 93 180 93 180 70 c 1,55,56
 190 37 190 37 229 37 c 0,57,58
 279 37 279 37 318.5 125 c 128,-1,59
 358 213 358 213 383 338.5 c 128,-1,60
 408 464 408 464 421 589.5 c 128,-1,61
 434 715 434 715 434 778 c 0,62,63
 434 911 434 911 326 911 c 1,0,-1
EndSplineSet
Validated: 1
EndChar

StartChar: guilsinglright
Encoding: 8250 8250 125
Width: 700
Flags: W
LayerCount: 3
Fore
SplineSet
180 977 m 1,0,-1
 596 561 l 1,1,-1
 180 145 l 1,2,-1
 137 186 l 1,3,-1
 510 561 l 1,4,-1
 137 932 l 1,5,-1
 180 977 l 1,0,-1
EndSplineSet
Validated: 1
EndChar

StartChar: oe
Encoding: 339 339 126
Width: 1722
Flags: W
LayerCount: 3
Fore
SplineSet
469 752 m 1,0,-1
 469 248 l 2,1,2
 469 188 469 188 478 142 c 128,-1,3
 487 96 487 96 522.5 63 c 128,-1,4
 558 30 558 30 629 29 c 1,5,-1
 629 0 l 1,6,-1
 152 0 l 1,7,-1
 152 29 l 1,8,9
 253 30 253 30 282 90 c 128,-1,10
 311 150 311 150 311 248 c 2,11,-1
 311 1202 l 2,12,13
 311 1300 311 1300 282 1359 c 128,-1,14
 253 1418 253 1418 152 1419 c 1,15,-1
 152 1452 l 1,16,-1
 629 1452 l 1,17,-1
 629 1419 l 1,18,19
 527 1418 527 1418 498 1358 c 128,-1,20
 469 1298 469 1298 469 1202 c 2,21,-1
 469 813 l 1,22,-1
 1251 813 l 1,23,-1
 1251 1202 l 2,24,25
 1251 1303 1251 1303 1223 1360.5 c 128,-1,26
 1195 1418 1195 1418 1094 1419 c 1,27,-1
 1094 1452 l 1,28,-1
 1571 1452 l 1,29,-1
 1571 1419 l 1,30,31
 1499 1418 1499 1418 1464 1386.5 c 128,-1,32
 1429 1355 1429 1355 1420 1309.5 c 128,-1,33
 1411 1264 1411 1264 1411 1202 c 2,34,-1
 1411 248 l 2,35,36
 1411 187 1411 187 1420 140.5 c 128,-1,37
 1429 94 1429 94 1464 62 c 128,-1,38
 1499 30 1499 30 1571 29 c 1,39,-1
 1571 0 l 1,40,-1
 1094 0 l 1,41,-1
 1094 29 l 1,42,43
 1195 30 1195 30 1223 88.5 c 128,-1,44
 1251 147 1251 147 1251 248 c 2,45,-1
 1251 752 l 1,46,-1
 469 752 l 1,0,-1
EndSplineSet
Validated: 1
EndChar

StartChar: uni045C
Encoding: 1116 1116 127
AltUni2: 00045c.ffffffff.0
Width: 1178
Flags: W
LayerCount: 3
Fore
SplineSet
375 469 m 1,0,-1
 375 145 l 2,1,2
 375 141 375 141 377 133 c 128,-1,3
 379 125 379 125 379 121 c 0,4,5
 379 97 379 97 389 70 c 0,6,7
 408 20 408 20 498 20 c 1,8,-1
 498 0 l 1,9,-1
 129 0 l 1,10,-1
 129 20 l 1,11,12
 194 20 194 20 223 49 c 128,-1,13
 252 78 252 78 252 145 c 2,14,-1
 252 809 l 2,15,16
 252 877 252 877 222 905.5 c 128,-1,17
 192 934 192 934 129 934 c 1,18,-1
 129 956 l 1,19,-1
 498 956 l 1,20,-1
 498 934 l 1,21,22
 413 934 413 934 389 887 c 0,23,24
 379 865 379 865 379 836 c 0,25,26
 379 830 379 830 377 822 c 128,-1,27
 375 814 375 814 375 809 c 2,28,-1
 375 516 l 1,29,-1
 801 516 l 1,30,-1
 801 809 l 2,31,32
 801 877 801 877 772 905.5 c 128,-1,33
 743 934 743 934 682 934 c 1,34,-1
 682 956 l 1,35,-1
 1047 956 l 1,36,-1
 1047 934 l 1,37,38
 972 934 972 934 950 899.5 c 128,-1,39
 928 865 928 865 928 809 c 2,40,-1
 928 145 l 2,41,42
 928 87 928 87 950.5 53.5 c 128,-1,43
 973 20 973 20 1047 20 c 1,44,-1
 1047 0 l 1,45,-1
 682 0 l 1,46,-1
 682 20 l 1,47,48
 746 20 746 20 773.5 48.5 c 128,-1,49
 801 77 801 77 801 145 c 2,50,-1
 801 469 l 1,51,-1
 375 469 l 1,0,-1
EndSplineSet
Validated: 1
EndChar

StartChar: uni045B
Encoding: 1115 1115 128
AltUni2: 00045b.ffffffff.0
Width: 1540
Flags: W
LayerCount: 3
Fore
SplineSet
1266 -6 m 1,0,-1
 344 0 l 1,1,-1
 258 104 l 1,2,-1
 782 1475 l 1,3,-1
 858 1475 l 1,4,-1
 1346 117 l 1,5,-1
 1266 -6 l 1,0,-1
369 178 m 1,6,-1
 1137 178 l 1,7,-1
 766 1249 l 1,8,-1
 369 178 l 1,6,-1
EndSplineSet
Validated: 1
EndChar

StartChar: uni041A
Encoding: 1050 1050 129
AltUni2: 00041a.ffffffff.0
Width: 1630
Flags: W
LayerCount: 3
Fore
SplineSet
694 1452 m 1,0,-1
 694 1419 l 1,1,2
 593 1418 593 1418 564 1358 c 128,-1,3
 535 1298 535 1298 535 1202 c 2,4,-1
 535 631 l 1,5,-1
 1047 1184 l 2,6,7
 1074 1215 1074 1215 1094 1254 c 128,-1,8
 1114 1293 1114 1293 1114 1325 c 0,9,10
 1114 1332 1114 1332 1110 1350 c 0,11,12
 1105 1371 1105 1371 1084 1390.5 c 128,-1,13
 1063 1410 1063 1410 1034 1417 c 0,14,15
 1020 1419 1020 1419 997 1419 c 1,16,17
 991 1423 991 1423 983 1423 c 1,18,-1
 983 1452 l 1,19,-1
 1448 1452 l 1,20,-1
 1448 1423 l 1,21,22
 1327 1396 1327 1396 1225 1286 c 2,23,-1
 874 909 l 1,24,25
 947 729 947 729 1062.5 509.5 c 128,-1,26
 1178 290 1178 290 1314 99.5 c 128,-1,27
 1450 -91 1450 -91 1567 -172 c 1,28,-1
 1540 -207 l 1,29,30
 1446 -153 1446 -153 1359.5 -80.5 c 128,-1,31
 1273 -8 1273 -8 1172.5 109 c 128,-1,32
 1072 226 1072 226 962 385 c 128,-1,33
 852 544 852 544 727 752 c 1,34,-1
 535 545 l 1,35,-1
 535 248 l 2,36,37
 535 152 535 152 564 91 c 128,-1,38
 593 30 593 30 694 29 c 1,39,-1
 694 0 l 1,40,-1
 203 0 l 1,41,-1
 203 29 l 1,42,43
 304 30 304 30 332 88.5 c 128,-1,44
 360 147 360 147 360 248 c 2,45,-1
 360 1202 l 2,46,47
 360 1303 360 1303 332 1360.5 c 128,-1,48
 304 1418 304 1418 203 1419 c 1,49,-1
 203 1452 l 1,50,-1
 694 1452 l 1,0,-1
EndSplineSet
Validated: 1
EndChar

StartChar: uni00A0
Encoding: 160 160 130
Width: 1133
Flags: W
LayerCount: 3
Fore
SplineSet
129 0 m 1,0,-1
 129 20 l 1,1,2
 217 20 217 20 238 70 c 0,3,4
 248 86 248 86 248 121 c 0,5,6
 248 125 248 125 250 133 c 128,-1,7
 252 141 252 141 252 145 c 2,8,-1
 252 809 l 2,9,10
 252 814 252 814 250 822 c 128,-1,11
 248 830 248 830 248 836 c 0,12,13
 248 874 248 874 238 887 c 0,14,15
 216 934 216 934 129 934 c 1,16,-1
 129 956 l 1,17,-1
 498 956 l 1,18,-1
 498 934 l 1,19,20
 433 934 433 934 404 905.5 c 128,-1,21
 375 877 375 877 375 809 c 2,22,-1
 375 418 l 1,23,-1
 774 819 l 2,24,25
 801 842 801 842 801 874 c 0,26,27
 801 907 801 907 774 918 c 1,28,29
 764 928 764 928 743 928 c 0,30,31
 739 930 739 930 734.5 931.5 c 128,-1,32
 730 933 730 933 726 935 c 128,-1,33
 722 937 722 937 717 938 c 1,34,-1
 717 956 l 1,35,-1
 1026 956 l 1,36,-1
 1026 938 l 1,37,38
 989 930 989 930 951.5 905.5 c 128,-1,39
 914 881 914 881 893 858 c 2,40,-1
 641 602 l 1,41,-1
 950 111 l 2,42,43
 992 37 992 37 1075 18 c 1,44,-1
 1075 0 l 1,45,-1
 717 0 l 1,46,-1
 717 18 l 1,47,48
 723 20 723 20 733 20 c 0,49,50
 738 23 738 23 754.5 26.5 c 128,-1,51
 771 30 771 30 772 31 c 0,52,53
 803 48 803 48 803 92 c 0,54,55
 800 106 800 106 791 123 c 0,56,57
 791 124 791 124 785 134.5 c 128,-1,58
 779 145 779 145 778 150 c 2,59,-1
 549 510 l 1,60,-1
 375 338 l 1,61,-1
 375 145 l 2,62,63
 375 97 375 97 388 70 c 128,-1,64
 401 43 401 43 427.5 31.5 c 128,-1,65
 454 20 454 20 498 20 c 1,66,-1
 498 0 l 1,67,-1
 129 0 l 1,0,-1
EndSplineSet
Validated: 1
EndChar

StartChar: uni040E
Encoding: 1038 1038 131
AltUni2: 00040e.ffffffff.0
Width: 1497
Flags: W
LayerCount: 3
Fore
SplineSet
831 471 m 1,0,-1
 1139 1178 l 2,1,2
 1151 1203 1151 1203 1161 1244 c 128,-1,3
 1171 1285 1171 1285 1171 1327 c 1,4,5
 1167 1354 1167 1354 1148.5 1376.5 c 128,-1,6
 1130 1399 1130 1399 1106 1407 c 0,7,8
 1098 1409 1098 1409 1093 1411 c 128,-1,9
 1088 1413 1088 1413 1082 1414.5 c 128,-1,10
 1076 1416 1076 1416 1071 1417 c 0,11,12
 1059 1417 1059 1417 1053 1419 c 2,13,-1
 1036 1419 l 1,14,-1
 1036 1452 l 1,15,-1
 1440 1452 l 1,16,-1
 1440 1419 l 1,17,18
 1387 1409 1387 1409 1344 1378.5 c 128,-1,19
 1301 1348 1301 1348 1274.5 1310.5 c 128,-1,20
 1248 1273 1248 1273 1231 1235.5 c 128,-1,21
 1214 1198 1214 1198 1202 1171 c 2,22,-1
 788 203 l 2,23,24
 738 83 738 83 654.5 27 c 128,-1,25
 571 -29 571 -29 477 -29 c 0,26,27
 368 -29 368 -29 281.5 50 c 128,-1,28
 195 129 195 129 195 264 c 0,29,30
 197 327 197 327 227.5 371 c 128,-1,31
 258 415 258 415 309 418 c 0,32,33
 332 418 332 418 350.5 410 c 128,-1,34
 369 402 369 402 379 389.5 c 128,-1,35
 389 377 389 377 395 356.5 c 128,-1,36
 401 336 401 336 401 317 c 0,37,38
 401 266 401 266 356 209 c 0,39,40
 336 185 336 185 328 166 c 1,41,42
 328 111 328 111 371.5 70.5 c 128,-1,43
 415 30 415 30 483 29 c 0,44,45
 553 29 553 29 607 66.5 c 128,-1,46
 661 104 661 104 694.5 154.5 c 128,-1,47
 728 205 728 205 750 258 c 1,48,-1
 305 1229 l 2,49,50
 263 1322 263 1322 221 1366.5 c 128,-1,51
 179 1411 179 1411 100 1419 c 1,52,-1
 100 1452 l 1,53,-1
 551 1452 l 1,54,-1
 551 1419 l 1,55,56
 445 1419 445 1419 436 1354 c 1,57,58
 436 1323 436 1323 459 1274 c 2,59,-1
 831 471 l 1,0,-1
776 1634 m 0,60,61
 860 1634 860 1634 933.5 1685.5 c 128,-1,62
 1007 1737 1007 1737 1010 1853 c 1,63,-1
 1085 1853 l 1,64,65
 1085 1752 1085 1752 1044.5 1673 c 128,-1,66
 1004 1594 1004 1594 932.5 1551.5 c 128,-1,67
 861 1509 861 1509 774 1509 c 0,68,69
 684 1511 684 1511 614.5 1554 c 128,-1,70
 545 1597 545 1597 506 1674.5 c 128,-1,71
 467 1752 467 1752 467 1853 c 1,72,-1
 543 1853 l 1,73,74
 546 1737 546 1737 619.5 1685.5 c 128,-1,75
 693 1634 693 1634 776 1634 c 0,60,61
EndSplineSet
Validated: 1
EndChar

StartChar: uni045E
Encoding: 1118 1118 132
AltUni2: 00045e.ffffffff.0
Width: 1133
Flags: W
LayerCount: 3
Fore
SplineSet
573 1143 m 0,0,1
 657 1143 657 1143 730.5 1194.5 c 128,-1,2
 804 1246 804 1246 807 1362 c 1,3,-1
 883 1362 l 1,4,5
 883 1260 883 1260 842.5 1181.5 c 128,-1,6
 802 1103 802 1103 730 1060.5 c 128,-1,7
 658 1018 658 1018 571 1018 c 0,8,9
 436 1020 436 1020 350 1114.5 c 128,-1,10
 264 1209 264 1209 264 1362 c 1,11,-1
 340 1362 l 1,12,13
 343 1246 343 1246 416.5 1194.5 c 128,-1,14
 490 1143 490 1143 573 1143 c 0,0,1
743 956 m 1,15,-1
 1053 956 l 1,16,-1
 1053 918 l 1,17,18
 994 899 994 899 966 857.5 c 128,-1,19
 938 816 938 816 909 737 c 2,20,-1
 539 -248 l 2,21,22
 498 -362 498 -362 438.5 -410.5 c 128,-1,23
 379 -459 379 -459 289 -459 c 1,24,25
 211 -455 211 -455 172 -416 c 128,-1,26
 133 -377 133 -377 133 -328 c 1,27,28
 137 -304 137 -304 155 -284 c 128,-1,29
 173 -264 173 -264 207 -264 c 0,30,31
 259 -266 259 -266 309 -322 c 0,32,33
 336 -347 336 -347 350 -354 c 1,34,35
 396 -354 396 -354 420.5 -319.5 c 128,-1,36
 445 -285 445 -285 469 -229 c 2,37,-1
 555 8 l 1,38,-1
 231 774 l 1,39,40
 219 816 219 816 180 865 c 128,-1,41
 141 914 141 914 78 918 c 1,42,-1
 78 956 l 1,43,-1
 436 956 l 1,44,-1
 436 918 l 1,45,46
 357 909 357 909 350 854 c 0,47,48
 350 825 350 825 367 784 c 2,49,-1
 623 203 l 1,50,-1
 631 203 l 1,51,-1
 817 705 l 2,52,53
 840 767 840 767 842 795 c 0,54,55
 842 911 842 911 743 918 c 1,56,-1
 743 956 l 1,15,-1
EndSplineSet
Validated: 1
EndChar

StartChar: uni0408
Encoding: 1032 1032 133
AltUni2: 000408.ffffffff.0
Width: 1042
Flags: W
LayerCount: 3
Fore
SplineSet
420 1452 m 1,0,-1
 899 1452 l 1,1,-1
 899 1419 l 1,2,3
 827 1418 827 1418 792 1386.5 c 128,-1,4
 757 1355 757 1355 748 1309.5 c 128,-1,5
 739 1264 739 1264 739 1202 c 2,6,-1
 739 403 l 2,7,8
 739 -25 739 -25 385 -29 c 0,9,10
 298 -29 298 -29 221.5 6.5 c 128,-1,11
 145 42 145 42 98 102 c 128,-1,12
 51 162 51 162 51 229 c 0,13,14
 51 258 51 258 59 283 c 0,15,16
 84 334 84 334 150 334 c 0,17,18
 195 332 195 332 224.5 291.5 c 128,-1,19
 254 251 254 251 254 156 c 0,20,21
 254 133 254 133 258 121 c 0,22,23
 264 87 264 87 295 58 c 128,-1,24
 326 29 326 29 389 29 c 0,25,26
 499 29 499 29 535.5 94.5 c 128,-1,27
 572 160 572 160 578 236 c 0,28,29
 580 254 580 254 580 295 c 2,30,-1
 580 346 l 1,31,-1
 580 1202 l 2,32,33
 580 1298 580 1298 551.5 1358 c 128,-1,34
 523 1418 523 1418 420 1419 c 1,35,-1
 420 1452 l 1,0,-1
EndSplineSet
Validated: 1
EndChar

StartChar: currency
Encoding: 164 164 134
Width: 1100
Flags: W
LayerCount: 3
Fore
SplineSet
123 367 m 1,0,1
 156 461 156 461 233 528 c 128,-1,2
 310 595 310 595 410 598 c 0,3,4
 448 598 448 598 496 588 c 0,5,6
 516 583 516 583 550 570 c 128,-1,7
 584 557 584 557 608 549 c 0,8,9
 745 502 745 502 807 502 c 1,10,11
 846 506 846 506 869.5 531 c 128,-1,12
 893 556 893 556 915 598 c 1,13,-1
 1001 598 l 1,14,15
 902 369 902 369 743 365 c 0,16,17
 688 365 688 365 649 373 c 0,18,19
 615 381 615 381 551 406 c 0,20,21
 391 463 391 463 328 463 c 1,22,23
 291 456 291 456 259 427 c 128,-1,24
 227 398 227 398 213 367 c 1,25,-1
 123 367 l 1,0,1
129 711 m 1,26,27
 162 805 162 805 239 872 c 128,-1,28
 316 939 316 939 416 942 c 0,29,30
 454 942 454 942 502 932 c 0,31,32
 522 927 522 927 556 914 c 128,-1,33
 590 901 590 901 614 893 c 0,34,35
 708 862 708 862 746 854 c 128,-1,36
 784 846 784 846 813 846 c 0,37,38
 852 850 852 850 876 875 c 128,-1,39
 900 900 900 900 922 942 c 1,40,-1
 1008 942 l 1,41,42
 950 810 950 810 885 760.5 c 128,-1,43
 820 711 820 711 750 709 c 0,44,45
 694 709 694 709 655 717 c 0,46,47
 620 725 620 725 557 750 c 0,48,49
 473 780 473 780 423.5 793.5 c 128,-1,50
 374 807 374 807 334 807 c 1,51,52
 298 800 298 800 266.5 771.5 c 128,-1,53
 235 743 235 743 219 711 c 1,54,-1
 129 711 l 1,26,27
EndSplineSet
Validated: 1
EndChar

StartChar: uni0490
Encoding: 1168 1168 135
AltUni2: 000490.ffffffff.0
Width: 2183
Flags: W
LayerCount: 3
Fore
SplineSet
408 469 m 1,0,-1
 408 592 l 1,1,-1
 1772 592 l 1,2,-1
 1772 469 l 1,3,-1
 408 469 l 1,0,-1
989 877 m 0,4,5
 989 931 989 931 1015 968.5 c 128,-1,6
 1041 1006 1041 1006 1092 1006 c 0,7,8
 1141 1006 1141 1006 1167.5 969 c 128,-1,9
 1194 932 1194 932 1194 877 c 256,10,11
 1194 822 1194 822 1167.5 786 c 128,-1,12
 1141 750 1141 750 1092 750 c 0,13,14
 1041 750 1041 750 1015 786 c 128,-1,15
 989 822 989 822 989 877 c 0,4,5
989 184 m 0,16,17
 989 238 989 238 1015 274.5 c 128,-1,18
 1041 311 1041 311 1092 311 c 0,19,20
 1124 311 1124 311 1147.5 294 c 128,-1,21
 1171 277 1171 277 1182.5 247 c 128,-1,22
 1194 217 1194 217 1194 184 c 0,23,24
 1194 132 1194 132 1167.5 94.5 c 128,-1,25
 1141 57 1141 57 1092 57 c 0,26,27
 1041 57 1041 57 1015 95 c 128,-1,28
 989 133 989 133 989 184 c 0,16,17
EndSplineSet
Validated: 1
EndChar

StartChar: section
Encoding: 167 167 136
Width: 1087
Flags: W
LayerCount: 3
Fore
SplineSet
281 1069 m 1,0,1
 264 1131 264 1131 264 1223 c 1,2,3
 273 1322 273 1322 352 1387 c 128,-1,4
 431 1452 431 1452 557 1452 c 0,5,6
 642 1451 642 1451 713.5 1416 c 128,-1,7
 785 1381 785 1381 824.5 1333.5 c 128,-1,8
 864 1286 864 1286 864 1247 c 0,9,10
 861 1224 861 1224 844.5 1207 c 128,-1,11
 828 1190 828 1190 801 1190 c 0,12,13
 741 1190 741 1190 705 1274 c 0,14,15
 698 1287 698 1287 693 1305 c 128,-1,16
 688 1323 688 1323 682 1333 c 0,17,18
 648 1402 648 1402 555 1407 c 0,19,20
 483 1407 483 1407 438 1365.5 c 128,-1,21
 393 1324 393 1324 383 1266 c 1,22,23
 383 1166 383 1166 424 1110 c 0,24,25
 448 1078 448 1078 463 1063 c 0,26,27
 489 1029 489 1029 504 1018 c 2,28,-1
 813 705 l 2,29,30
 894 624 894 624 938.5 538.5 c 128,-1,31
 983 453 983 453 985 383 c 0,32,33
 985 313 985 313 946.5 233.5 c 128,-1,34
 908 154 908 154 795 66 c 1,35,36
 824 -18 824 -18 831 -59 c 1,37,38
 831 -152 831 -152 796.5 -237 c 128,-1,39
 762 -322 762 -322 681.5 -378 c 128,-1,40
 601 -434 601 -434 475 -434 c 1,41,42
 381 -430 381 -430 312.5 -397 c 128,-1,43
 244 -364 244 -364 212 -318.5 c 128,-1,44
 180 -273 180 -273 180 -229 c 0,45,46
 180 -190 180 -190 201.5 -171 c 128,-1,47
 223 -152 223 -152 248 -152 c 0,48,49
 303 -152 303 -152 338 -217 c 0,50,51
 341 -224 341 -224 356 -274 c 0,52,53
 360 -282 360 -282 370.5 -301.5 c 128,-1,54
 381 -321 381 -321 400.5 -340.5 c 128,-1,55
 420 -360 420 -360 454.5 -374.5 c 128,-1,56
 489 -389 489 -389 535 -389 c 0,57,58
 600 -384 600 -384 649 -339.5 c 128,-1,59
 698 -295 698 -295 711 -217 c 0,60,61
 715 -193 715 -193 715 -182 c 0,62,63
 715 -122 715 -122 681.5 -62 c 128,-1,64
 648 -2 648 -2 608 37 c 2,65,-1
 270 379 l 2,66,67
 262 385 262 385 250 399.5 c 128,-1,68
 238 414 238 414 231 420 c 0,69,70
 188 472 188 472 180 481 c 0,71,72
 109 581 109 581 94 686 c 0,73,74
 92 702 92 702 92 731 c 0,75,76
 92 837 92 837 137.5 911.5 c 128,-1,77
 183 986 183 986 281 1069 c 1,0,1
682 207 m 2,78,79
 687 202 687 202 692.5 194.5 c 128,-1,80
 698 187 698 187 705 180 c 0,81,82
 714 173 714 173 718.5 166.5 c 128,-1,83
 723 160 723 160 731 150 c 0,84,85
 742 130 742 130 750 123 c 0,86,87
 762 111 762 111 768 109 c 0,88,89
 795 109 795 109 831.5 166 c 128,-1,90
 868 223 868 223 870 266 c 0,91,92
 870 309 870 309 855.5 352.5 c 128,-1,93
 841 396 841 396 813 434 c 0,94,95
 798 453 798 453 760 498 c 0,96,97
 723 543 723 543 688 578 c 2,98,-1
 408 870 l 2,99,100
 400 879 400 879 383 905 c 0,101,102
 372 921 372 921 368 925.5 c 128,-1,103
 364 930 364 930 354 941 c 128,-1,104
 344 952 344 952 340 956 c 0,105,106
 335 967 335 967 317 991 c 1,107,108
 302 1020 302 1020 289 1020 c 0,109,110
 269 1020 269 1020 238 967 c 128,-1,111
 207 914 207 914 207 858 c 0,112,113
 207 757 207 757 258 674.5 c 128,-1,114
 309 592 309 592 403 494 c 2,115,-1
 682 207 l 2,78,79
EndSplineSet
Validated: 1
EndChar

StartChar: uni0401
Encoding: 1025 1025 137
AltUni2: 000401.ffffffff.0
Width: 1452
Flags: W
LayerCount: 3
Fore
SplineSet
1270 293 m 1,0,-1
 1303 293 l 1,1,-1
 1253 0 l 1,2,-1
 145 0 l 1,3,-1
 145 29 l 1,4,5
 247 30 247 30 276 90 c 128,-1,6
 305 150 305 150 305 248 c 2,7,-1
 305 1202 l 2,8,9
 305 1300 305 1300 276 1359 c 128,-1,10
 247 1418 247 1418 145 1419 c 1,11,-1
 145 1452 l 1,12,-1
 1206 1452 l 1,13,-1
 1253 1167 l 1,14,-1
 1206 1167 l 1,15,16
 1182 1246 1182 1246 1110.5 1308.5 c 128,-1,17
 1039 1371 1039 1371 950 1384 c 0,18,19
 942 1386 942 1386 899 1391 c 1,20,-1
 868 1391 l 1,21,-1
 592 1391 l 2,22,23
 463 1391 463 1391 463 1251 c 2,24,-1
 463 823 l 1,25,-1
 864 823 l 2,26,27
 962 823 962 823 993 867 c 128,-1,28
 1024 911 1024 911 1024 973 c 1,29,-1
 1059 973 l 1,30,-1
 1059 600 l 1,31,-1
 1024 600 l 1,32,33
 1024 670 1024 670 984 713 c 128,-1,34
 944 756 944 756 868 756 c 2,35,-1
 463 756 l 1,36,-1
 463 190 l 2,37,38
 463 144 463 144 482 110 c 128,-1,39
 501 76 501 76 528 66 c 0,40,41
 545 59 545 59 584 59 c 0,42,43
 592 57 592 57 608 57 c 2,44,-1
 905 57 l 2,45,46
 993 57 993 57 1098 105.5 c 128,-1,47
 1203 154 1203 154 1270 293 c 1,0,-1
385 1710 m 0,48,49
 385 1757 385 1757 419 1793 c 128,-1,50
 453 1829 453 1829 504 1829 c 0,51,52
 549 1829 549 1829 583.5 1794.5 c 128,-1,53
 618 1760 618 1760 618 1710 c 256,54,55
 618 1660 618 1660 583.5 1627.5 c 128,-1,56
 549 1595 549 1595 504 1595 c 0,57,58
 454 1595 454 1595 419.5 1630.5 c 128,-1,59
 385 1666 385 1666 385 1710 c 0,48,49
836 1710 m 0,60,61
 836 1757 836 1757 870 1793 c 128,-1,62
 904 1829 904 1829 954 1829 c 0,63,64
 1000 1829 1000 1829 1034.5 1794.5 c 128,-1,65
 1069 1760 1069 1760 1069 1710 c 256,66,67
 1069 1660 1069 1660 1034.5 1627.5 c 128,-1,68
 1000 1595 1000 1595 954 1595 c 0,69,70
 905 1595 905 1595 870.5 1630.5 c 128,-1,71
 836 1666 836 1666 836 1710 c 0,60,61
EndSplineSet
Validated: 1
EndChar

StartChar: copyright
Encoding: 169 169 138
Width: 2177
Flags: W
LayerCount: 3
Fore
SplineSet
129 608 m 0,0,1
 129 408 129 408 206 231.5 c 128,-1,2
 283 55 283 55 420 -75.5 c 128,-1,3
 557 -206 557 -206 729.5 -276 c 128,-1,4
 902 -346 902 -346 1087 -346 c 0,5,6
 1288 -346 1288 -346 1466.5 -268 c 128,-1,7
 1645 -190 1645 -190 1774.5 -56 c 128,-1,8
 1904 78 1904 78 1975 250 c 128,-1,9
 2046 422 2046 422 2046 608 c 0,10,11
 2046 795 2046 795 1975 969 c 128,-1,12
 1904 1143 1904 1143 1775 1277 c 128,-1,13
 1646 1411 1646 1411 1468.5 1489 c 128,-1,14
 1291 1567 1291 1567 1087 1567 c 0,15,16
 902 1567 902 1567 727 1495.5 c 128,-1,17
 552 1424 552 1424 417.5 1294 c 128,-1,18
 283 1164 283 1164 206 987 c 128,-1,19
 129 810 129 810 129 608 c 0,0,1
43 608 m 0,20,21
 43 810 43 810 121 1000 c 128,-1,22
 199 1190 199 1190 340 1338 c 128,-1,23
 481 1486 481 1486 674 1569.5 c 128,-1,24
 867 1653 867 1653 1087 1653 c 0,25,26
 1308 1653 1308 1653 1502 1568.5 c 128,-1,27
 1696 1484 1696 1484 1837 1337 c 128,-1,28
 1978 1190 1978 1190 2055 1002 c 128,-1,29
 2132 814 2132 814 2132 608 c 0,30,31
 2132 405 2132 405 2055 217 c 128,-1,32
 1978 29 1978 29 1836 -118.5 c 128,-1,33
 1694 -266 1694 -266 1501 -350 c 128,-1,34
 1308 -434 1308 -434 1087 -434 c 0,35,36
 867 -434 867 -434 675.5 -351 c 128,-1,37
 484 -268 484 -268 341 -119.5 c 128,-1,38
 198 29 198 29 120.5 218.5 c 128,-1,39
 43 408 43 408 43 608 c 0,20,21
1477 961 m 1,40,-1
 1454 961 l 1,41,42
 1430 1028 1430 1028 1376 1082 c 128,-1,43
 1322 1136 1322 1136 1248 1166 c 128,-1,44
 1174 1196 1174 1196 1087 1196 c 0,45,46
 993 1192 993 1192 900 1142.5 c 128,-1,47
 807 1093 807 1093 739.5 962 c 128,-1,48
 672 831 672 831 672 608 c 0,49,50
 672 479 672 479 703 373.5 c 128,-1,51
 734 268 734 268 792.5 190 c 128,-1,52
 851 112 851 112 928.5 69.5 c 128,-1,53
 1006 27 1006 27 1100 20 c 1,54,55
 1259 20 1259 20 1369 96.5 c 128,-1,56
 1479 173 1479 173 1516 317 c 1,57,-1
 1534 317 l 1,58,-1
 1534 70 l 1,59,60
 1458 24 1458 24 1347 -2.5 c 128,-1,61
 1236 -29 1236 -29 1104 -29 c 1,62,63
 934 -14 934 -14 799.5 77 c 128,-1,64
 665 168 665 168 589 310.5 c 128,-1,65
 513 453 513 453 512 608 c 0,66,67
 512 730 512 730 559 846.5 c 128,-1,68
 606 963 606 963 694 1054 c 128,-1,69
 782 1145 782 1145 905.5 1197 c 128,-1,70
 1029 1249 1029 1249 1176 1249 c 0,71,72
 1210 1249 1210 1249 1229 1247 c 0,73,74
 1358 1244 1358 1244 1477 1186 c 1,75,-1
 1477 961 l 1,40,-1
EndSplineSet
Validated: 1
EndChar

StartChar: uni0404
Encoding: 1028 1028 139
AltUni2: 000404.ffffffff.0
Width: 1452
Flags: W
LayerCount: 3
Fore
SplineSet
1260 1077 m 1,0,-1
 1257 1071 l 1,1,2
 1210 1226 1210 1226 1093.5 1314 c 128,-1,3
 977 1402 977 1402 836 1407 c 1,4,5
 682 1407 682 1407 576 1336 c 128,-1,6
 470 1265 470 1265 412.5 1158 c 128,-1,7
 355 1051 355 1051 338 934 c 1,8,9
 338 855 338 855 393.5 808.5 c 128,-1,10
 449 762 449 762 522 762 c 1,11,12
 568 767 568 767 623 784 c 0,13,14
 643 794 643 794 680 809 c 128,-1,15
 717 824 717 824 727 829 c 0,16,17
 819 868 819 868 868 868 c 0,18,19
 947 868 947 868 1029 806 c 128,-1,20
 1111 744 1111 744 1151 692 c 1,21,-1
 1128 672 l 1,22,23
 1076 728 1076 728 1012 737 c 1,24,-1
 938 737 l 1,25,26
 893 727 893 727 808.5 682 c 128,-1,27
 724 637 724 637 651 637 c 0,28,29
 492 637 492 637 326 813 c 1,30,31
 315 768 315 768 315 676 c 1,32,33
 339 334 339 334 497.5 182.5 c 128,-1,34
 656 31 656 31 842 31 c 0,35,36
 928 31 928 31 1023 68 c 128,-1,37
 1118 105 1118 105 1192 179 c 128,-1,38
 1266 253 1266 253 1294 356 c 1,39,-1
 1327 356 l 1,40,-1
 1315 47 l 1,41,42
 1187 6 1187 6 1090.5 -12.5 c 128,-1,43
 994 -31 994 -31 905 -31 c 0,44,45
 858 -31 858 -31 836 -29 c 0,46,47
 624 -9 624 -9 463 102 c 128,-1,48
 302 213 302 213 214.5 384 c 128,-1,49
 127 555 127 555 127 745 c 2,50,-1
 127 750 l 2,51,52
 127 884 127 884 183 1015 c 128,-1,53
 239 1146 239 1146 341 1251 c 128,-1,54
 443 1356 443 1356 584.5 1418.5 c 128,-1,55
 726 1481 726 1481 893 1481 c 0,56,57
 974 1478 974 1478 1064.5 1449.5 c 128,-1,58
 1155 1421 1155 1421 1276 1356 c 1,59,-1
 1286 1077 l 1,60,-1
 1260 1077 l 1,0,-1
EndSplineSet
Validated: 1
EndChar

StartChar: guillemotleft
Encoding: 171 171 140
Width: 1087
Flags: W
LayerCount: 3
Fore
SplineSet
905 977 m 1,0,-1
 950 932 l 1,1,-1
 578 561 l 1,2,-1
 950 186 l 1,3,-1
 905 145 l 1,4,-1
 492 561 l 1,5,-1
 905 977 l 1,0,-1
535 977 m 1,6,-1
 580 932 l 1,7,-1
 207 561 l 1,8,-1
 580 186 l 1,9,-1
 535 145 l 1,10,-1
 121 561 l 1,11,-1
 535 977 l 1,6,-1
EndSplineSet
Validated: 1
EndChar

StartChar: logicalnot
Encoding: 172 172 141
Width: 723
Flags: W
LayerCount: 3
Fore
SplineSet
162 440 m 1,0,-1
 162 557 l 1,1,-1
 567 557 l 1,2,-1
 567 440 l 1,3,-1
 162 440 l 1,0,-1
EndSplineSet
Validated: 1
EndChar

StartChar: uni00AD
Encoding: 173 173 142
Width: 1452
Flags: W
LayerCount: 3
Fore
SplineSet
104 848 m 1,0,-1
 762 848 l 1,1,-1
 963 1319 l 1,2,-1
 1030 1290 l 1,3,-1
 848 848 l 1,4,-1
 1346 848 l 1,5,-1
 1346 750 l 1,6,-1
 807 750 l 1,7,-1
 729 557 l 1,8,-1
 1346 557 l 1,9,-1
 1346 463 l 1,10,-1
 690 463 l 1,11,-1
 463 -88 l 1,12,-1
 381 -53 l 1,13,-1
 600 463 l 1,14,-1
 104 463 l 1,15,-1
 104 557 l 1,16,-1
 639 557 l 1,17,-1
 721 750 l 1,18,-1
 104 750 l 1,19,-1
 104 848 l 1,0,-1
EndSplineSet
Validated: 1
EndChar

StartChar: registered
Encoding: 174 174 143
Width: 1333
Flags: W
LayerCount: 3
Fore
SplineSet
424 1468 m 1,0,-1
 424 1454 l 1,1,2
 468 1453 468 1453 480 1427 c 128,-1,3
 492 1401 492 1401 492 1362 c 2,4,-1
 492 967 l 2,5,6
 492 927 492 927 480.5 902 c 128,-1,7
 469 877 469 877 424 874 c 1,8,-1
 424 860 l 1,9,-1
 623 860 l 1,10,-1
 623 874 l 1,11,12
 578 877 578 877 566.5 902 c 128,-1,13
 555 927 555 927 555 967 c 2,14,-1
 555 1114 l 1,15,-1
 563 1114 l 2,16,17
 570 1114 570 1114 583 1112 c 128,-1,18
 596 1110 596 1110 602 1110 c 2,19,-1
 672 1110 l 1,20,21
 691 1015 691 1015 764 925.5 c 128,-1,22
 837 836 837 836 932 774 c 1,23,-1
 940 788 l 1,24,25
 879 842 879 842 823 942.5 c 128,-1,26
 767 1043 767 1043 752 1122 c 1,27,28
 903 1171 903 1171 903 1305 c 0,29,30
 900 1408 900 1408 829 1438 c 128,-1,31
 758 1468 758 1468 686 1468 c 2,32,-1
 424 1468 l 1,0,-1
555 1139 m 1,33,-1
 555 1374 l 1,34,-1
 555 1389 l 2,35,36
 555 1403 555 1403 557 1413 c 0,37,38
 567 1442 567 1442 653 1442 c 0,39,40
 715 1442 715 1442 772.5 1414.5 c 128,-1,41
 830 1387 830 1387 831 1294 c 0,42,43
 831 1226 831 1226 781 1182 c 128,-1,44
 731 1138 731 1138 635 1137 c 0,45,46
 580 1137 580 1137 555 1139 c 1,33,-1
57 1165 m 0,47,48
 57 1282 57 1282 102.5 1393.5 c 128,-1,49
 148 1505 148 1505 230 1590.5 c 128,-1,50
 312 1676 312 1676 423.5 1725 c 128,-1,51
 535 1774 535 1774 666 1774 c 0,52,53
 838 1774 838 1774 977.5 1689.5 c 128,-1,54
 1117 1605 1117 1605 1196.5 1464.5 c 128,-1,55
 1276 1324 1276 1324 1276 1165 c 256,56,57
 1276 1006 1276 1006 1196.5 866 c 128,-1,58
 1117 726 1117 726 977.5 641.5 c 128,-1,59
 838 557 838 557 666 557 c 0,60,61
 537 557 537 557 424 606.5 c 128,-1,62
 311 656 311 656 229 742.5 c 128,-1,63
 147 829 147 829 102 939 c 128,-1,64
 57 1049 57 1049 57 1165 c 0,47,48
123 1165 m 0,65,66
 123 1059 123 1059 164 960.5 c 128,-1,67
 205 862 205 862 277.5 786.5 c 128,-1,68
 350 711 350 711 450 667 c 128,-1,69
 550 623 550 623 666 623 c 0,70,71
 821 623 821 623 945.5 698 c 128,-1,72
 1070 773 1070 773 1141 897.5 c 128,-1,73
 1212 1022 1212 1022 1212 1165 c 0,74,75
 1212 1317 1212 1317 1136.5 1442 c 128,-1,76
 1061 1567 1061 1567 934.5 1638.5 c 128,-1,77
 808 1710 808 1710 666 1710 c 0,78,79
 559 1710 559 1710 462 1670 c 128,-1,80
 365 1630 365 1630 288.5 1557 c 128,-1,81
 212 1484 212 1484 167.5 1383 c 128,-1,82
 123 1282 123 1282 123 1165 c 0,65,66
EndSplineSet
Validated: 9
EndChar

StartChar: uni0407
Encoding: 1031 1031 144
AltUni2: 000407.ffffffff.0
Width: 905
Flags: W
LayerCount: 3
Fore
SplineSet
213 1452 m 1,0,-1
 692 1452 l 1,1,-1
 692 1419 l 1,2,3
 591 1418 591 1418 561.5 1358 c 128,-1,4
 532 1298 532 1298 532 1202 c 2,5,-1
 532 248 l 2,6,7
 532 152 532 152 561.5 91 c 128,-1,8
 591 30 591 30 692 29 c 1,9,-1
 692 0 l 1,10,-1
 213 0 l 1,11,-1
 213 29 l 1,12,13
 284 30 284 30 319 61 c 128,-1,14
 354 92 354 92 363.5 137.5 c 128,-1,15
 373 183 373 183 373 248 c 2,16,-1
 373 1202 l 2,17,18
 373 1266 373 1266 363.5 1311.5 c 128,-1,19
 354 1357 354 1357 319.5 1387.5 c 128,-1,20
 285 1418 285 1418 213 1419 c 1,21,-1
 213 1452 l 1,0,-1
139 1710 m 0,22,23
 139 1757 139 1757 173 1793 c 128,-1,24
 207 1829 207 1829 258 1829 c 0,25,26
 302 1829 302 1829 337.5 1794.5 c 128,-1,27
 373 1760 373 1760 373 1710 c 256,28,29
 373 1660 373 1660 338 1627.5 c 128,-1,30
 303 1595 303 1595 258 1595 c 0,31,32
 208 1595 208 1595 173.5 1630.5 c 128,-1,33
 139 1666 139 1666 139 1710 c 0,22,23
532 1710 m 0,34,35
 532 1758 532 1758 565 1793.5 c 128,-1,36
 598 1829 598 1829 647 1829 c 0,37,38
 698 1829 698 1829 732 1793 c 128,-1,39
 766 1757 766 1757 766 1710 c 0,40,41
 766 1660 766 1660 730.5 1627.5 c 128,-1,42
 695 1595 695 1595 647 1595 c 256,43,44
 599 1595 599 1595 565.5 1630 c 128,-1,45
 532 1665 532 1665 532 1710 c 0,34,35
EndSplineSet
Validated: 1
EndChar

StartChar: degree
Encoding: 176 176 145
Width: 545
Flags: W
LayerCount: 3
Fore
SplineSet
53 1346 m 0,0,1
 53 1399 53 1399 79.5 1442 c 128,-1,2
 106 1485 106 1485 149.5 1509.5 c 128,-1,3
 193 1534 193 1534 242 1534 c 0,4,5
 290 1534 290 1534 333.5 1509.5 c 128,-1,6
 377 1485 377 1485 403.5 1442 c 128,-1,7
 430 1399 430 1399 430 1346 c 0,8,9
 430 1295 430 1295 406.5 1252.5 c 128,-1,10
 383 1210 383 1210 339.5 1183.5 c 128,-1,11
 296 1157 296 1157 242 1157 c 0,12,13
 162 1157 162 1157 107.5 1213.5 c 128,-1,14
 53 1270 53 1270 53 1346 c 0,0,1
109 1346 m 256,15,16
 109 1293 109 1293 147.5 1252.5 c 128,-1,17
 186 1212 186 1212 242 1212 c 0,18,19
 277 1212 277 1212 307.5 1230 c 128,-1,20
 338 1248 338 1248 356.5 1279 c 128,-1,21
 375 1310 375 1310 375 1346 c 0,22,23
 375 1401 375 1401 337.5 1441 c 128,-1,24
 300 1481 300 1481 242 1481 c 0,25,26
 186 1478 186 1478 147.5 1438.5 c 128,-1,27
 109 1399 109 1399 109 1346 c 256,15,16
EndSplineSet
Validated: 1
EndChar

StartChar: plusminus
Encoding: 177 177 146
Width: 1452
Flags: W
LayerCount: 3
Fore
SplineSet
104 705 m 1,0,-1
 676 705 l 1,1,-1
 676 1276 l 1,2,-1
 774 1276 l 1,3,-1
 774 705 l 1,4,-1
 1346 705 l 1,5,-1
 1346 606 l 1,6,-1
 774 606 l 1,7,-1
 774 35 l 1,8,-1
 676 35 l 1,9,-1
 676 606 l 1,10,-1
 104 606 l 1,11,-1
 104 705 l 1,0,-1
141 -244 m 1,12,-1
 141 -145 l 1,13,-1
 1341 -145 l 1,14,-1
 1341 -244 l 1,15,-1
 141 -244 l 1,12,-1
EndSplineSet
Validated: 1
EndChar

StartChar: uni0406
Encoding: 1030 1030 147
AltUni2: 000406.ffffffff.0
Width: 905
Flags: W
LayerCount: 3
Fore
SplineSet
213 1452 m 1,0,-1
 692 1452 l 1,1,-1
 692 1419 l 1,2,3
 591 1418 591 1418 561.5 1358 c 128,-1,4
 532 1298 532 1298 532 1202 c 2,5,-1
 532 248 l 2,6,7
 532 152 532 152 561.5 91 c 128,-1,8
 591 30 591 30 692 29 c 1,9,-1
 692 0 l 1,10,-1
 213 0 l 1,11,-1
 213 29 l 1,12,13
 284 30 284 30 319 61 c 128,-1,14
 354 92 354 92 363.5 137.5 c 128,-1,15
 373 183 373 183 373 248 c 2,16,-1
 373 1202 l 2,17,18
 373 1266 373 1266 363.5 1311.5 c 128,-1,19
 354 1357 354 1357 319.5 1387.5 c 128,-1,20
 285 1418 285 1418 213 1419 c 1,21,-1
 213 1452 l 1,0,-1
EndSplineSet
Validated: 1
EndChar

StartChar: mu
Encoding: 181 181 148
Width: 1223
Flags: W
LayerCount: 3
Fore
SplineSet
117 858 m 1,0,-1
 117 881 l 1,1,2
 190 900 190 900 234 936.5 c 128,-1,3
 278 973 278 973 289 997 c 1,4,-1
 354 997 l 1,5,-1
 354 238 l 2,6,7
 354 148 354 148 375.5 99.5 c 128,-1,8
 397 51 397 51 481 47 c 0,9,10
 546 47 546 47 657 90 c 128,-1,11
 768 133 768 133 840 184 c 1,12,-1
 840 766 l 2,13,14
 840 817 840 817 815 837.5 c 128,-1,15
 790 858 790 858 739 858 c 1,16,-1
 739 881 l 1,17,18
 814 900 814 900 857 936.5 c 128,-1,19
 900 973 900 973 911 997 c 1,20,-1
 977 997 l 1,21,-1
 977 145 l 2,22,23
 977 75 977 75 1004.5 47.5 c 128,-1,24
 1032 20 1032 20 1094 20 c 1,25,-1
 1094 0 l 1,26,-1
 840 0 l 1,27,-1
 840 115 l 1,28,29
 830 111 830 111 824 108 c 128,-1,30
 818 105 818 105 811.5 101.5 c 128,-1,31
 805 98 805 98 797 94 c 0,32,33
 763 79 763 79 722 60.5 c 128,-1,34
 681 42 681 42 643 25 c 0,35,36
 522 -23 522 -23 432 -23 c 0,37,38
 406 -23 406 -23 391 -20 c 0,39,40
 282 -15 282 -15 249.5 37.5 c 128,-1,41
 217 90 217 90 217 180 c 2,42,-1
 217 766 l 2,43,44
 217 817 217 817 192.5 837.5 c 128,-1,45
 168 858 168 858 117 858 c 1,0,-1
EndSplineSet
Validated: 1
EndChar

StartChar: paragraph
Encoding: 182 182 149
Width: 1065
Flags: W
LayerCount: 3
Fore
SplineSet
516 1538 m 1,0,-1
 516 -434 l 1,1,-1
 375 -434 l 1,2,-1
 375 1014 l 1,3,-1
 346 1014 l 2,4,5
 219 1014 219 1014 138 1084.5 c 128,-1,6
 57 1155 57 1155 57 1276 c 0,7,8
 57 1357 57 1357 94 1416.5 c 128,-1,9
 131 1476 131 1476 198 1507 c 128,-1,10
 265 1538 265 1538 346 1538 c 2,11,-1
 516 1538 l 1,0,-1
774 1538 m 1,12,-1
 911 1538 l 1,13,-1
 911 -434 l 1,14,-1
 774 -434 l 1,15,-1
 774 1538 l 1,12,-1
EndSplineSet
Validated: 1
EndChar

StartChar: uni2219
Encoding: 8729 8729 150
Width: 1223
Flags: W
LayerCount: 3
Fore
SplineSet
117 858 m 1,0,-1
 117 881 l 1,1,2
 190 900 190 900 234 936.5 c 128,-1,3
 278 973 278 973 289 997 c 1,4,-1
 354 997 l 1,5,-1
 354 238 l 2,6,7
 354 148 354 148 375.5 99.5 c 128,-1,8
 397 51 397 51 481 47 c 0,9,10
 546 47 546 47 657 90 c 128,-1,11
 768 133 768 133 840 184 c 1,12,-1
 840 766 l 2,13,14
 840 817 840 817 815 837.5 c 128,-1,15
 790 858 790 858 739 858 c 1,16,-1
 739 881 l 1,17,18
 814 900 814 900 857 936.5 c 128,-1,19
 900 973 900 973 911 997 c 1,20,-1
 977 997 l 1,21,-1
 977 145 l 2,22,23
 977 75 977 75 1004.5 47.5 c 128,-1,24
 1032 20 1032 20 1094 20 c 1,25,-1
 1094 0 l 1,26,-1
 840 0 l 1,27,-1
 840 115 l 1,28,29
 830 111 830 111 824 108 c 128,-1,30
 818 105 818 105 811.5 101.5 c 128,-1,31
 805 98 805 98 797 94 c 0,32,33
 763 79 763 79 722 60.5 c 128,-1,34
 681 42 681 42 643 25 c 0,35,36
 522 -23 522 -23 432 -23 c 0,37,38
 406 -23 406 -23 391 -20 c 0,39,40
 282 -15 282 -15 249.5 37.5 c 128,-1,41
 217 90 217 90 217 180 c 2,42,-1
 217 766 l 2,43,44
 217 817 217 817 192.5 837.5 c 128,-1,45
 168 858 168 858 117 858 c 1,0,-1
EndSplineSet
Validated: 1
EndChar

StartChar: uni0451
Encoding: 1105 1105 151
AltUni2: 000451.ffffffff.0
Width: 995
Flags: W
LayerCount: 3
Fore
SplineSet
897 174 m 1,0,-1
 915 158 l 1,1,2
 842 84 842 84 773.5 44.5 c 128,-1,3
 705 5 705 5 650.5 -7.5 c 128,-1,4
 596 -20 596 -20 539 -20 c 0,5,6
 450 -17 450 -17 371.5 25 c 128,-1,7
 293 67 293 67 237 138 c 128,-1,8
 181 209 181 209 150 297.5 c 128,-1,9
 119 386 119 386 117 481 c 0,10,11
 117 632 117 632 175 747.5 c 128,-1,12
 233 863 233 863 326.5 923 c 128,-1,13
 420 983 420 983 522 983 c 0,14,15
 592 982 592 982 656.5 949.5 c 128,-1,16
 721 917 721 917 773.5 854.5 c 128,-1,17
 826 792 826 792 858 709 c 128,-1,18
 890 626 890 626 897 528 c 1,19,-1
 266 528 l 1,20,21
 272 283 272 283 377 163 c 128,-1,22
 482 43 482 43 618 43 c 1,23,24
 746 48 746 48 897 174 c 1,0,-1
752 578 m 1,25,26
 749 656 749 656 722.5 738.5 c 128,-1,27
 696 821 696 821 643.5 875.5 c 128,-1,28
 591 930 591 930 512 934 c 0,29,30
 441 934 441 934 394 905 c 128,-1,31
 347 876 347 876 319 824.5 c 128,-1,32
 291 773 291 773 279 712 c 128,-1,33
 267 651 267 651 264 578 c 1,34,-1
 752 578 l 1,25,26
260 1286 m 0,35,36
 260 1328 260 1328 290.5 1358.5 c 128,-1,37
 321 1389 321 1389 360 1389 c 0,38,39
 402 1389 402 1389 432.5 1358.5 c 128,-1,40
 463 1328 463 1328 463 1286 c 0,41,42
 463 1241 463 1241 432.5 1212.5 c 128,-1,43
 402 1184 402 1184 360 1184 c 0,44,45
 321 1184 321 1184 290.5 1212.5 c 128,-1,46
 260 1241 260 1241 260 1286 c 0,35,36
580 1286 m 0,47,48
 580 1328 580 1328 610.5 1358.5 c 128,-1,49
 641 1389 641 1389 682 1389 c 0,50,51
 702 1389 702 1389 721.5 1381 c 128,-1,52
 741 1373 741 1373 755 1358.5 c 128,-1,53
 769 1344 769 1344 776.5 1325.5 c 128,-1,54
 784 1307 784 1307 784 1286 c 0,55,56
 784 1242 784 1242 754 1213 c 128,-1,57
 724 1184 724 1184 682 1184 c 0,58,59
 641 1184 641 1184 610.5 1212.5 c 128,-1,60
 580 1241 580 1241 580 1286 c 0,47,48
EndSplineSet
Validated: 1
EndChar

StartChar: uni2116
Encoding: 8470 8470 152
AltUni2: 002116.ffffffff.0
Width: 2177
Flags: W
LayerCount: 3
Fore
SplineSet
1554 0 m 1,0,-1
 1554 117 l 1,1,-1
 1989 117 l 1,2,-1
 1989 0 l 1,3,-1
 1554 0 l 1,0,-1
1499 625 m 0,4,5
 1499 713 1499 713 1536.5 785 c 128,-1,6
 1574 857 1574 857 1639.5 897.5 c 128,-1,7
 1705 938 1705 938 1784 938 c 0,8,9
 1873 938 1873 938 1938 890 c 128,-1,10
 2003 842 2003 842 2035.5 769.5 c 128,-1,11
 2068 697 2068 697 2068 625 c 0,12,13
 2068 568 2068 568 2049 512.5 c 128,-1,14
 2030 457 2030 457 1993 411.5 c 128,-1,15
 1956 366 1956 366 1902.5 337.5 c 128,-1,16
 1849 309 1849 309 1784 309 c 0,17,18
 1715 309 1715 309 1650.5 345 c 128,-1,19
 1586 381 1586 381 1544 453.5 c 128,-1,20
 1502 526 1502 526 1499 625 c 0,4,5
1630 625 m 0,21,22
 1630 496 1630 496 1661 425 c 128,-1,23
 1692 354 1692 354 1780 354 c 0,24,25
 1880 354 1880 354 1908.5 435.5 c 128,-1,26
 1937 517 1937 517 1937 625 c 0,27,28
 1937 735 1937 735 1909.5 816 c 128,-1,29
 1882 897 1882 897 1780 897 c 0,30,31
 1719 896 1719 896 1686 859 c 128,-1,32
 1653 822 1653 822 1641.5 764.5 c 128,-1,33
 1630 707 1630 707 1630 625 c 0,21,22
580 1452 m 1,34,-1
 1223 276 l 1,35,-1
 1223 1178 l 2,36,37
 1223 1474 1223 1474 1423 1481 c 0,38,39
 1481 1481 1481 1481 1526.5 1446.5 c 128,-1,40
 1572 1412 1572 1412 1596 1354 c 128,-1,41
 1620 1296 1620 1296 1620 1229 c 1,42,43
 1612 1179 1612 1179 1588.5 1158 c 128,-1,44
 1565 1137 1565 1137 1538 1137 c 0,45,46
 1514 1137 1514 1137 1492 1161.5 c 128,-1,47
 1470 1186 1470 1186 1470 1229 c 0,48,49
 1470 1237 1470 1237 1471 1245.5 c 128,-1,50
 1472 1254 1472 1254 1474 1264.5 c 128,-1,51
 1476 1275 1476 1275 1477 1280 c 0,52,53
 1493 1317 1493 1317 1497 1331 c 1,54,-1
 1497 1372 l 1,55,56
 1493 1391 1493 1391 1470.5 1407 c 128,-1,57
 1448 1423 1448 1423 1417 1423 c 0,58,59
 1363 1419 1363 1419 1324.5 1362.5 c 128,-1,60
 1286 1306 1286 1306 1286 1167 c 2,61,-1
 1292 0 l 1,62,-1
 1206 0 l 1,63,-1
 500 1292 l 1,64,-1
 500 315 l 2,65,66
 500 117 500 117 437.5 44 c 128,-1,67
 375 -29 375 -29 295 -29 c 0,68,69
 223 -29 223 -29 166 34.5 c 128,-1,70
 109 98 109 98 109 190 c 0,71,72
 109 255 109 255 135 299.5 c 128,-1,73
 161 344 161 344 203 344 c 0,74,75
 236 344 236 344 259.5 318 c 128,-1,76
 283 292 283 292 283 246 c 0,77,78
 283 213 283 213 274 186 c 0,79,80
 269 177 269 177 263.5 167.5 c 128,-1,81
 258 158 258 158 253.5 148.5 c 128,-1,82
 249 139 249 139 246 129 c 0,83,84
 236 114 236 114 236 86 c 0,85,86
 238 64 238 64 255.5 46.5 c 128,-1,87
 273 29 273 29 303 29 c 0,88,89
 359 29 359 29 400.5 95.5 c 128,-1,90
 442 162 442 162 442 332 c 2,91,-1
 442 1202 l 2,92,93
 442 1300 442 1300 413 1359 c 128,-1,94
 384 1418 384 1418 283 1419 c 1,95,-1
 283 1452 l 1,96,-1
 580 1452 l 1,34,-1
EndSplineSet
Validated: 1
EndChar

StartChar: uni0454
Encoding: 1108 1108 153
AltUni2: 000454.ffffffff.0
Width: 997
Flags: W
LayerCount: 3
Fore
SplineSet
813 705 m 1,0,1
 794 765 794 765 754.5 815 c 128,-1,2
 715 865 715 865 662 893 c 128,-1,3
 609 921 609 921 543 926 c 1,4,5
 400 926 400 926 330 834.5 c 128,-1,6
 260 743 260 743 260 651 c 0,7,8
 260 592 260 592 287.5 559 c 128,-1,9
 315 526 315 526 350 522 c 1,10,11
 389 522 389 522 403 528 c 0,12,13
 437 538 437 538 510 571 c 0,14,15
 573 596 573 596 608 596 c 1,16,17
 659 590 659 590 717 539 c 0,18,19
 721 536 721 536 733.5 523 c 128,-1,20
 746 510 746 510 762 494 c 0,21,22
 773 481 773 481 788 469 c 1,23,-1
 768 453 l 1,24,25
 723 493 723 493 682 498 c 0,26,27
 659 498 659 498 651 494 c 0,28,29
 648 494 648 494 627.5 487 c 128,-1,30
 607 480 607 480 591.5 472.5 c 128,-1,31
 576 465 576 465 561 459 c 0,32,33
 500 424 500 424 436 424 c 0,34,35
 396 426 396 426 328 475 c 1,36,37
 303 498 303 498 287 506 c 0,38,39
 284 509 284 509 280 511.5 c 128,-1,40
 276 514 276 514 271.5 516.5 c 128,-1,41
 267 519 267 519 264 522 c 0,42,43
 262 522 262 522 261 524 c 128,-1,44
 260 526 260 526 258 526 c 1,45,46
 261 394 261 394 311.5 283 c 128,-1,47
 362 172 362 172 446.5 109.5 c 128,-1,48
 531 47 531 47 629 47 c 0,49,50
 704 48 704 48 774.5 87 c 128,-1,51
 845 126 845 126 899 178 c 1,52,-1
 922 156 l 1,53,54
 855 74 855 74 755.5 27 c 128,-1,55
 656 -20 656 -20 555 -20 c 0,56,57
 440 -18 440 -18 339 49.5 c 128,-1,58
 238 117 238 117 176.5 234.5 c 128,-1,59
 115 352 115 352 115 492 c 0,60,61
 118 596 118 596 154.5 684.5 c 128,-1,62
 191 773 191 773 256.5 839.5 c 128,-1,63
 322 906 322 906 411 942.5 c 128,-1,64
 500 979 500 979 608 979 c 0,65,66
 717 976 717 976 836 909 c 1,67,-1
 842 705 l 1,68,-1
 813 705 l 1,0,1
EndSplineSet
Validated: 1
EndChar

StartChar: guillemotright
Encoding: 187 187 154
Width: 1087
Flags: W
LayerCount: 3
Fore
SplineSet
180 977 m 1,0,-1
 596 561 l 1,1,-1
 180 145 l 1,2,-1
 137 186 l 1,3,-1
 510 561 l 1,4,-1
 137 932 l 1,5,-1
 180 977 l 1,0,-1
551 977 m 1,6,-1
 967 561 l 1,7,-1
 551 145 l 1,8,-1
 506 186 l 1,9,-1
 881 561 l 1,10,-1
 506 932 l 1,11,-1
 551 977 l 1,6,-1
EndSplineSet
Validated: 1
EndChar

StartChar: uni0458
Encoding: 1112 1112 155
AltUni2: 000458.ffffffff.0
Width: 723
Flags: W
LayerCount: 3
Fore
SplineSet
209 858 m 1,0,-1
 209 881 l 1,1,2
 328 911 328 911 385 997 c 1,3,-1
 446 997 l 1,4,-1
 446 -78 l 2,5,6
 446 -181 446 -181 432 -266.5 c 128,-1,7
 418 -352 418 -352 362.5 -418 c 128,-1,8
 307 -484 307 -484 197 -487 c 0,9,10
 133 -487 133 -487 93 -454 c 128,-1,11
 53 -421 53 -421 53 -379 c 0,12,13
 53 -342 53 -342 77.5 -320.5 c 128,-1,14
 102 -299 102 -299 137 -299 c 0,15,16
 196 -299 196 -299 231 -356 c 0,17,18
 234 -358 234 -358 238.5 -365 c 128,-1,19
 243 -372 243 -372 248 -379 c 0,20,21
 257 -395 257 -395 274 -397 c 0,22,23
 301 -397 301 -397 316.5 -380.5 c 128,-1,24
 332 -364 332 -364 332 -309 c 0,25,26
 332 -296 332 -296 330 -272 c 128,-1,27
 328 -248 328 -248 328 -238 c 0,28,29
 325 -194 325 -194 317 -156 c 0,30,31
 316 -147 316 -147 315.5 -139.5 c 128,-1,32
 315 -132 315 -132 313.5 -122 c 128,-1,33
 312 -112 312 -112 311 -104 c 0,34,35
 311 -89 311 -89 310.5 -79.5 c 128,-1,36
 310 -70 310 -70 309 -59 c 2,37,-1
 309 766 l 2,38,39
 309 817 309 817 285.5 837.5 c 128,-1,40
 262 858 262 858 209 858 c 1,0,-1
276 1286 m 0,41,42
 276 1326 276 1326 305 1357.5 c 128,-1,43
 334 1389 334 1389 379 1389 c 0,44,45
 421 1389 421 1389 451 1357 c 128,-1,46
 481 1325 481 1325 481 1286 c 0,47,48
 481 1244 481 1244 451 1214 c 128,-1,49
 421 1184 421 1184 379 1184 c 0,50,51
 334 1184 334 1184 305 1214 c 128,-1,52
 276 1244 276 1244 276 1286 c 0,41,42
EndSplineSet
Validated: 1
EndChar

StartChar: uni0405
Encoding: 1029 1029 156
AltUni2: 000405.ffffffff.0
Width: 1403
Flags: W
LayerCount: 3
Fore
SplineSet
1085 1133 m 1,0,-1
 1047 1133 l 1,1,2
 1023 1210 1023 1210 961.5 1277 c 128,-1,3
 900 1344 900 1344 820 1380.5 c 128,-1,4
 740 1417 740 1417 653 1419 c 0,5,6
 516 1419 516 1419 450.5 1346 c 128,-1,7
 385 1273 385 1273 385 1180 c 0,8,9
 385 1117 385 1117 413.5 1069 c 128,-1,10
 442 1021 442 1021 492 983.5 c 128,-1,11
 542 946 542 946 600 917 c 128,-1,12
 658 888 658 888 752 846 c 0,13,14
 849 806 849 806 944 762 c 1,15,16
 1035 715 1035 715 1121.5 627 c 128,-1,17
 1208 539 1208 539 1208 389 c 0,18,19
 1208 290 1208 290 1153.5 194.5 c 128,-1,20
 1099 99 1099 99 992 38 c 128,-1,21
 885 -23 885 -23 739 -29 c 1,22,23
 586 -29 586 -29 468 6.5 c 128,-1,24
 350 42 350 42 209 111 c 1,25,-1
 195 389 l 1,26,-1
 231 389 l 1,27,28
 261 280 261 280 338 199 c 128,-1,29
 415 118 415 118 514.5 75 c 128,-1,30
 614 32 614 32 709 29 c 0,31,32
 807 29 807 29 882.5 67.5 c 128,-1,33
 958 106 958 106 1001 172.5 c 128,-1,34
 1044 239 1044 239 1047 322 c 0,35,36
 1047 426 1047 426 996 486.5 c 128,-1,37
 945 547 945 547 860 590 c 0,38,39
 794 620 794 620 698 659 c 0,40,41
 568 717 568 717 493.5 757.5 c 128,-1,42
 419 798 419 798 361.5 849.5 c 128,-1,43
 304 901 304 901 275 965.5 c 128,-1,44
 246 1030 246 1030 246 1116 c 0,45,46
 252 1278 252 1278 368.5 1379.5 c 128,-1,47
 485 1481 485 1481 688 1481 c 1,48,49
 888 1471 888 1471 1063 1368 c 1,50,-1
 1085 1133 l 1,0,-1
EndSplineSet
Validated: 1
EndChar

StartChar: uni0455
Encoding: 1109 1109 157
AltUni2: 000455.ffffffff.0
Width: 995
Flags: W
LayerCount: 3
Fore
SplineSet
762 733 m 1,0,-1
 739 733 l 1,1,2
 673 926 673 926 463 926 c 0,3,4
 370 926 370 926 314 881.5 c 128,-1,5
 258 837 258 837 258 774 c 0,6,7
 258 720 258 720 288.5 691.5 c 128,-1,8
 319 663 319 663 383 635 c 2,9,-1
 682 512 l 2,10,11
 783 473 783 473 823.5 404 c 128,-1,12
 864 335 864 335 864 236 c 1,13,14
 855 119 855 119 759 49.5 c 128,-1,15
 663 -20 663 -20 520 -20 c 0,16,17
 402 -20 402 -20 295 2 c 0,18,19
 268 11 268 11 242 18.5 c 128,-1,20
 216 26 216 26 201 31 c 0,21,22
 195 35 195 35 188 37 c 128,-1,23
 181 39 181 39 174 41 c 1,24,-1
 152 270 l 1,25,-1
 174 270 l 1,26,27
 223 146 223 146 320.5 87.5 c 128,-1,28
 418 29 418 29 520 29 c 0,29,30
 620 29 620 29 691.5 73.5 c 128,-1,31
 763 118 763 118 766 209 c 0,32,33
 766 324 766 324 612 383 c 2,34,-1
 356 481 l 2,35,36
 250 523 250 523 209 584 c 128,-1,37
 168 645 168 645 168 733 c 1,38,39
 175 848 175 848 263.5 913.5 c 128,-1,40
 352 979 352 979 475 979 c 0,41,42
 576 979 576 979 666 954 c 0,43,44
 682 950 682 950 706 942.5 c 128,-1,45
 730 935 730 935 743 932 c 0,46,47
 747 932 747 932 753 930 c 128,-1,48
 759 928 759 928 762 928 c 2,49,-1
 762 733 l 1,0,-1
EndSplineSet
Validated: 1
EndChar

StartChar: uni0457
Encoding: 1111 1111 158
AltUni2: 000457.ffffffff.0
Width: 680
Flags: W
LayerCount: 3
Fore
SplineSet
184 852 m 1,0,-1
 184 874 l 1,1,2
 291 902 291 902 360 991 c 1,3,-1
 424 991 l 1,4,-1
 424 145 l 2,5,6
 424 77 424 77 452 48.5 c 128,-1,7
 480 20 480 20 543 20 c 1,8,-1
 543 0 l 1,9,-1
 168 0 l 1,10,-1
 168 20 l 1,11,12
 244 20 244 20 274 70 c 0,13,14
 283 82 283 82 283 121 c 0,15,16
 283 124 283 124 285 133 c 128,-1,17
 287 142 287 142 287 145 c 2,18,-1
 287 760 l 2,19,20
 287 852 287 852 184 852 c 1,0,-1
82 1292 m 0,21,22
 82 1335 82 1335 112 1363 c 128,-1,23
 142 1391 142 1391 184 1391 c 0,24,25
 227 1391 227 1391 255 1361 c 128,-1,26
 283 1331 283 1331 283 1292 c 0,27,28
 283 1250 283 1250 255 1220 c 128,-1,29
 227 1190 227 1190 184 1190 c 0,30,31
 142 1190 142 1190 112 1219 c 128,-1,32
 82 1248 82 1248 82 1292 c 0,21,22
395 1292 m 0,33,34
 395 1331 395 1331 424 1361 c 128,-1,35
 453 1391 453 1391 498 1391 c 0,36,37
 540 1391 540 1391 568 1361 c 128,-1,38
 596 1331 596 1331 596 1292 c 0,39,40
 596 1250 596 1250 568 1220 c 128,-1,41
 540 1190 540 1190 498 1190 c 0,42,43
 453 1190 453 1190 424 1220 c 128,-1,44
 395 1250 395 1250 395 1292 c 0,33,34
EndSplineSet
Validated: 1
EndChar

StartChar: uni0410
Encoding: 1040 1040 159
AltUni2: 000410.ffffffff.0
Width: 1497
Flags: W
LayerCount: 3
Fore
SplineSet
500 1294 m 1,0,-1
 500 1331 l 1,1,2
 593 1350 593 1350 648 1395.5 c 128,-1,3
 703 1441 703 1441 723 1522 c 1,4,-1
 813 1522 l 1,5,-1
 1219 223 l 2,6,7
 1239 152 1239 152 1281.5 92.5 c 128,-1,8
 1324 33 1324 33 1425 25 c 1,9,-1
 1425 0 l 1,10,-1
 926 0 l 1,11,-1
 926 25 l 1,12,13
 1069 25 1069 25 1069 127 c 0,14,15
 1069 159 1069 159 1059 184 c 2,16,-1
 983 446 l 1,17,-1
 412 446 l 1,18,-1
 326 201 l 2,19,20
 315 179 315 179 315 143 c 0,21,22
 315 37 315 37 434 25 c 1,23,-1
 434 0 l 1,24,-1
 53 0 l 1,25,-1
 53 25 l 1,26,27
 144 43 144 43 192 94.5 c 128,-1,28
 240 146 240 146 258 197 c 2,29,-1
 602 1167 l 2,30,31
 612 1195 612 1195 614 1212 c 0,32,33
 614 1245 614 1245 612 1260 c 0,34,35
 609 1265 609 1265 607.5 1269.5 c 128,-1,36
 606 1274 606 1274 602 1276 c 0,37,38
 592 1286 592 1286 586 1288 c 0,39,40
 571 1298 571 1298 539 1298 c 0,41,42
 512 1298 512 1298 500 1294 c 1,0,-1
709 1288 m 1,43,-1
 434 510 l 1,44,-1
 956 510 l 1,45,-1
 709 1288 l 1,43,-1
EndSplineSet
Validated: 1
EndChar

StartChar: uni0411
Encoding: 1041 1041 160
AltUni2: 000411.ffffffff.0
Width: 1540
Flags: W
LayerCount: 3
Fore
SplineSet
172 1419 m 1,0,-1
 172 1452 l 1,1,-1
 829 1452 l 2,2,3
 996 1452 996 1452 1088.5 1393.5 c 128,-1,4
 1181 1335 1181 1335 1214 1258.5 c 128,-1,5
 1247 1182 1247 1182 1247 1116 c 0,6,7
 1247 1051 1247 1051 1219.5 981.5 c 128,-1,8
 1192 912 1192 912 1122.5 855.5 c 128,-1,9
 1053 799 1053 799 934 778 c 1,10,11
 1089 753 1089 753 1182 693 c 128,-1,12
 1275 633 1275 633 1312.5 554.5 c 128,-1,13
 1350 476 1350 476 1350 383 c 0,14,15
 1350 326 1350 326 1330 262 c 128,-1,16
 1310 198 1310 198 1258 137 c 128,-1,17
 1206 76 1206 76 1112 38 c 128,-1,18
 1018 0 1018 0 881 0 c 2,19,-1
 172 0 l 1,20,-1
 172 29 l 1,21,22
 274 30 274 30 303 90 c 128,-1,23
 332 150 332 150 332 248 c 2,24,-1
 332 1202 l 2,25,26
 332 1300 332 1300 303 1359 c 128,-1,27
 274 1418 274 1418 172 1419 c 1,0,-1
492 784 m 1,28,-1
 766 784 l 2,29,30
 844 784 844 784 902 807.5 c 128,-1,31
 960 831 960 831 1000.5 874.5 c 128,-1,32
 1041 918 1041 918 1061 975.5 c 128,-1,33
 1081 1033 1081 1033 1081 1100 c 0,34,35
 1080 1181 1080 1181 1043 1248 c 128,-1,36
 1006 1315 1006 1315 942.5 1353 c 128,-1,37
 879 1391 879 1391 803 1391 c 2,38,-1
 596 1391 l 2,39,40
 557 1391 557 1391 524.5 1362 c 128,-1,41
 492 1333 492 1333 492 1264 c 2,42,-1
 492 784 l 1,28,-1
492 727 m 1,43,-1
 492 195 l 2,44,45
 492 143 492 143 500 115.5 c 128,-1,46
 508 88 508 88 535.5 72.5 c 128,-1,47
 563 57 563 57 623 57 c 2,48,-1
 831 57 l 2,49,50
 922 57 922 57 996.5 102.5 c 128,-1,51
 1071 148 1071 148 1113 221.5 c 128,-1,52
 1155 295 1155 295 1157 379 c 0,53,54
 1157 449 1157 449 1132.5 525 c 128,-1,55
 1108 601 1108 601 1020 664 c 128,-1,56
 932 727 932 727 762 727 c 2,57,-1
 492 727 l 1,43,-1
EndSplineSet
Validated: 1
EndChar

StartChar: uni0412
Encoding: 1042 1042 161
AltUni2: 000412.ffffffff.0
Width: 1540
Flags: W
LayerCount: 3
Fore
SplineSet
813 197 m 1,0,-1
 1186 1180 l 2,1,2
 1209 1244 1209 1244 1212 1274 c 0,3,4
 1212 1357 1212 1357 1168.5 1390 c 128,-1,5
 1125 1423 1125 1423 1069 1425 c 1,6,-1
 1069 1452 l 1,7,-1
 1470 1452 l 1,8,-1
 1470 1425 l 1,9,10
 1395 1416 1395 1416 1352 1378.5 c 128,-1,11
 1309 1341 1309 1341 1280 1264 c 2,12,-1
 797 -29 l 1,13,-1
 721 -29 l 1,14,-1
 281 1225 l 2,15,16
 249 1317 249 1317 209.5 1367 c 128,-1,17
 170 1417 170 1417 70 1417 c 1,18,-1
 70 1452 l 1,19,-1
 522 1452 l 1,20,-1
 522 1425 l 1,21,22
 506 1425 506 1425 500 1423 c 0,23,24
 483 1423 483 1423 475 1419 c 0,25,26
 454 1417 454 1417 433.5 1401.5 c 128,-1,27
 413 1386 413 1386 412 1354 c 0,28,29
 412 1328 412 1328 424 1282 c 1,30,-1
 813 197 l 1,0,-1
EndSplineSet
Validated: 1
EndChar

StartChar: uni0413
Encoding: 1043 1043 162
AltUni2: 000413.ffffffff.0
Width: 1679
Flags: W
LayerCount: 3
Fore
SplineSet
1294 1139 m 1,0,-1
 1270 1139 l 1,1,2
 1240 1219 1240 1219 1175 1282.5 c 128,-1,3
 1110 1346 1110 1346 1021 1381.5 c 128,-1,4
 932 1417 932 1417 831 1417 c 1,5,6
 732 1412 732 1412 622.5 1360 c 128,-1,7
 513 1308 513 1308 426.5 1154.5 c 128,-1,8
 340 1001 340 1001 340 721 c 0,9,10
 340 403 340 403 487 221.5 c 128,-1,11
 634 40 634 40 848 29 c 1,12,-1
 918 29 l 1,13,14
 1036 35 1036 35 1102.5 60.5 c 128,-1,15
 1169 86 1169 86 1198 123.5 c 128,-1,16
 1227 161 1227 161 1234 198.5 c 128,-1,17
 1241 236 1241 236 1241 287 c 2,18,-1
 1241 573 l 2,19,20
 1241 659 1241 659 1219 721 c 1,21,22
 1176 791 1176 791 1087 797 c 1,23,-1
 1087 825 l 1,24,-1
 1544 825 l 1,25,-1
 1544 797 l 1,26,27
 1403 788 1403 788 1403 618 c 2,28,-1
 1403 311 l 2,29,30
 1403 137 1403 137 1544 123 c 1,31,32
 1353 35 1353 35 1228.5 4.5 c 128,-1,33
 1104 -26 1104 -26 956 -29 c 0,34,35
 718 -29 718 -29 535.5 58 c 128,-1,36
 353 145 353 145 251.5 315.5 c 128,-1,37
 150 486 150 486 150 723 c 0,38,39
 153 893 153 893 209.5 1032 c 128,-1,40
 266 1171 266 1171 368 1272.5 c 128,-1,41
 470 1374 470 1374 607.5 1427.5 c 128,-1,42
 745 1481 745 1481 903 1481 c 0,43,44
 1038 1481 1038 1481 1130.5 1458 c 128,-1,45
 1223 1435 1223 1435 1294 1401 c 1,46,-1
 1294 1139 l 1,0,-1
EndSplineSet
Validated: 1
EndChar

StartChar: uni0414
Encoding: 1044 1044 163
AltUni2: 000414.ffffffff.0
Width: 1679
Flags: W
LayerCount: 3
Fore
SplineSet
158 1452 m 1,0,-1
 743 1452 l 2,1,2
 868 1452 868 1452 1032 1413 c 128,-1,3
 1196 1374 1196 1374 1348 1219.5 c 128,-1,4
 1500 1065 1500 1065 1505 762 c 1,5,6
 1505 472 1505 472 1366 260 c 1,7,8
 1266 138 1266 138 1120 69 c 128,-1,9
 974 0 974 0 737 0 c 2,10,-1
 158 0 l 1,11,-1
 158 29 l 1,12,13
 259 30 259 30 288 88.5 c 128,-1,14
 317 147 317 147 317 248 c 2,15,-1
 317 1202 l 2,16,17
 317 1303 317 1303 288 1360.5 c 128,-1,18
 259 1418 259 1418 158 1419 c 1,19,-1
 158 1452 l 1,0,-1
475 225 m 2,20,21
 475 166 475 166 485 134.5 c 128,-1,22
 495 103 495 103 517.5 87 c 128,-1,23
 540 71 540 71 573 67 c 128,-1,24
 606 63 606 63 657 63 c 0,25,26
 784 63 784 63 886 80 c 128,-1,27
 988 97 988 97 1087 158.5 c 128,-1,28
 1186 220 1186 220 1250 354.5 c 128,-1,29
 1314 489 1314 489 1317 709 c 0,30,31
 1317 901 1317 901 1270 1032.5 c 128,-1,32
 1223 1164 1223 1164 1152.5 1236 c 128,-1,33
 1082 1308 1082 1308 1006 1340.5 c 128,-1,34
 930 1373 930 1373 860 1382 c 0,35,36
 819 1384 819 1384 739 1384 c 2,37,-1
 618 1384 l 2,38,39
 550 1381 550 1381 520.5 1362.5 c 128,-1,40
 491 1344 491 1344 483 1302.5 c 128,-1,41
 475 1261 475 1261 475 1165 c 2,42,-1
 475 225 l 2,20,21
EndSplineSet
Validated: 1
EndChar

StartChar: uni0415
Encoding: 1045 1045 164
AltUni2: 000415.ffffffff.0
Width: 1452
Flags: W
LayerCount: 3
Fore
SplineSet
1274 293 m 1,0,-1
 1309 293 l 1,1,-1
 1257 0 l 1,2,-1
 152 0 l 1,3,-1
 152 29 l 1,4,5
 253 30 253 30 282 90 c 128,-1,6
 311 150 311 150 311 248 c 2,7,-1
 311 1202 l 2,8,9
 311 1300 311 1300 282 1359 c 128,-1,10
 253 1418 253 1418 152 1419 c 1,11,-1
 152 1452 l 1,12,-1
 1212 1452 l 1,13,-1
 1257 1167 l 1,14,-1
 1212 1167 l 1,15,16
 1188 1246 1188 1246 1116.5 1308.5 c 128,-1,17
 1045 1371 1045 1371 956 1384 c 0,18,19
 951 1386 951 1386 905 1391 c 1,20,-1
 874 1391 l 1,21,-1
 600 1391 l 2,22,23
 469 1391 469 1391 469 1251 c 2,24,-1
 469 823 l 1,25,-1
 870 823 l 2,26,27
 1030 823 1030 823 1030 973 c 1,28,-1
 1063 973 l 1,29,-1
 1063 600 l 1,30,-1
 1030 600 l 1,31,32
 1030 671 1030 671 989.5 713.5 c 128,-1,33
 949 756 949 756 870 756 c 2,34,-1
 469 756 l 1,35,-1
 469 190 l 2,36,37
 469 144 469 144 488 110 c 128,-1,38
 507 76 507 76 535 66 c 0,39,40
 551 59 551 59 590 59 c 0,41,42
 596 57 596 57 614 57 c 2,43,-1
 909 57 l 2,44,45
 961 57 961 57 1024.5 73 c 128,-1,46
 1088 89 1088 89 1158 142 c 128,-1,47
 1228 195 1228 195 1274 293 c 1,0,-1
EndSplineSet
Validated: 1
EndChar

StartChar: uni0416
Encoding: 1046 1046 165
AltUni2: 000416.ffffffff.0
Width: 1360
Flags: W
LayerCount: 3
Fore
SplineSet
560.05078125 692.260742188 m 1,0,-1
 88 0 l 1,1,-1
 1137 0 l 1,2,-1
 1235 309 l 1,3,-1
 1194 309 l 1,4,5
 1056 57 1056 57 573 57 c 2,6,-1
 328 57 l 1,7,-1
 756 687 l 1,8,-1
 1116 688 l 1,9,-1
 1115 813 l 1,10,-1
 819 809 l 17,11,-1
 1235 1452 l 1,12,-1
 260 1452 l 1,13,-1
 158 1161 l 1,14,-1
 195 1161 l 1,15,16
 261 1266 261 1266 364.5 1317.5 c 128,-1,17
 468 1369 468 1369 560 1382 c 128,-1,18
 652 1395 652 1395 745 1395 c 2,19,-1
 1001 1395 l 1,20,-1
 627 821 l 1,21,-1
 236 823 l 5,22,-1
 236 695 l 5,23,-1
 560.05078125 692.260742188 l 1,0,-1
EndSplineSet
Validated: 524297
EndChar

StartChar: uni0417
Encoding: 1047 1047 166
AltUni2: 000417.ffffffff.0
Width: 1360
Flags: W
LayerCount: 3
Fore
SplineSet
195 1161 m 1,0,-1
 158 1161 l 1,1,-1
 260 1452 l 1,2,-1
 1235 1452 l 1,3,-1
 328 57 l 1,4,-1
 573 57 l 2,5,6
 1056 57 1056 57 1194 309 c 1,7,-1
 1235 309 l 1,8,-1
 1137 0 l 1,9,-1
 88 0 l 1,10,-1
 1001 1395 l 1,11,-1
 745 1395 l 2,12,13
 652 1395 652 1395 560 1382 c 128,-1,14
 468 1369 468 1369 364.5 1317.5 c 128,-1,15
 261 1266 261 1266 195 1161 c 1,0,-1
EndSplineSet
Validated: 1
EndChar

StartChar: uni0418
Encoding: 1048 1048 167
AltUni2: 000418.ffffffff.0
Width: 905
Flags: W
LayerCount: 3
Fore
SplineSet
213 1452 m 1,0,-1
 692 1452 l 1,1,-1
 692 1419 l 1,2,3
 591 1418 591 1418 561.5 1358 c 128,-1,4
 532 1298 532 1298 532 1202 c 2,5,-1
 532 248 l 2,6,7
 532 152 532 152 561.5 91 c 128,-1,8
 591 30 591 30 692 29 c 1,9,-1
 692 0 l 1,10,-1
 213 0 l 1,11,-1
 213 29 l 1,12,13
 284 30 284 30 319 61 c 128,-1,14
 354 92 354 92 363.5 137.5 c 128,-1,15
 373 183 373 183 373 248 c 2,16,-1
 373 1202 l 2,17,18
 373 1266 373 1266 363.5 1311.5 c 128,-1,19
 354 1357 354 1357 319.5 1387.5 c 128,-1,20
 285 1418 285 1418 213 1419 c 1,21,-1
 213 1452 l 1,0,-1
EndSplineSet
Validated: 1
EndChar

StartChar: uni0419
Encoding: 1049 1049 168
AltUni2: 000419.ffffffff.0
Width: 1767
Flags: W
LayerCount: 3
Fore
SplineSet
498 369 m 1,0,-1
 1280 1196 l 1,1,-1
 1280 1202 l 2,2,3
 1280 1300 1280 1300 1251 1359 c 128,-1,4
 1222 1418 1222 1418 1120 1419 c 1,5,-1
 1120 1452 l 1,6,-1
 1606 1452 l 1,7,-1
 1606 1419 l 1,8,9
 1504 1418 1504 1418 1475 1358 c 128,-1,10
 1446 1298 1446 1298 1446 1202 c 2,11,-1
 1446 248 l 2,12,13
 1446 188 1446 188 1455 142 c 128,-1,14
 1464 96 1464 96 1499.5 63 c 128,-1,15
 1535 30 1535 30 1606 29 c 1,16,-1
 1606 0 l 1,17,-1
 1120 0 l 1,18,-1
 1120 29 l 1,19,20
 1222 30 1222 30 1251 90 c 128,-1,21
 1280 150 1280 150 1280 248 c 2,22,-1
 1280 1104 l 1,23,-1
 483 270 l 1,24,-1
 483 248 l 2,25,26
 483 149 483 149 512 89.5 c 128,-1,27
 541 30 541 30 641 29 c 1,28,-1
 641 0 l 1,29,-1
 162 0 l 1,30,-1
 162 29 l 1,31,32
 234 30 234 30 268.5 62.5 c 128,-1,33
 303 95 303 95 312.5 141.5 c 128,-1,34
 322 188 322 188 322 248 c 2,35,-1
 322 1202 l 2,36,37
 322 1298 322 1298 293.5 1358 c 128,-1,38
 265 1418 265 1418 162 1419 c 1,39,-1
 162 1452 l 1,40,-1
 641 1452 l 1,41,-1
 641 1419 l 1,42,43
 546 1418 546 1418 514.5 1364 c 128,-1,44
 483 1310 483 1310 483 1202 c 2,45,-1
 498 369 l 1,0,-1
854 1528 m 0,46,47
 780 1528 780 1528 710 1569 c 128,-1,48
 640 1610 640 1610 635 1704 c 0,49,50
 635 1770 635 1770 663.5 1799.5 c 128,-1,51
 692 1829 692 1829 727 1829 c 1,52,53
 764 1821 764 1821 774 1800 c 0,54,55
 786 1779 786 1779 786 1761 c 0,56,57
 786 1730 786 1730 750 1694 c 1,58,59
 733 1685 733 1685 727 1669 c 0,60,61
 723 1659 723 1659 723 1634 c 1,62,63
 733 1605 733 1605 772 1588 c 128,-1,64
 811 1571 811 1571 854 1571 c 0,65,66
 895 1571 895 1571 935.5 1588 c 128,-1,67
 976 1605 976 1605 983 1634 c 1,68,69
 983 1659 983 1659 979 1669 c 0,70,71
 976 1683 976 1683 956 1694 c 1,72,73
 920 1724 920 1724 920 1755 c 0,74,75
 920 1781 920 1781 932 1800 c 0,76,77
 948 1823 948 1823 983 1829 c 1,78,79
 1018 1829 1018 1829 1044.5 1800 c 128,-1,80
 1071 1771 1071 1771 1071 1704 c 0,81,82
 1066 1616 1066 1616 998.5 1572 c 128,-1,83
 931 1528 931 1528 854 1528 c 0,46,47
EndSplineSet
Validated: 1
EndChar

StartChar: Ydieresis
Encoding: 376 376 169
Width: 1630
Flags: W
LayerCount: 3
Fore
SplineSet
694 1452 m 1,0,-1
 694 1419 l 1,1,2
 593 1418 593 1418 564 1358 c 128,-1,3
 535 1298 535 1298 535 1202 c 2,4,-1
 535 631 l 1,5,-1
 1047 1184 l 2,6,7
 1074 1215 1074 1215 1094 1254 c 128,-1,8
 1114 1293 1114 1293 1114 1325 c 0,9,10
 1114 1332 1114 1332 1110 1350 c 0,11,12
 1105 1371 1105 1371 1084 1390.5 c 128,-1,13
 1063 1410 1063 1410 1034 1417 c 0,14,15
 1020 1419 1020 1419 997 1419 c 1,16,17
 991 1423 991 1423 983 1423 c 1,18,-1
 983 1452 l 1,19,-1
 1448 1452 l 1,20,-1
 1448 1423 l 1,21,22
 1327 1396 1327 1396 1225 1286 c 2,23,-1
 874 909 l 1,24,25
 947 729 947 729 1062.5 509.5 c 128,-1,26
 1178 290 1178 290 1314 99.5 c 128,-1,27
 1450 -91 1450 -91 1567 -172 c 1,28,-1
 1540 -207 l 1,29,30
 1446 -153 1446 -153 1359.5 -80.5 c 128,-1,31
 1273 -8 1273 -8 1172.5 109 c 128,-1,32
 1072 226 1072 226 962 385 c 128,-1,33
 852 544 852 544 727 752 c 1,34,-1
 535 545 l 1,35,-1
 535 248 l 2,36,37
 535 152 535 152 564 91 c 128,-1,38
 593 30 593 30 694 29 c 1,39,-1
 694 0 l 1,40,-1
 203 0 l 1,41,-1
 203 29 l 1,42,43
 304 30 304 30 332 88.5 c 128,-1,44
 360 147 360 147 360 248 c 2,45,-1
 360 1202 l 2,46,47
 360 1303 360 1303 332 1360.5 c 128,-1,48
 304 1418 304 1418 203 1419 c 1,49,-1
 203 1452 l 1,50,-1
 694 1452 l 1,0,-1
EndSplineSet
Validated: 1
EndChar

StartChar: uni041B
Encoding: 1051 1051 170
AltUni2: 00041b.ffffffff.0
Width: 1403
Flags: W
LayerCount: 3
Fore
SplineSet
190 1452 m 1,0,-1
 625 1452 l 1,1,-1
 625 1419 l 1,2,3
 544 1413 544 1413 513.5 1371.5 c 128,-1,4
 483 1330 483 1330 483 1245 c 2,5,-1
 487 225 l 2,6,7
 487 154 487 154 496 120.5 c 128,-1,8
 505 87 505 87 535.5 72 c 128,-1,9
 566 57 566 57 631 57 c 2,10,-1
 893 57 l 2,11,12
 971 57 971 57 1078.5 101 c 128,-1,13
 1186 145 1186 145 1257 293 c 1,14,-1
 1292 293 l 1,15,-1
 1241 0 l 1,16,-1
 172 0 l 1,17,-1
 172 29 l 1,18,19
 261 30 261 30 294.5 77 c 128,-1,20
 328 124 328 124 328 225 c 2,21,-1
 328 1231 l 2,22,23
 328 1322 328 1322 299 1368.5 c 128,-1,24
 270 1415 270 1415 190 1419 c 1,25,-1
 190 1452 l 1,0,-1
EndSplineSet
Validated: 1
EndChar

StartChar: uni041C
Encoding: 1052 1052 171
AltUni2: 00041c.ffffffff.0
Width: 1995
Flags: W
LayerCount: 3
Fore
SplineSet
963 408 m 1,0,-1
 1360 1452 l 1,1,-1
 1675 1452 l 1,2,-1
 1675 1419 l 1,3,4
 1534 1419 1534 1419 1534 1294 c 0,5,6
 1534 1281 1534 1281 1538 1247 c 2,7,-1
 1737 209 l 2,8,9
 1753 125 1753 125 1806 78 c 128,-1,10
 1859 31 1859 31 1925 31 c 1,11,-1
 1925 0 l 1,12,-1
 1411 0 l 1,13,-1
 1411 31 l 1,14,15
 1561 31 1561 31 1571 139 c 0,16,17
 1571 151 1571 151 1570 161 c 128,-1,18
 1569 171 1569 171 1565.5 191.5 c 128,-1,19
 1562 212 1562 212 1561 219 c 2,20,-1
 1360 1282 l 1,21,-1
 938 158 l 1,22,-1
 874 158 l 1,23,-1
 506 1247 l 1,24,-1
 299 217 l 2,25,26
 295 193 295 193 295 180 c 0,27,28
 295 111 295 111 341.5 72.5 c 128,-1,29
 388 34 388 34 453 31 c 1,30,-1
 453 0 l 1,31,-1
 66 0 l 1,32,-1
 66 31 l 1,33,34
 185 37 185 37 225 152 c 0,35,36
 231 167 231 167 242 203 c 0,37,38
 243 205 243 205 248 229 c 2,39,-1
 440 1202 l 2,40,41
 449 1245 449 1245 449 1298 c 0,42,43
 447 1341 447 1341 412.5 1380 c 128,-1,44
 378 1419 378 1419 299 1419 c 1,45,-1
 299 1452 l 1,46,-1
 623 1452 l 1,47,-1
 963 408 l 1,0,-1
EndSplineSet
Validated: 1
EndChar

StartChar: uni041D
Encoding: 1053 1053 172
AltUni2: 00041d.ffffffff.0
Width: 1679
Flags: W
LayerCount: 3
Fore
SplineSet
1298 246 m 1,0,-1
 1298 1196 l 2,1,2
 1298 1262 1298 1262 1278 1329.5 c 128,-1,3
 1258 1397 1258 1397 1184 1413 c 0,4,5
 1179 1415 1179 1415 1168 1416.5 c 128,-1,6
 1157 1418 1157 1418 1149 1419 c 2,7,-1
 1133 1419 l 1,8,-1
 1133 1452 l 1,9,-1
 1520 1452 l 1,10,-1
 1520 1419 l 1,11,12
 1450 1412 1450 1412 1415 1377.5 c 128,-1,13
 1380 1343 1380 1343 1371 1299.5 c 128,-1,14
 1362 1256 1362 1256 1362 1206 c 2,15,-1
 1362 -29 l 1,16,-1
 1305 -29 l 1,17,-1
 385 1264 l 1,18,-1
 385 236 l 2,19,20
 385 179 385 179 417.5 104 c 128,-1,21
 450 29 450 29 555 29 c 1,22,-1
 555 0 l 1,23,-1
 162 0 l 1,24,-1
 162 29 l 1,25,26
 269 34 269 34 300.5 96.5 c 128,-1,27
 332 159 332 159 332 223 c 2,28,-1
 332 1174 l 2,29,30
 332 1419 332 1419 162 1419 c 1,31,-1
 162 1452 l 1,32,-1
 465 1452 l 1,33,-1
 1298 246 l 1,0,-1
EndSplineSet
Validated: 1
EndChar

StartChar: uni041E
Encoding: 1054 1054 173
AltUni2: 00041e.ffffffff.0
Width: 1679
Flags: W
LayerCount: 3
Fore
SplineSet
143 750 m 1,0,1
 149 946 149 946 216 1085.5 c 128,-1,2
 283 1225 283 1225 389 1312 c 128,-1,3
 495 1399 495 1399 611 1439 c 128,-1,4
 727 1479 727 1479 836 1481 c 0,5,6
 944 1481 944 1481 1064.5 1440.5 c 128,-1,7
 1185 1400 1185 1400 1289.5 1313.5 c 128,-1,8
 1394 1227 1394 1227 1462 1085 c 128,-1,9
 1530 943 1530 943 1534 750 c 1,10,11
 1534 546 1534 546 1468.5 394 c 128,-1,12
 1403 242 1403 242 1297 149 c 128,-1,13
 1191 56 1191 56 1069 13.5 c 128,-1,14
 947 -29 947 -29 836 -29 c 0,15,16
 728 -29 728 -29 607.5 13.5 c 128,-1,17
 487 56 487 56 380 150 c 128,-1,18
 273 244 273 244 208 394.5 c 128,-1,19
 143 545 143 545 143 750 c 1,0,1
334 743 m 0,20,21
 334 570 334 570 381 408 c 128,-1,22
 428 246 428 246 542 138.5 c 128,-1,23
 656 31 656 31 840 31 c 0,24,25
 982 31 982 31 1080.5 96 c 128,-1,26
 1179 161 1179 161 1236.5 266 c 128,-1,27
 1294 371 1294 371 1318.5 492.5 c 128,-1,28
 1343 614 1343 614 1343 743 c 0,29,30
 1339 985 1339 985 1261.5 1138 c 128,-1,31
 1184 1291 1184 1291 1070.5 1357 c 128,-1,32
 957 1423 957 1423 840 1423 c 0,33,34
 754 1421 754 1421 668.5 1386.5 c 128,-1,35
 583 1352 583 1352 507 1272 c 128,-1,36
 431 1192 431 1192 384.5 1062.5 c 128,-1,37
 338 933 338 933 334 743 c 0,20,21
EndSplineSet
Validated: 1
EndChar

StartChar: uni041F
Encoding: 1055 1055 174
AltUni2: 00041f.ffffffff.0
Width: 1452
Flags: W
LayerCount: 3
Fore
SplineSet
469 545 m 1,0,-1
 469 246 l 2,1,2
 469 176 469 176 480 131 c 128,-1,3
 491 86 491 86 526 59 c 128,-1,4
 561 32 561 32 625 29 c 1,5,-1
 625 0 l 1,6,-1
 156 0 l 1,7,-1
 156 29 l 1,8,9
 253 30 253 30 282 87.5 c 128,-1,10
 311 145 311 145 311 246 c 2,11,-1
 311 1206 l 2,12,13
 311 1306 311 1306 282.5 1362.5 c 128,-1,14
 254 1419 254 1419 156 1419 c 1,15,-1
 156 1452 l 1,16,-1
 831 1452 l 2,17,18
 945 1452 945 1452 1033.5 1416.5 c 128,-1,19
 1122 1381 1122 1381 1179.5 1319 c 128,-1,20
 1237 1257 1237 1257 1267.5 1174 c 128,-1,21
 1298 1091 1298 1091 1298 1001 c 0,22,23
 1294 772 1294 772 1143 661.5 c 128,-1,24
 992 551 992 551 788 551 c 0,25,26
 740 549 740 549 709 547 c 128,-1,27
 678 545 678 545 664 545 c 2,28,-1
 469 545 l 1,0,-1
469 602 m 1,29,-1
 641 602 l 2,30,31
 825 602 825 602 929 651 c 128,-1,32
 1033 700 1033 700 1073.5 787 c 128,-1,33
 1114 874 1114 874 1114 997 c 0,34,35
 1111 1206 1111 1206 1017.5 1286 c 128,-1,36
 924 1366 924 1366 829 1382 c 0,37,38
 784 1389 784 1389 698 1389 c 0,39,40
 625 1389 625 1389 586 1384 c 1,41,42
 553 1384 553 1384 517 1365.5 c 128,-1,43
 481 1347 481 1347 471 1298 c 0,44,45
 470 1290 470 1290 470 1274.5 c 128,-1,46
 470 1259 470 1259 469 1251 c 2,47,-1
 469 1225 l 1,48,-1
 469 602 l 1,29,-1
EndSplineSet
Validated: 1
EndChar

StartChar: uni0420
Encoding: 1056 1056 175
AltUni2: 000420.ffffffff.0
Width: 1540
Flags: W
LayerCount: 3
Fore
SplineSet
172 1452 m 1,0,-1
 797 1448 l 2,1,2
 976 1448 976 1448 1145.5 1378.5 c 128,-1,3
 1315 1309 1315 1309 1321 1063 c 1,4,5
 1321 885 1321 885 1227.5 783.5 c 128,-1,6
 1134 682 1134 682 963 625 c 1,7,8
 985 498 985 498 1053 345.5 c 128,-1,9
 1121 193 1121 193 1218 51 c 128,-1,10
 1315 -91 1315 -91 1407 -172 c 1,11,-1
 1384 -203 l 1,12,13
 1280 -137 1280 -137 1181.5 -47 c 128,-1,14
 1083 43 1083 43 999 147.5 c 128,-1,15
 915 252 915 252 854.5 368 c 128,-1,16
 794 484 794 484 772 596 c 1,17,18
 666 596 666 596 602 600 c 0,19,20
 556 600 556 600 506 606 c 1,21,-1
 492 606 l 1,22,-1
 492 248 l 2,23,24
 492 145 492 145 521 87.5 c 128,-1,25
 550 30 550 30 647 29 c 1,26,-1
 647 0 l 1,27,-1
 172 0 l 1,28,-1
 172 29 l 1,29,30
 274 30 274 30 303 90 c 128,-1,31
 332 150 332 150 332 248 c 2,32,-1
 332 1202 l 2,33,34
 332 1300 332 1300 303 1359 c 128,-1,35
 274 1418 274 1418 172 1419 c 1,36,-1
 172 1452 l 1,0,-1
492 666 m 1,37,38
 565 657 565 657 676 657 c 0,39,40
 831 658 831 658 937.5 709.5 c 128,-1,41
 1044 761 1044 761 1099.5 848 c 128,-1,42
 1155 935 1155 935 1155 1040 c 0,43,44
 1151 1197 1151 1197 1069 1275 c 128,-1,45
 987 1353 987 1353 896.5 1372 c 128,-1,46
 806 1391 806 1391 721 1391 c 2,47,-1
 657 1391 l 2,48,49
 591 1391 591 1391 549 1377 c 128,-1,50
 507 1363 507 1363 494 1321 c 0,51,52
 492 1303 492 1303 492 1260 c 2,53,-1
 492 1229 l 1,54,-1
 492 666 l 1,37,38
EndSplineSet
Validated: 1
EndChar

StartChar: uni0421
Encoding: 1057 1057 176
AltUni2: 000421.ffffffff.0
Width: 1403
Flags: W
LayerCount: 3
Fore
SplineSet
1085 1133 m 1,0,-1
 1047 1133 l 1,1,2
 1023 1210 1023 1210 961.5 1277 c 128,-1,3
 900 1344 900 1344 820 1380.5 c 128,-1,4
 740 1417 740 1417 653 1419 c 0,5,6
 516 1419 516 1419 450.5 1346 c 128,-1,7
 385 1273 385 1273 385 1180 c 0,8,9
 385 1117 385 1117 413.5 1069 c 128,-1,10
 442 1021 442 1021 492 983.5 c 128,-1,11
 542 946 542 946 600 917 c 128,-1,12
 658 888 658 888 752 846 c 0,13,14
 849 806 849 806 944 762 c 1,15,16
 1035 715 1035 715 1121.5 627 c 128,-1,17
 1208 539 1208 539 1208 389 c 0,18,19
 1208 290 1208 290 1153.5 194.5 c 128,-1,20
 1099 99 1099 99 992 38 c 128,-1,21
 885 -23 885 -23 739 -29 c 1,22,23
 586 -29 586 -29 468 6.5 c 128,-1,24
 350 42 350 42 209 111 c 1,25,-1
 195 389 l 1,26,-1
 231 389 l 1,27,28
 261 280 261 280 338 199 c 128,-1,29
 415 118 415 118 514.5 75 c 128,-1,30
 614 32 614 32 709 29 c 0,31,32
 807 29 807 29 882.5 67.5 c 128,-1,33
 958 106 958 106 1001 172.5 c 128,-1,34
 1044 239 1044 239 1047 322 c 0,35,36
 1047 426 1047 426 996 486.5 c 128,-1,37
 945 547 945 547 860 590 c 0,38,39
 794 620 794 620 698 659 c 0,40,41
 568 717 568 717 493.5 757.5 c 128,-1,42
 419 798 419 798 361.5 849.5 c 128,-1,43
 304 901 304 901 275 965.5 c 128,-1,44
 246 1030 246 1030 246 1116 c 0,45,46
 252 1278 252 1278 368.5 1379.5 c 128,-1,47
 485 1481 485 1481 688 1481 c 1,48,49
 888 1471 888 1471 1063 1368 c 1,50,-1
 1085 1133 l 1,0,-1
EndSplineSet
Validated: 1
EndChar

StartChar: uni0422
Encoding: 1058 1058 177
AltUni2: 000422.ffffffff.0
Width: 1315
Flags: W
LayerCount: 3
Fore
SplineSet
424 0 m 1,0,-1
 424 29 l 1,1,2
 524 30 524 30 552 90 c 128,-1,3
 580 150 580 150 580 246 c 2,4,-1
 580 1223 l 2,5,6
 580 1235 580 1235 579.5 1242 c 128,-1,7
 579 1249 579 1249 578 1257 c 0,8,9
 576 1280 576 1280 575.5 1296 c 128,-1,10
 575 1312 575 1312 571 1321 c 0,11,12
 558 1365 558 1365 526 1377 c 128,-1,13
 494 1389 494 1389 449 1389 c 0,14,15
 351 1385 351 1385 257 1320 c 128,-1,16
 163 1255 163 1255 123 1174 c 1,17,-1
 94 1174 l 1,18,-1
 158 1452 l 1,19,-1
 1155 1452 l 1,20,-1
 1219 1174 l 1,21,-1
 1190 1174 l 1,22,23
 1158 1235 1158 1235 1111 1277.5 c 128,-1,24
 1064 1320 1064 1320 1015.5 1343.5 c 128,-1,25
 967 1367 967 1367 926.5 1377 c 128,-1,26
 886 1387 886 1387 864 1389 c 0,27,28
 840 1393 840 1393 821 1393 c 0,29,30
 748 1393 748 1393 733 1321 c 1,31,-1
 733 1257 l 1,32,-1
 733 1223 l 1,33,-1
 733 246 l 2,34,35
 733 150 733 150 761 90 c 128,-1,36
 789 30 789 30 889 29 c 1,37,-1
 889 0 l 1,38,-1
 424 0 l 1,0,-1
EndSplineSet
Validated: 1
EndChar

